<svg aria-hidden="true" xmlns="http://www.w3.org/2000/svg" xmlns:xlink="http://www.w3.org/1999/xlink"><symbol viewBox="0 0 32 32" fill="none" id="a-analytics" xmlns="http://www.w3.org/2000/svg">
<path d="M16 26.6666V13.3333" stroke="currentColor" stroke-width="2" stroke-linecap="round" stroke-linejoin="round"/>
<path d="M24 26.6666V5.33325" stroke="currentColor" stroke-width="2" stroke-linecap="round" stroke-linejoin="round"/>
<path d="M8 26.6666V21.3333" stroke="currentColor" stroke-width="2" stroke-linecap="round" stroke-linejoin="round"/>
</symbol><symbol viewBox="0 0 32 32" fill="none" id="a-dashboard" xmlns="http://www.w3.org/2000/svg">
<path d="M6.66675 22.6667H5.33341C4.62617 22.6667 3.94789 22.3857 3.4478 21.8856C2.9477 21.3855 2.66675 20.7072 2.66675 20V6.66667C2.66675 5.95942 2.9477 5.28115 3.4478 4.78105C3.94789 4.28095 4.62617 4 5.33341 4H26.6667C27.374 4 28.0523 4.28095 28.5524 4.78105C29.0525 5.28115 29.3334 5.95942 29.3334 6.66667V20C29.3334 20.7072 29.0525 21.3855 28.5524 21.8856C28.0523 22.3857 27.374 22.6667 26.6667 22.6667H25.3334" stroke="currentColor" stroke-width="2" stroke-linecap="round" stroke-linejoin="round"/>
<path d="M15.9999 20L22.6666 28H9.33325L15.9999 20Z" stroke="currentColor" stroke-width="2" stroke-linecap="round" stroke-linejoin="round"/>
</symbol><symbol viewBox="0 0 32 32" fill="none" id="a-earnings" xmlns="http://www.w3.org/2000/svg">
<path d="M16 1.33325V30.6666" stroke="currentColor" stroke-width="2" stroke-linecap="round" stroke-linejoin="round"/>
<path d="M22.6667 6.66675H12.6667C11.429 6.66675 10.242 7.15841 9.36684 8.03358C8.49167 8.90875 8 10.0957 8 11.3334C8 12.5711 8.49167 13.7581 9.36684 14.6332C10.242 15.5084 11.429 16.0001 12.6667 16.0001H19.3333C20.571 16.0001 21.758 16.4917 22.6332 17.3669C23.5083 18.2421 24 19.4291 24 20.6667C24 21.9044 23.5083 23.0914 22.6332 23.9666C21.758 24.8417 20.571 25.3334 19.3333 25.3334H8" stroke="currentColor" stroke-width="2" stroke-linecap="round" stroke-linejoin="round"/>
</symbol><symbol viewBox="0 0 32 32" fill="none" id="a-help" xmlns="http://www.w3.org/2000/svg">
<path d="M16.0001 29.3334C23.3639 29.3334 29.3334 23.3639 29.3334 16.0001C29.3334 8.63628 23.3639 2.66675 16.0001 2.66675C8.63628 2.66675 2.66675 8.63628 2.66675 16.0001C2.66675 23.3639 8.63628 29.3334 16.0001 29.3334Z" stroke="currentColor" stroke-width="2" stroke-linecap="round" stroke-linejoin="round"/>
<path d="M12.1201 12C12.4336 11.1089 13.0523 10.3575 13.8667 9.87887C14.6811 9.40024 15.6386 9.22528 16.5697 9.38498C17.5007 9.54467 18.3452 10.0287 18.9536 10.7514C19.5619 11.4741 19.8949 12.3887 19.8935 13.3334C19.8935 16 15.8935 17.3334 15.8935 17.3334" stroke="currentColor" stroke-width="2" stroke-linecap="round" stroke-linejoin="round"/>
<path d="M16 22.6667H16.0133" stroke="currentColor" stroke-width="2" stroke-linecap="round" stroke-linejoin="round"/>
</symbol><symbol viewBox="0 0 32 32" fill="none" id="a-links" xmlns="http://www.w3.org/2000/svg">
<path d="M13.3333 17.3333C13.9059 18.0988 14.6364 18.7322 15.4753 19.1906C16.3142 19.6489 17.2419 19.9215 18.1955 19.9898C19.149 20.0581 20.106 19.9205 21.0017 19.5864C21.8974 19.2523 22.7107 18.7294 23.3866 18.0533L27.3866 14.0533C28.601 12.796 29.2729 11.112 29.2577 9.36399C29.2426 7.61601 28.5414 5.94392 27.3054 4.70787C26.0693 3.47182 24.3972 2.77069 22.6493 2.7555C20.9013 2.74031 19.2173 3.41227 17.9599 4.62666L15.6666 6.90666" stroke="currentColor" stroke-width="2" stroke-linecap="round" stroke-linejoin="round"/>
<path d="M18.6667 14.6666C18.0941 13.9011 17.3635 13.2677 16.5246 12.8094C15.6857 12.351 14.758 12.0785 13.8045 12.0102C12.851 11.9419 11.8939 12.0795 10.9982 12.4136C10.1025 12.7477 9.2892 13.2705 8.61336 13.9466L4.61336 17.9466C3.39897 19.204 2.72701 20.888 2.7422 22.636C2.75738 24.384 3.45851 26.056 4.69457 27.2921C5.93062 28.5282 7.6027 29.2293 9.35068 29.2445C11.0987 29.2597 12.7827 28.5877 14.04 27.3733L16.32 25.0933" stroke="currentColor" stroke-width="2" stroke-linecap="round" stroke-linejoin="round"/>
</symbol><symbol viewBox="0 0 24 24" fill="none" id="a-pro" xmlns="http://www.w3.org/2000/svg">
<path d="M1.04807 8.80686C0.702638 7.15382 2.29131 5.87697 3.49634 6.84063L6.40942 9.16824C6.58702 9.31038 6.78757 9.40907 6.9989 9.4583C7.21024 9.50754 7.42796 9.5063 7.63887 9.45466C7.84978 9.40302 8.04949 9.30206 8.22589 9.1579C8.40229 9.01374 8.5517 8.82937 8.66507 8.61598L10.6453 4.87996C10.7879 4.61096 10.9873 4.38889 11.2244 4.23487C11.4615 4.08085 11.7285 4 12 4C12.2715 4 12.5385 4.08085 12.7756 4.23487C13.0127 4.38889 13.2121 4.61096 13.3547 4.87996L15.3349 8.61598C15.4483 8.82937 15.5977 9.01374 15.7741 9.1579C15.9505 9.30206 16.1502 9.40302 16.3611 9.45466C16.572 9.5063 16.7898 9.50754 17.0011 9.4583C17.2124 9.40907 17.413 9.31038 17.5906 9.16824L20.5037 6.84063C21.7087 5.87697 23.2974 7.15382 22.9519 8.80501L20.7233 19.446C20.6389 19.8491 20.4406 20.2076 20.1604 20.464C19.8801 20.7203 19.5341 20.8598 19.1777 20.86C19.1777 20.86 14.8198 20.0937 12 20.0936C9.17959 20.0936 4.82076 20.86 4.82076 20.86C4.46433 20.8598 4.11828 20.7203 3.83803 20.464C3.55778 20.2076 3.35954 19.8491 3.27507 19.446L1.04807 8.80686Z" stroke="currentColor" stroke-width="2"/>
<path fill-rule="evenodd" clip-rule="evenodd" d="M7 16.25C7 16.0511 7.05268 15.8603 7.14645 15.7197C7.24021 15.579 7.36739 15.5 7.5 15.5H16.237C16.3696 15.5 16.4968 15.579 16.5906 15.7197C16.6843 15.8603 16.737 16.0511 16.737 16.25C16.737 16.4489 16.6843 16.6397 16.5906 16.7803C16.4968 16.921 16.3696 17 16.237 17H7.5C7.36739 17 7.24021 16.921 7.14645 16.7803C7.05268 16.6397 7 16.4489 7 16.25Z" fill="currentColor"/>
</symbol><symbol viewBox="0 0 32 32" fill="none" id="a-qr-codes" xmlns="http://www.w3.org/2000/svg">
<path d="M12.2754 3H4.15942C3.51909 3 3 3.51909 3 4.15942V12.2754C3 12.9157 3.51909 13.4348 4.15942 13.4348H12.2754C12.9157 13.4348 13.4348 12.9157 13.4348 12.2754V4.15942C13.4348 3.51909 12.9157 3 12.2754 3Z" stroke="currentColor" stroke-width="2" stroke-linecap="round" stroke-linejoin="round"/>
<path d="M12.2754 18.5652H4.15942C3.51909 18.5652 3 19.0843 3 19.7246V27.8405C3 28.4809 3.51909 29 4.15942 29H12.2754C12.9157 29 13.4348 28.4809 13.4348 27.8405V19.7246C13.4348 19.0843 12.9157 18.5652 12.2754 18.5652Z" stroke="currentColor" stroke-width="2" stroke-linecap="round" stroke-linejoin="round"/>
<path d="M27.8398 3H19.7239C19.0835 3 18.5645 3.51909 18.5645 4.15942V12.2754C18.5645 12.9157 19.0835 13.4348 19.7239 13.4348H27.8398C28.4801 13.4348 28.9992 12.9157 28.9992 12.2754V4.15942C28.9992 3.51909 28.4801 3 27.8398 3Z" stroke="currentColor" stroke-width="2" stroke-linecap="round" stroke-linejoin="round"/>
<path d="M21.463 18.5652H19.7239C19.4164 18.5652 19.1215 18.6873 18.904 18.9048C18.6866 19.1222 18.5645 19.4171 18.5645 19.7246V21.4637M28.9992 21.4637V19.7246C28.9992 19.4171 28.8771 19.1222 28.6596 18.9048C28.4422 18.6873 28.1473 18.5652 27.8398 18.5652H26.1007M26.1007 29H27.8398C28.1473 29 28.4422 28.8778 28.6596 28.6604C28.8771 28.4429 28.9992 28.148 28.9992 27.8405V26.1014M18.5645 26.1014V27.8405C18.5645 28.148 18.6866 28.4429 18.904 28.6604C19.1215 28.8778 19.4164 29 19.7239 29H21.463" stroke="currentColor" stroke-width="2" stroke-linecap="round" stroke-linejoin="round"/>
</symbol><symbol viewBox="0 0 32 32" fill="none" id="a-settings" xmlns="http://www.w3.org/2000/svg">
<g clip-path="url(#hclip0_4028_216)">
<path d="M16 20C18.2091 20 20 18.2091 20 16C20 13.7909 18.2091 12 16 12C13.7909 12 12 13.7909 12 16C12 18.2091 13.7909 20 16 20Z" stroke="currentColor" stroke-width="2" stroke-linecap="round" stroke-linejoin="round"/>
<path d="M25.8666 19.9999C25.6891 20.4021 25.6362 20.8482 25.7146 21.2807C25.793 21.7132 25.9992 22.1123 26.3066 22.4266L26.3866 22.5066C26.6345 22.7542 26.8312 23.0484 26.9654 23.3721C27.0996 23.6958 27.1687 24.0428 27.1687 24.3933C27.1687 24.7437 27.0996 25.0907 26.9654 25.4144C26.8312 25.7382 26.6345 26.0323 26.3866 26.2799C26.1389 26.5279 25.8448 26.7245 25.5211 26.8587C25.1974 26.9929 24.8504 27.062 24.4999 27.062C24.1495 27.062 23.8025 26.9929 23.4787 26.8587C23.155 26.7245 22.8609 26.5279 22.6133 26.2799L22.5333 26.1999C22.219 25.8925 21.8199 25.6863 21.3874 25.6079C20.9548 25.5295 20.5087 25.5824 20.1066 25.7599C19.7122 25.9289 19.3759 26.2096 19.139 26.5673C18.9021 26.925 18.775 27.3442 18.7733 27.7733V27.9999C18.7733 28.7072 18.4923 29.3854 17.9922 29.8855C17.4921 30.3856 16.8138 30.6666 16.1066 30.6666C15.3993 30.6666 14.7211 30.3856 14.221 29.8855C13.7209 29.3854 13.4399 28.7072 13.4399 27.9999V27.8799C13.4296 27.4386 13.2867 27.0106 13.0299 26.6515C12.7731 26.2925 12.4142 26.019 11.9999 25.8666C11.5978 25.6891 11.1517 25.6362 10.7191 25.7146C10.2866 25.793 9.88749 25.9992 9.57325 26.3066L9.49325 26.3866C9.24559 26.6345 8.95149 26.8312 8.62776 26.9654C8.30403 27.0996 7.95703 27.1687 7.60659 27.1687C7.25614 27.1687 6.90914 27.0996 6.58541 26.9654C6.26168 26.8312 5.96758 26.6345 5.71992 26.3866C5.47198 26.1389 5.27529 25.8448 5.14109 25.5211C5.00689 25.1974 4.93782 24.8504 4.93782 24.4999C4.93782 24.1495 5.00689 23.8025 5.14109 23.4787C5.27529 23.155 5.47198 22.8609 5.71992 22.6133L5.79992 22.5333C6.1073 22.219 6.3135 21.8199 6.39192 21.3874C6.47035 20.9548 6.41741 20.5087 6.23992 20.1066C6.0709 19.7122 5.79026 19.3759 5.43254 19.139C5.07482 18.9021 4.65563 18.775 4.22659 18.7733H3.99992C3.29267 18.7733 2.6144 18.4923 2.1143 17.9922C1.6142 17.4921 1.33325 16.8138 1.33325 16.1066C1.33325 15.3993 1.6142 14.7211 2.1143 14.221C2.6144 13.7209 3.29267 13.4399 3.99992 13.4399H4.11992C4.56124 13.4296 4.98926 13.2867 5.34832 13.0299C5.70738 12.7731 5.98087 12.4142 6.13325 11.9999C6.31074 11.5978 6.36368 11.1517 6.28526 10.7191C6.20683 10.2866 6.00063 9.88749 5.69325 9.57325L5.61325 9.49325C5.36531 9.24559 5.16862 8.95149 5.03443 8.62776C4.90023 8.30403 4.83115 7.95703 4.83115 7.60659C4.83115 7.25614 4.90023 6.90914 5.03443 6.58541C5.16862 6.26168 5.36531 5.96758 5.61325 5.71992C5.86091 5.47198 6.15502 5.27529 6.47874 5.14109C6.80247 5.00689 7.14948 4.93782 7.49992 4.93782C7.85036 4.93782 8.19736 5.00689 8.52109 5.14109C8.84482 5.27529 9.13892 5.47198 9.38659 5.71992L9.46659 5.79992C9.78082 6.1073 10.1799 6.3135 10.6125 6.39192C11.045 6.47035 11.4911 6.41741 11.8933 6.23992H11.9999C12.3943 6.0709 12.7306 5.79026 12.9675 5.43254C13.2044 5.07482 13.3315 4.65563 13.3333 4.22659V3.99992C13.3333 3.29267 13.6142 2.6144 14.1143 2.1143C14.6144 1.6142 15.2927 1.33325 15.9999 1.33325C16.7072 1.33325 17.3854 1.6142 17.8855 2.1143C18.3856 2.6144 18.6666 3.29267 18.6666 3.99992V4.11992C18.6683 4.54897 18.7954 4.96815 19.0323 5.32587C19.2692 5.68359 19.6056 5.96423 19.9999 6.13325C20.4021 6.31074 20.8482 6.36368 21.2807 6.28526C21.7132 6.20683 22.1123 6.00063 22.4266 5.69325L22.5066 5.61325C22.7542 5.36531 23.0484 5.16862 23.3721 5.03443C23.6958 4.90023 24.0428 4.83115 24.3933 4.83115C24.7437 4.83115 25.0907 4.90023 25.4144 5.03443C25.7382 5.16862 26.0323 5.36531 26.2799 5.61325C26.5279 5.86091 26.7245 6.15502 26.8587 6.47874C26.9929 6.80247 27.062 7.14948 27.062 7.49992C27.062 7.85036 26.9929 8.19736 26.8587 8.52109C26.7245 8.84482 26.5279 9.13892 26.2799 9.38659L26.1999 9.46659C25.8925 9.78082 25.6863 10.1799 25.6079 10.6125C25.5295 11.045 25.5824 11.4911 25.7599 11.8933V11.9999C25.9289 12.3943 26.2096 12.7306 26.5673 12.9675C26.925 13.2044 27.3442 13.3315 27.7733 13.3333H27.9999C28.7072 13.3333 29.3854 13.6142 29.8855 14.1143C30.3856 14.6144 30.6666 15.2927 30.6666 15.9999C30.6666 16.7072 30.3856 17.3854 29.8855 17.8855C29.3854 18.3856 28.7072 18.6666 27.9999 18.6666H27.8799C27.4509 18.6683 27.0317 18.7954 26.674 19.0323C26.3162 19.2692 26.0356 19.6056 25.8666 19.9999Z" stroke="currentColor" stroke-width="2" stroke-linecap="round" stroke-linejoin="round"/>
</g>
<defs>
<clipPath id="hclip0_4028_216">
<rect width="32" height="32" fill="currentColor"/>
</clipPath>
</defs>
</symbol><symbol viewBox="0 0 14 8" fill="none" id="chevron" xmlns="http://www.w3.org/2000/svg">
<path d="M1 1L7 7L13 1" stroke="currentColor" stroke-width="2" stroke-linecap="round" stroke-linejoin="round"/>
</symbol><symbol viewBox="0 0 72 72" fill="none" id="icon-analytics" xmlns="http://www.w3.org/2000/svg">
<path d="M13 8H8V60C8 61.0609 8.42143 62.0783 9.17157 62.8284C9.92172 63.5786 10.9391 64 12 64H64V59H13V8Z" fill="currentColor"/>
<path d="M60 24H48.3333V27.4286H54.3167L41.6667 40.44L34.5167 33.0686C34.3617 32.9079 34.1774 32.7804 33.9743 32.6933C33.7712 32.6063 33.5534 32.5615 33.3333 32.5615C33.1133 32.5615 32.8955 32.6063 32.6924 32.6933C32.4893 32.7804 32.3049 32.9079 32.15 33.0686L20 45.5829L22.35 48L33.3333 36.7029L40.4833 44.0743C40.6383 44.235 40.8226 44.3625 41.0257 44.4495C41.2288 44.5366 41.4466 44.5814 41.6667 44.5814C41.8867 44.5814 42.1045 44.5366 42.3076 44.4495C42.5107 44.3625 42.6951 44.235 42.85 44.0743L56.6667 29.8457V36H60V24Z" fill="currentColor"/>
</symbol><symbol viewBox="0 0 24 24" fill="none" id="icon-crown" xmlns="http://www.w3.org/2000/svg">
<path d="M1.04807 8.80686C0.702638 7.15382 2.29131 5.87697 3.49634 6.84063L6.40942 9.16824C6.58702 9.31038 6.78757 9.40907 6.9989 9.4583C7.21024 9.50754 7.42796 9.5063 7.63887 9.45466C7.84978 9.40302 8.04949 9.30206 8.22589 9.1579C8.40229 9.01374 8.5517 8.82937 8.66507 8.61598L10.6453 4.87996C10.7879 4.61096 10.9873 4.38889 11.2244 4.23487C11.4615 4.08085 11.7285 4 12 4C12.2715 4 12.5385 4.08085 12.7756 4.23487C13.0127 4.38889 13.2121 4.61096 13.3547 4.87996L15.3349 8.61598C15.4483 8.82937 15.5977 9.01374 15.7741 9.1579C15.9505 9.30206 16.1502 9.40302 16.3611 9.45466C16.572 9.5063 16.7898 9.50754 17.0011 9.4583C17.2124 9.40907 17.413 9.31038 17.5906 9.16824L20.5037 6.84063C21.7087 5.87697 23.2974 7.15382 22.9519 8.80501L20.7233 19.446C20.6389 19.8491 20.4406 20.2076 20.1604 20.464C19.8801 20.7203 19.5341 20.8598 19.1777 20.86C19.1777 20.86 14.8198 20.0937 12 20.0936C9.17959 20.0936 4.82076 20.86 4.82076 20.86C4.46433 20.8598 4.11828 20.7203 3.83803 20.464C3.55778 20.2076 3.35954 19.8491 3.27507 19.446L1.04807 8.80686Z" stroke="currentColor" stroke-width="2"/>
<path fill-rule="evenodd" clip-rule="evenodd" d="M7 16.25C7 16.0511 7.05268 15.8603 7.14645 15.7197C7.24021 15.579 7.36739 15.5 7.5 15.5H16.237C16.3696 15.5 16.4968 15.579 16.5906 15.7197C16.6843 15.8603 16.737 16.0511 16.737 16.25C16.737 16.4489 16.6843 16.6397 16.5906 16.7803C16.4968 16.921 16.3696 17 16.237 17H7.5C7.36739 17 7.24021 16.921 7.14645 16.7803C7.05268 16.6397 7 16.4489 7 16.25Z" fill="currentColor"/>
</symbol><symbol viewBox="0 0 72 72" fill="none" id="icon-dollar" xmlns="http://www.w3.org/2000/svg">
<path d="M36 7V63" stroke="currentColor" stroke-width="5" stroke-linecap="round" stroke-linejoin="round"/>
<path d="M51 15H28.5C25.7152 15 23.0445 16.1062 21.0754 18.0754C19.1062 20.0445 18 22.7152 18 25.5C18 28.2848 19.1062 30.9555 21.0754 32.9246C23.0445 34.8938 25.7152 36 28.5 36H43.5C46.2848 36 48.9555 37.1062 50.9246 39.0754C52.8938 41.0445 54 43.7152 54 46.5C54 49.2848 52.8938 51.9555 50.9246 53.9246C48.9555 55.8938 46.2848 57 43.5 57H18" stroke="currentColor" stroke-width="5" stroke-linecap="round" stroke-linejoin="round"/>
</symbol><symbol viewBox="0 0 56 56" fill="none" id="icon-link" xmlns="http://www.w3.org/2000/svg">
<path d="M23.3333 30.3332C24.3354 31.6728 25.6138 32.7813 27.0819 33.5834C28.55 34.3855 30.1735 34.8624 31.8422 34.9819C33.5108 35.1015 35.1857 34.8607 36.7531 34.276C38.3206 33.6913 39.7439 32.7763 40.9266 31.5932L47.9266 24.5932C50.0518 22.3928 51.2278 19.4458 51.2012 16.3868C51.1746 13.3279 49.9476 10.4017 47.7845 8.23862C45.6214 6.07553 42.6953 4.84856 39.6363 4.82197C36.5774 4.79539 33.6303 5.97133 31.43 8.0965L27.4166 12.0865" stroke="currentColor" stroke-width="5" stroke-linecap="round" stroke-linejoin="round"/>
<path d="M32.6666 25.6666C31.6645 24.327 30.3861 23.2185 28.918 22.4164C27.4498 21.6143 25.8264 21.1374 24.1577 21.0178C22.4891 20.8983 20.8142 21.1391 19.2468 21.7238C17.6793 22.3085 16.256 23.2235 15.0732 24.4066L8.07325 31.4066C5.94807 33.607 4.77214 36.554 4.79872 39.613C4.8253 42.6719 6.05227 45.5981 8.21537 47.7612C10.3785 49.9243 13.3046 51.1512 16.3636 51.1778C19.4225 51.2044 22.3696 50.0285 24.5699 47.9033L28.5599 43.9133" stroke="currentColor" stroke-width="5" stroke-linecap="round" stroke-linejoin="round"/>
</symbol><symbol viewBox="0 0 56 56" fill="none" id="icon-qr-code" xmlns="http://www.w3.org/2000/svg">
<rect x="1.5" y="1.5" width="23.1333" height="23.1333" rx="6" stroke="currentColor" stroke-width="3"/>
<rect x="31.3668" y="1.5" width="23.1333" height="23.1333" rx="6" stroke="currentColor" stroke-width="3"/>
<rect x="1.5" y="31.3667" width="23.1333" height="23.1333" rx="6" stroke="currentColor" stroke-width="3"/>
<path d="M8.03345 39.1999C8.03345 38.4819 8.61548 37.8999 9.33345 37.8999H16.8001C17.5181 37.8999 18.1001 38.4819 18.1001 39.1999V46.6666C18.1001 47.3845 17.5181 47.9666 16.8001 47.9666H9.33345C8.61548 47.9666 8.03345 47.3845 8.03345 46.6666V39.1999Z" stroke="currentColor" stroke-width="3"/>
<path d="M8.03345 9.33345C8.03345 8.61548 8.61548 8.03345 9.33345 8.03345H16.8001C17.5181 8.03345 18.1001 8.61548 18.1001 9.33345V16.8001C18.1001 17.5181 17.5181 18.1001 16.8001 18.1001H9.33345C8.61548 18.1001 8.03345 17.5181 8.03345 16.8001V9.33345Z" stroke="currentColor" stroke-width="3"/>
<rect x="37.9003" y="8.03345" width="10.0667" height="10.0667" rx="2.25" stroke="currentColor" stroke-width="3"/>
<path d="M40.1335 31.7334C40.1335 32.7643 39.2978 33.6 38.2668 33.6H35.4668C34.4359 33.6 33.6002 34.4358 33.6002 35.4667V38.2667C33.6002 39.2976 32.7644 40.1334 31.7335 40.1334C30.7026 40.1334 29.8668 39.2976 29.8668 38.2667V35.4667C29.8668 32.3739 32.374 29.8667 35.4668 29.8667H38.2668C39.2978 29.8667 40.1335 30.7024 40.1335 31.7334ZM40.1335 54.1334C40.1335 55.1643 39.2978 56 38.2668 56H35.4668C32.374 56 29.8668 53.4928 29.8668 50.4V47.6C29.8668 46.5691 30.7026 45.7334 31.7335 45.7334C32.7644 45.7334 33.6002 46.5691 33.6002 47.6V50.4C33.6002 51.431 34.4359 52.2667 35.4668 52.2667H38.2668C39.2978 52.2667 40.1335 53.1024 40.1335 54.1334ZM45.7335 54.1334C45.7335 55.1643 46.5692 56 47.6002 56H50.4002C53.493 56 56.0002 53.4928 56.0002 50.4V47.6C56.0002 46.5691 55.1644 45.7334 54.1335 45.7334C53.1026 45.7334 52.2668 46.5691 52.2668 47.6V50.4C52.2668 51.431 51.4311 52.2667 50.4002 52.2667H47.6002C46.5692 52.2667 45.7335 53.1024 45.7335 54.1334ZM56.0002 38.2667C56.0002 39.2976 55.1644 40.1334 54.1335 40.1334C53.1026 40.1334 52.2668 39.2976 52.2668 38.2667V35.4667C52.2668 34.4358 51.4311 33.6 50.4002 33.6H47.6002C46.5692 33.6 45.7335 32.7643 45.7335 31.7334C45.7335 30.7024 46.5692 29.8667 47.6002 29.8667H50.4002C53.4929 29.8667 56.0002 32.3739 56.0002 35.4667V38.2667Z" fill="currentColor"/>
<path d="M40.1335 31.7334C40.1335 32.7643 39.2978 33.6 38.2668 33.6H35.4668C34.4359 33.6 33.6002 34.4358 33.6002 35.4667V38.2667C33.6002 39.2976 32.7644 40.1334 31.7335 40.1334C30.7026 40.1334 29.8668 39.2976 29.8668 38.2667V35.4667C29.8668 32.3739 32.374 29.8667 35.4668 29.8667H38.2668C39.2978 29.8667 40.1335 30.7024 40.1335 31.7334ZM40.1335 54.1334C40.1335 55.1643 39.2978 56 38.2668 56H35.4668C32.374 56 29.8668 53.4928 29.8668 50.4V47.6C29.8668 46.5691 30.7026 45.7334 31.7335 45.7334C32.7644 45.7334 33.6002 46.5691 33.6002 47.6V50.4C33.6002 51.431 34.4359 52.2667 35.4668 52.2667H38.2668C39.2978 52.2667 40.1335 53.1024 40.1335 54.1334ZM45.7335 54.1334C45.7335 55.1643 46.5692 56 47.6002 56H50.4002C53.493 56 56.0002 53.4928 56.0002 50.4V47.6C56.0002 46.5691 55.1644 45.7334 54.1335 45.7334C53.1026 45.7334 52.2668 46.5691 52.2668 47.6V50.4C52.2668 51.431 51.4311 52.2667 50.4002 52.2667H47.6002C46.5692 52.2667 45.7335 53.1024 45.7335 54.1334ZM56.0002 38.2667C56.0002 39.2976 55.1644 40.1334 54.1335 40.1334C53.1026 40.1334 52.2668 39.2976 52.2668 38.2667V35.4667C52.2668 34.4358 51.4311 33.6 50.4002 33.6H47.6002C46.5692 33.6 45.7335 32.7643 45.7335 31.7334C45.7335 30.7024 46.5692 29.8667 47.6002 29.8667H50.4002C53.4929 29.8667 56.0002 32.3739 56.0002 35.4667V38.2667Z" stroke="currentColor"/>
</symbol><symbol viewBox="0 0 56 55" fill="none" id="icon-star" xmlns="http://www.w3.org/2000/svg">
<path d="M27.4056 3.91958C27.4674 3.7292 27.5548 3.6431 27.6278 3.59335C27.7167 3.53277 27.8463 3.48772 28 3.48772C28.1537 3.48772 28.2833 3.53277 28.3722 3.59335C28.4452 3.64309 28.5326 3.7292 28.5944 3.91958L33.0033 17.4886C33.7563 19.8062 35.9161 21.3754 38.353 21.3754H52.6203C52.8204 21.3754 52.9293 21.4319 52.9992 21.4859C53.0843 21.5517 53.1672 21.661 53.2147 21.8073C53.2622 21.9535 53.2594 22.0906 53.2292 22.1939C53.2045 22.2787 53.1496 22.3884 52.9876 22.506L41.4451 30.8921C39.4736 32.3245 38.6487 34.8635 39.4017 37.1811L43.8106 50.7501C43.8724 50.9405 43.8524 51.0615 43.8225 51.1447C43.7862 51.2459 43.7079 51.3585 43.5835 51.4489C43.4592 51.5393 43.3279 51.579 43.2203 51.5822C43.132 51.5849 43.0107 51.5666 42.8488 51.4489L31.3063 43.0628C29.3348 41.6304 26.6652 41.6304 24.6937 43.0628L13.1512 51.4489C12.9893 51.5666 12.868 51.5849 12.7797 51.5822C12.6721 51.579 12.5408 51.5393 12.4165 51.4489C12.2921 51.3585 12.2138 51.2459 12.1775 51.1447C12.1476 51.0615 12.1276 50.9405 12.1894 50.7501L16.5983 37.1811C17.3513 34.8635 16.5264 32.3245 14.5549 30.8921L3.01237 22.506C2.85042 22.3884 2.79553 22.2787 2.77077 22.1939C2.74062 22.0906 2.73781 21.9535 2.78532 21.8073C2.83283 21.661 2.91571 21.5517 3.0008 21.4859C3.07066 21.4319 3.17955 21.3754 3.37973 21.3754H17.647C20.0839 21.3754 22.2437 19.8062 22.9967 17.4886L27.4056 3.91958Z" stroke="currentColor" stroke-width="5"/>
<defs>
<linearGradient id="opaint0_linear_248_996" x1="-8" y1="30" x2="64" y2="30" gradientUnits="userSpaceOnUse">
<stop offset="1" stop-color="white"/>
</linearGradient>
</defs>
</symbol></svg>