<svg width="568" height="603" viewBox="0 0 568 603" fill="none" xmlns="http://www.w3.org/2000/svg">
<path d="M324.922 200.831L325.078 201.522L325.676 201.144L483.06 101.76L383.676 259.143L383.298 259.742L383.989 259.898L565.55 300.91L383.989 341.922L383.298 342.078L383.676 342.677L483.06 500.06L325.676 400.676L325.078 400.298L324.922 400.989L283.91 582.551L242.898 400.989L242.742 400.298L242.143 400.676L84.7599 500.06L184.143 342.677L184.522 342.078L183.831 341.922L2.26924 300.91L183.831 259.898L184.522 259.742L184.143 259.143L84.7599 101.76L242.143 201.144L242.742 201.522L242.898 200.831L283.91 19.2695L324.922 200.831Z" stroke="#AB8D60"/>
<path d="M285.984 369.495C242.469 369.095 198.706 392.43 147.102 440.288C194.607 388.168 215.514 341.991 213.798 297.302C212.085 252.67 187.809 209.648 145.218 163.794C191.845 205.473 238.292 226.359 284.788 226.359C333.268 226.359 381.696 203.652 430.328 158.344C387.377 206.889 360.558 251.029 357.629 296.993C354.798 341.408 374.279 387.403 422.769 440.597C372.519 393.973 329.445 369.895 285.984 369.495Z" stroke="#AB8D60"/>
<path d="M327.545 251.249C356.681 283.363 403.081 299.986 474.108 303.153C403.414 305.6 357.117 318.36 327.961 348.403C299.306 377.931 287.308 424.052 284.808 493.108C282.474 424.608 271.24 378.494 243.024 348.83C214.291 318.621 168.05 305.579 96.0633 303.138C167.452 299.935 213.434 283.329 242.171 251.271C270.612 219.542 282.069 172.776 284.692 109.223C286.915 172.752 298.755 219.516 327.545 251.249Z" stroke="#AB8D60"/>
<path d="M3.04329 302.27C2.41792 301.708 1.90506 301.253 1.51702 300.91C1.90506 300.567 2.41792 300.112 3.04329 299.55C4.57193 298.178 6.77302 296.173 9.46659 293.639C14.8532 288.573 22.2121 281.391 30.1027 272.927C45.8596 256.024 63.8287 233.913 72.3719 213.288C80.9152 192.663 83.844 164.322 84.6538 141.229C85.0594 129.664 84.9343 119.382 84.7078 111.991C84.5946 108.295 84.456 105.32 84.3456 103.269C84.3004 102.43 84.26 101.745 84.228 101.228C84.7447 101.26 85.4295 101.301 86.2688 101.346C88.3202 101.456 91.2944 101.595 94.9905 101.708C102.382 101.935 112.664 102.06 124.228 101.654C147.322 100.844 175.663 97.9154 196.288 89.3722C216.913 80.8289 239.024 62.8599 255.926 47.1029C264.391 39.2124 271.573 31.8534 276.639 26.4668C279.172 23.7733 281.177 21.5722 282.55 20.0435C283.111 19.4182 283.567 18.9053 283.91 18.5173C284.253 18.9053 284.708 19.4182 285.27 20.0435C286.642 21.5722 288.647 23.7733 291.181 26.4668C296.247 31.8534 303.429 39.2124 311.893 47.1029C328.795 62.8599 350.906 80.8289 371.532 89.3722C392.157 97.9154 420.498 100.844 443.591 101.654C455.156 102.06 465.438 101.935 472.829 101.708C476.525 101.595 479.499 101.456 481.551 101.346C482.39 101.301 483.075 101.26 483.592 101.228C483.56 101.745 483.519 102.43 483.474 103.269C483.364 105.32 483.225 108.295 483.112 111.991C482.885 119.382 482.76 129.664 483.166 141.229C483.976 164.322 486.904 192.663 495.448 213.288C503.991 233.913 521.96 256.024 537.717 272.927C545.607 281.391 552.966 288.573 558.353 293.639C561.047 296.173 563.248 298.178 564.776 299.55C565.402 300.112 565.915 300.567 566.303 300.91C565.915 301.253 565.402 301.708 564.776 302.27C563.248 303.642 561.047 305.648 558.353 308.181C552.966 313.247 545.607 320.429 537.717 328.893C521.96 345.796 503.991 367.907 495.448 388.532C486.904 409.157 483.976 437.498 483.166 460.592C482.76 472.156 482.885 482.438 483.112 489.829C483.225 493.525 483.364 496.5 483.474 498.551C483.519 499.39 483.56 500.075 483.592 500.592C483.075 500.56 482.39 500.519 481.551 500.474C479.499 500.364 476.525 500.225 472.829 500.112C465.438 499.886 455.156 499.761 443.591 500.166C420.498 500.976 392.157 503.905 371.532 512.448C350.906 520.991 328.795 538.96 311.893 554.717C303.429 562.608 296.247 569.967 291.181 575.353C288.647 578.047 286.642 580.248 285.27 581.777C284.708 582.402 284.253 582.915 283.91 583.303C283.567 582.915 283.111 582.402 282.55 581.777C281.177 580.248 279.172 578.047 276.639 575.353C271.573 569.967 264.391 562.608 255.926 554.717C239.024 538.96 216.913 520.991 196.288 512.448C175.663 503.905 147.322 500.976 124.228 500.166C112.664 499.761 102.382 499.886 94.9905 500.112C91.2944 500.225 88.3202 500.364 86.2688 500.474C85.4295 500.519 84.7447 500.56 84.228 500.592C84.26 500.075 84.3004 499.39 84.3456 498.551C84.456 496.5 84.5946 493.525 84.7078 489.829C84.9343 482.438 85.0594 472.156 84.6538 460.592C83.844 437.498 80.9152 409.157 72.3719 388.532C63.8287 367.907 45.8596 345.796 30.1027 328.893C22.2121 320.429 14.8532 313.247 9.46659 308.181C6.77302 305.648 4.57193 303.642 3.04329 302.27Z" stroke="#AB8D60" stroke-width="2"/>
<circle cx="72.9513" cy="212.133" r="6.53182" fill="#AB8D60" stroke="#AB8D60"/>
<circle cx="27.6829" cy="274.981" r="3.4554" fill="#AB8D60" stroke="#AB8D60"/>
<circle cx="43.5052" cy="258.28" r="3.4554" fill="#AB8D60" stroke="#AB8D60"/>
<circle cx="56.6878" cy="240.7" r="3.4554" fill="#AB8D60" stroke="#AB8D60"/>
<circle cx="80.4295" cy="183.567" r="3.4554" fill="#AB8D60" stroke="#AB8D60"/>
<circle cx="84.8265" cy="139.618" r="3.4554" fill="#AB8D60" stroke="#AB8D60"/>
<circle cx="83.0692" cy="161.592" r="3.4554" fill="#AB8D60" stroke="#AB8D60"/>
<circle cx="7.03182" cy="7.03182" r="6.53182" transform="matrix(1 0 0 -1 65.9194 396.718)" fill="#AB8D60" stroke="#AB8D60"/>
<circle cx="3.9554" cy="3.9554" r="3.4554" transform="matrix(1 0 0 -1 23.7275 330.794)" fill="#AB8D60" stroke="#AB8D60"/>
<circle cx="3.9554" cy="3.9554" r="3.4554" transform="matrix(1 0 0 -1 39.5498 347.495)" fill="#AB8D60" stroke="#AB8D60"/>
<circle cx="3.9554" cy="3.9554" r="3.4554" transform="matrix(1 0 0 -1 52.7324 365.075)" fill="#AB8D60" stroke="#AB8D60"/>
<circle cx="3.9554" cy="3.9554" r="3.4554" transform="matrix(1 0 0 -1 76.4741 422.208)" fill="#AB8D60" stroke="#AB8D60"/>
<circle cx="3.9554" cy="3.9554" r="3.4554" transform="matrix(1 0 0 -1 80.8711 466.157)" fill="#AB8D60" stroke="#AB8D60"/>
<circle cx="3.9554" cy="3.9554" r="3.4554" transform="matrix(1 0 0 -1 79.1138 444.182)" fill="#AB8D60" stroke="#AB8D60"/>
<circle cx="494.862" cy="389.686" r="6.53182" transform="rotate(180 494.862 389.686)" fill="#AB8D60" stroke="#AB8D60"/>
<circle cx="540.126" cy="326.839" r="3.4554" transform="rotate(180 540.126 326.839)" fill="#AB8D60" stroke="#AB8D60"/>
<circle cx="524.303" cy="343.539" r="3.4554" transform="rotate(180 524.303 343.539)" fill="#AB8D60" stroke="#AB8D60"/>
<circle cx="511.121" cy="361.119" r="3.4554" transform="rotate(180 511.121 361.119)" fill="#AB8D60" stroke="#AB8D60"/>
<circle cx="487.383" cy="418.253" r="3.4554" transform="rotate(180 487.383 418.253)" fill="#AB8D60" stroke="#AB8D60"/>
<circle cx="482.986" cy="462.202" r="3.4554" transform="rotate(180 482.986 462.202)" fill="#AB8D60" stroke="#AB8D60"/>
<circle cx="484.744" cy="440.227" r="3.4554" transform="rotate(180 484.744 440.227)" fill="#AB8D60" stroke="#AB8D60"/>
<circle cx="369.579" cy="514.232" r="6.53182" transform="rotate(-135.85 369.579 514.232)" fill="#AB8D60" stroke="#AB8D60"/>
<circle cx="445.827" cy="500.669" r="3.4554" transform="rotate(-135.85 445.827 500.669)" fill="#AB8D60" stroke="#AB8D60"/>
<circle cx="422.846" cy="501.632" r="3.4554" transform="rotate(-135.85 422.846 501.632)" fill="#AB8D60" stroke="#AB8D60"/>
<circle cx="401.138" cy="505.062" r="3.4554" transform="rotate(-135.85 401.138 505.062)" fill="#AB8D60" stroke="#AB8D60"/>
<circle cx="344.321" cy="527.767" r="3.4554" transform="rotate(-135.85 344.321 527.767)" fill="#AB8D60" stroke="#AB8D60"/>
<circle cx="310.556" cy="556.24" r="3.4554" transform="rotate(-135.85 310.556 556.24)" fill="#AB8D60" stroke="#AB8D60"/>
<circle cx="327.123" cy="541.698" r="3.4554" transform="rotate(-135.85 327.123 541.698)" fill="#AB8D60" stroke="#AB8D60"/>
<circle cx="7.03182" cy="7.03182" r="6.53182" transform="matrix(-0.717521 0.696537 0.696537 0.717521 369.727 78.3019)" fill="#AB8D60" stroke="#AB8D60"/>
<circle cx="3.9554" cy="3.9554" r="3.4554" transform="matrix(-0.717521 0.696537 0.696537 0.717521 445.909 96.2162)" fill="#AB8D60" stroke="#AB8D60"/>
<circle cx="3.9554" cy="3.9554" r="3.4554" transform="matrix(-0.717521 0.696537 0.696537 0.717521 422.929 95.2534)" fill="#AB8D60" stroke="#AB8D60"/>
<circle cx="3.9554" cy="3.9554" r="3.4554" transform="matrix(-0.717521 0.696537 0.696537 0.717521 401.22 91.8231)" fill="#AB8D60" stroke="#AB8D60"/>
<circle cx="3.9554" cy="3.9554" r="3.4554" transform="matrix(-0.717521 0.696537 0.696537 0.717521 344.404 69.1171)" fill="#AB8D60" stroke="#AB8D60"/>
<circle cx="3.9554" cy="3.9554" r="3.4554" transform="matrix(-0.717521 0.696537 0.696537 0.717521 310.639 40.644)" fill="#AB8D60" stroke="#AB8D60"/>
<circle cx="3.9554" cy="3.9554" r="3.4554" transform="matrix(-0.717521 0.696537 0.696537 0.717521 327.206 55.1866)" fill="#AB8D60" stroke="#AB8D60"/>
<circle cx="7.03182" cy="7.03182" r="6.53182" transform="matrix(0.717521 -0.696537 -0.696537 -0.717521 198.56 524.176)" fill="#AB8D60" stroke="#AB8D60"/>
<circle cx="3.9554" cy="3.9554" r="3.4554" transform="matrix(0.717521 -0.696537 -0.696537 -0.717521 122.372 506.262)" fill="#AB8D60" stroke="#AB8D60"/>
<circle cx="3.9554" cy="3.9554" r="3.4554" transform="matrix(0.717521 -0.696537 -0.696537 -0.717521 145.353 507.225)" fill="#AB8D60" stroke="#AB8D60"/>
<circle cx="3.9554" cy="3.9554" r="3.4554" transform="matrix(0.717521 -0.696537 -0.696537 -0.717521 167.061 510.655)" fill="#AB8D60" stroke="#AB8D60"/>
<circle cx="3.9554" cy="3.9554" r="3.4554" transform="matrix(0.717521 -0.696537 -0.696537 -0.717521 223.877 533.361)" fill="#AB8D60" stroke="#AB8D60"/>
<circle cx="3.9554" cy="3.9554" r="3.4554" transform="matrix(0.717521 -0.696537 -0.696537 -0.717521 257.643 561.833)" fill="#AB8D60" stroke="#AB8D60"/>
<circle cx="3.9554" cy="3.9554" r="3.4554" transform="matrix(0.717521 -0.696537 -0.696537 -0.717521 241.076 547.291)" fill="#AB8D60" stroke="#AB8D60"/>
<circle cx="198.712" cy="88.2454" r="6.53182" transform="rotate(44.1498 198.712 88.2454)" fill="#AB8D60" stroke="#AB8D60"/>
<circle cx="122.46" cy="101.809" r="3.4554" transform="rotate(44.1498 122.46 101.809)" fill="#AB8D60" stroke="#AB8D60"/>
<circle cx="145.44" cy="100.847" r="3.4554" transform="rotate(44.1498 145.44 100.847)" fill="#AB8D60" stroke="#AB8D60"/>
<circle cx="167.149" cy="97.4163" r="3.4554" transform="rotate(44.1498 167.149 97.4163)" fill="#AB8D60" stroke="#AB8D60"/>
<circle cx="223.965" cy="74.7102" r="3.4554" transform="rotate(44.1498 223.965 74.7102)" fill="#AB8D60" stroke="#AB8D60"/>
<circle cx="257.73" cy="46.2372" r="3.4554" transform="rotate(44.1498 257.73 46.2372)" fill="#AB8D60" stroke="#AB8D60"/>
<circle cx="241.164" cy="60.7798" r="3.4554" transform="rotate(44.1498 241.164 60.7798)" fill="#AB8D60" stroke="#AB8D60"/>
<circle cx="7.03182" cy="7.03182" r="6.53182" transform="matrix(-1 0 0 1 501.894 205.102)" fill="#AB8D60" stroke="#AB8D60"/>
<circle cx="3.9554" cy="3.9554" r="3.4554" transform="matrix(-1 0 0 1 544.081 271.025)" fill="#AB8D60" stroke="#AB8D60"/>
<circle cx="3.9554" cy="3.9554" r="3.4554" transform="matrix(-1 0 0 1 528.259 254.324)" fill="#AB8D60" stroke="#AB8D60"/>
<circle cx="3.9554" cy="3.9554" r="3.4554" transform="matrix(-1 0 0 1 515.076 236.745)" fill="#AB8D60" stroke="#AB8D60"/>
<circle cx="3.9554" cy="3.9554" r="3.4554" transform="matrix(-1 0 0 1 491.339 179.611)" fill="#AB8D60" stroke="#AB8D60"/>
<circle cx="3.9554" cy="3.9554" r="3.4554" transform="matrix(-1 0 0 1 486.942 135.662)" fill="#AB8D60" stroke="#AB8D60"/>
<circle cx="3.9554" cy="3.9554" r="3.4554" transform="matrix(-1 0 0 1 488.699 157.637)" fill="#AB8D60" stroke="#AB8D60"/>
</svg>
