<svg width="56" height="56" viewBox="0 0 56 56" fill="none" xmlns="http://www.w3.org/2000/svg">
<path d="M23.3333 30.3332C24.3354 31.6728 25.6138 32.7813 27.0819 33.5834C28.55 34.3855 30.1735 34.8624 31.8422 34.9819C33.5108 35.1015 35.1857 34.8607 36.7531 34.276C38.3206 33.6913 39.7439 32.7763 40.9266 31.5932L47.9266 24.5932C50.0518 22.3928 51.2278 19.4458 51.2012 16.3868C51.1746 13.3279 49.9476 10.4017 47.7845 8.23862C45.6214 6.07553 42.6953 4.84856 39.6363 4.82197C36.5774 4.79539 33.6303 5.97133 31.43 8.0965L27.4166 12.0865" stroke="#FAFAFA" stroke-width="5" stroke-linecap="round" stroke-linejoin="round"/>
<path d="M32.6666 25.6666C31.6645 24.327 30.3861 23.2185 28.918 22.4164C27.4498 21.6143 25.8264 21.1374 24.1577 21.0178C22.4891 20.8983 20.8142 21.1391 19.2468 21.7238C17.6793 22.3085 16.256 23.2235 15.0732 24.4066L8.07325 31.4066C5.94807 33.607 4.77214 36.554 4.79872 39.613C4.8253 42.6719 6.05227 45.5981 8.21537 47.7612C10.3785 49.9243 13.3046 51.1512 16.3636 51.1778C19.4225 51.2044 22.3696 50.0285 24.5699 47.9033L28.5599 43.9133" stroke="#FAFAFA" stroke-width="5" stroke-linecap="round" stroke-linejoin="round"/>
</svg>
