<svg width="56" height="55" viewBox="0 0 56 55" fill="none" xmlns="http://www.w3.org/2000/svg">
<path d="M27.4056 3.91958C27.4674 3.7292 27.5548 3.6431 27.6278 3.59335C27.7167 3.53277 27.8463 3.48772 28 3.48772C28.1537 3.48772 28.2833 3.53277 28.3722 3.59335C28.4452 3.64309 28.5326 3.7292 28.5944 3.91958L33.0033 17.4886C33.7563 19.8062 35.9161 21.3754 38.353 21.3754H52.6203C52.8204 21.3754 52.9293 21.4319 52.9992 21.4859C53.0843 21.5517 53.1672 21.661 53.2147 21.8073C53.2622 21.9535 53.2594 22.0906 53.2292 22.1939C53.2045 22.2787 53.1496 22.3884 52.9876 22.506L41.4451 30.8921C39.4736 32.3245 38.6487 34.8635 39.4017 37.1811L43.8106 50.7501C43.8724 50.9405 43.8524 51.0615 43.8225 51.1447C43.7862 51.2459 43.7079 51.3585 43.5835 51.4489C43.4592 51.5393 43.3279 51.579 43.2203 51.5822C43.132 51.5849 43.0107 51.5666 42.8488 51.4489L31.3063 43.0628C29.3348 41.6304 26.6652 41.6304 24.6937 43.0628L13.1512 51.4489C12.9893 51.5666 12.868 51.5849 12.7797 51.5822C12.6721 51.579 12.5408 51.5393 12.4165 51.4489C12.2921 51.3585 12.2138 51.2459 12.1775 51.1447C12.1476 51.0615 12.1276 50.9405 12.1894 50.7501L16.5983 37.1811C17.3513 34.8635 16.5264 32.3245 14.5549 30.8921L3.01237 22.506C2.85042 22.3884 2.79553 22.2787 2.77077 22.1939C2.74062 22.0906 2.73781 21.9535 2.78532 21.8073C2.83283 21.661 2.91571 21.5517 3.0008 21.4859C3.07066 21.4319 3.17955 21.3754 3.37973 21.3754H17.647C20.0839 21.3754 22.2437 19.8062 22.9967 17.4886L27.4056 3.91958Z" stroke="url(#paint0_linear_248_996)" stroke-width="5"/>
<defs>
<linearGradient id="paint0_linear_248_996" x1="-8" y1="30" x2="64" y2="30" gradientUnits="userSpaceOnUse">
<stop offset="1" stop-color="white"/>
</linearGradient>
</defs>
</svg>
