<svg width="48" height="40" viewBox="0 0 48 40" fill="none" xmlns="http://www.w3.org/2000/svg">
<path d="M32.7098 25.3548C30.642 24.4802 29.1878 22.4149 29.1878 20.0051C29.1878 17.1806 31.1854 14.8308 33.8285 14.3154L36.6889 10.0711L27.2878 10.0821V5.37305H3.25488V20.6714H15.8116C14.0034 19.3262 12.8253 17.1649 12.8253 14.7206C12.8253 10.6392 16.0944 7.33122 20.1278 7.33122C24.1606 7.33122 27.4302 10.6392 27.4302 14.7206C27.4302 18.7529 24.2364 22.0249 20.2697 22.1021L20.2728 24.2838C22.1733 24.3021 23.9867 24.6843 25.6509 25.3632L32.7098 25.3548Z" fill="#BDCCD4"/>
<path d="M3.25453 5.37305H1.62695V39.1759H3.25453V20.6714V5.37305Z" fill="#03755F"/>
<path d="M3.42584 3.7198C4.3676 3.1689 4.69064 1.94961 4.14622 0.996629C3.60284 0.0436496 2.39841 -0.283235 1.45561 0.267665C0.513839 0.817521 0.1908 2.03629 0.735219 2.98979C1.27861 3.94329 2.48355 4.27018 3.42584 3.7198Z" fill="#03755F"/>
<path d="M29.1875 20.0053C29.1875 22.4151 30.6412 24.4803 32.7095 25.355C33.3891 25.6427 34.1337 25.8025 34.9165 25.8025C38.0804 25.8025 40.6451 23.2073 40.6451 20.0053C40.6451 16.8038 38.0804 14.208 34.9165 14.208C34.544 14.208 34.1807 14.2472 33.8282 14.3156C31.1851 14.831 29.1875 17.1808 29.1875 20.0053Z" fill="#72BF00"/>
<mask id="mask0_4454_46196" style="mask-type:alpha" maskUnits="userSpaceOnUse" x="30" y="27" width="17" height="13">
<path d="M30.3594 27.5049H46.5191V39.2451H30.3594V27.5049Z" fill="white"/>
</mask>
<g mask="url(#mask0_4454_46196)">
<path d="M34.9165 27.5049C33.2987 27.5049 31.7589 27.8412 30.3594 28.4464C33.1661 31.1701 34.9165 34.9997 34.9165 39.2451H46.5191C46.5191 32.7606 41.3241 27.5049 34.9165 27.5049Z" fill="#72BF00"/>
</g>
<path d="M27.4301 14.7199C27.4301 10.6391 24.161 7.33105 20.1276 7.33105C16.0948 7.33105 12.8252 10.6391 12.8252 14.7199C12.8252 17.1648 14.0038 19.3255 15.8115 20.6707C17.0216 21.5709 18.5109 22.1088 20.1276 22.1088C20.1756 22.1088 20.2221 22.103 20.2701 22.102C24.2368 22.0242 27.4301 18.7527 27.4301 14.7199Z" fill="#03755F"/>
<mask id="mask1_4454_46196" style="mask-type:alpha" maskUnits="userSpaceOnUse" x="5" y="24" width="30" height="16">
<path d="M5.33789 24.2793H34.9166V39.2449H5.33789V24.2793Z" fill="white"/>
</mask>
<g mask="url(#mask1_4454_46196)">
<path d="M30.36 28.4458C29.0095 27.1351 27.415 26.0824 25.6512 25.3628C23.9864 24.684 22.1731 24.3018 20.2725 24.2835C20.224 24.283 20.1765 24.2793 20.1275 24.2793C11.9597 24.2793 5.33789 30.9794 5.33789 39.245H23.314H34.9166C34.9166 34.9991 33.1662 31.1695 30.36 28.4458Z" fill="#03755F"/>
</g>
</svg>
