<svg width="64" height="64" viewBox="0 0 64 64" fill="none" xmlns="http://www.w3.org/2000/svg">
<path d="M52.352 19.6321C45.6 12.8481 34.672 12.8481 27.936 19.6321C21.2 26.4161 21.2 37.4241 27.936 44.2081C34.672 50.9921 45.616 50.9921 52.352 44.2081C59.104 37.4081 59.104 26.4161 52.352 19.6321Z" fill="#72BF00"/>
<path d="M22.864 31.904C22.864 26.08 25.744 20.928 30.16 17.808L25.424 13.072L6.592 31.904L25.424 50.736L30.16 46C25.744 42.88 22.864 37.728 22.864 31.904Z" fill="#BDCCD4"/>
<path d="M30.112 17.76C25.68 20.896 22.784 26.064 22.784 31.904C22.784 37.76 25.68 42.928 30.112 46.048L44.272 31.904L30.112 17.76Z" fill="#03755F"/>
</svg>
