<svg width="48" height="47" viewBox="0 0 48 47" fill="none" xmlns="http://www.w3.org/2000/svg">
<g clip-path="url(#clip0_4454_46218)">
<mask id="mask0_4454_46218" style="mask-type:alpha" maskUnits="userSpaceOnUse" x="0" y="0" width="48" height="47">
<path d="M0.480469 0H47.5205V46.9998H0.480469V0Z" fill="white"/>
</mask>
<g mask="url(#mask0_4454_46218)">
<path d="M47.5205 23.5C47.5205 36.4779 36.9894 47 24.0005 47C11.0096 47 0.480469 36.4779 0.480469 23.5C0.480469 10.5221 11.0096 0 24.0005 0C36.9894 0 47.5205 10.5221 47.5205 23.5Z" fill="#00765F"/>
</g>
<path d="M24.7353 25.403V31.1252C26.615 30.9372 28.1477 30.0932 28.1477 28.3111C28.1477 26.5897 26.7698 25.967 24.7353 25.403ZM22.8283 20.6188V15.3665C20.7918 15.5526 19.51 16.4906 19.51 17.93C19.51 19.4007 20.5723 20.0235 22.8283 20.6188ZM22.8283 34.7521C17.5382 34.4387 14.5649 31.8126 14.4395 27.4671H18.8534C19.1023 29.8445 20.3234 30.9372 22.8283 31.1252V24.9643C18.5692 23.995 15.0647 22.9316 15.0647 18.398C15.0647 14.2405 18.2889 12.0197 22.8283 11.8004V9.73633H24.7353V11.8317C29.0238 12.2077 31.7776 14.5832 32.0912 18.6487H27.8027C27.5832 16.8666 26.3955 15.7719 24.7353 15.4586V21.0555C29.0865 21.9935 32.6224 23.1822 32.6224 27.8098C32.6224 32.0633 29.3374 34.5347 24.7353 34.7521V37.6602H22.8283V34.7521Z" fill="#72BF00"/>
</g>
<defs>
<clipPath id="clip0_4454_46218">
<rect width="48" height="47" fill="white"/>
</clipPath>
</defs>
</svg>
