<svg width="24" height="26" viewBox="0 0 24 26" fill="none" xmlns="http://www.w3.org/2000/svg">
<path d="M5.43889 0.973633H1.12402V5.35316H5.43889V0.973633Z" fill="#72BF00"/>
<path d="M13.349 0.973633H9.03418V5.35316H13.349V0.973633Z" fill="#72BF00"/>
<path d="M21.2602 0.973633H16.9453V5.35316H21.2602V0.973633Z" fill="#72BF00"/>
<path d="M5.43889 9.00293H1.12402V13.3825H5.43889V9.00293Z" fill="#72BF00"/>
<path d="M5.43889 17.0322H1.12402V21.4118H5.43889V17.0322Z" fill="#72BF00"/>
<path d="M7.59668 23.6012H23.4179V7.54297H7.59668V23.6012ZM16.6111 10.3438H20.6584V14.4518H16.6111V10.3438ZM16.6111 16.7858H20.6584V20.8937H16.6111V16.7858ZM10.4482 10.2505H14.4955V14.3584H10.4482V10.2505ZM10.4482 16.7858H14.4955V20.8937H10.4482V16.7858Z" fill="#BDCCD4"/>
<path d="M14.0688 9.73242H9.75391V14.1119H14.0688V9.73242Z" fill="#03755F"/>
<path d="M20.5405 9.73242H16.2256V14.1119H20.5405V9.73242Z" fill="#03755F"/>
<path d="M14.0688 16.3018H9.75391V20.6813H14.0688V16.3018Z" fill="#03755F"/>
<path d="M20.5405 16.3018H16.2256V20.6813H20.5405V16.3018Z" fill="#03755F"/>
</svg>
