<svg aria-hidden="true" xmlns="http://www.w3.org/2000/svg" xmlns:xlink="http://www.w3.org/1999/xlink"><symbol viewBox="0 0 48 48" id="icon-car" xmlns="http://www.w3.org/2000/svg">
<path d="M28 5h-3c-7.85 0-14.29 6.020-14.95 13.7-4.78 2.51-8.050 7.521-8.050 13.3l0.010 0.050c-1.151 0.23-2.010 1.24-2.010 2.45 0 1.38 1.12 2.5 2.5 2.5h3.52c0.25 3.91 3.51 7 7.48 7s7.23-3.090 7.48-7h7.039c0.25 3.91 3.51 7 7.48 7 4.14 0 7.5-3.36 7.5-7.5 0-0.27-0.020-0.55-0.050-0.811 3.021-1.729 5.051-4.968 5.051-8.689v-6.8c0-1.22-0.98-2.2-2.2-2.2h-2.93c-0.98-7.34-7.261-13-14.87-13zM24 10.050v9.95h-9c0-5.189 3.95-9.45 9-9.95zM29 20v-9.95c5.050 0.5 9 4.761 9 9.95h-9zM16 36.5c0 1.38-1.12 2.5-2.5 2.5s-2.5-1.12-2.5-2.5 1.12-2.5 2.5-2.5 2.5 1.12 2.5 2.5zM38 36.5c0 1.38-1.12 2.5-2.5 2.5s-2.5-1.12-2.5-2.5 1.12-2.5 2.5-2.5 2.5 1.12 2.5 2.5z"/>
</symbol><symbol enable-background="new 0 0 512 512" viewBox="0 0 512 512" id="taxi" xmlns="http://www.w3.org/2000/svg">
  <path fill="currentColor" d="M63.6 437H16.4c-9 0-16.4-7.3-16.4-16.4V384c0-2.8 2.2-5 5-5h70c2.8 0 5 2.2 5 5v36.6C80 429.7 72.6 437 63.6 437zM10 389v31.6c0 3.5 2.9 6.4 6.4 6.4h47.2c3.5 0 6.4-2.9 6.4-6.4V389H10zM495.6 437h-47.2c-9 0-16.4-7.3-16.4-16.4V384c0-2.8 2.2-5 5-5h70c2.8 0 5 2.2 5 5v36.6C512 429.7 504.7 437 495.6 437zM442 389v31.6c0 3.5 2.9 6.4 6.4 6.4h47.2c3.5 0 6.4-2.9 6.4-6.4V389H442zM437 214H75c-1.6 0-3.1-.8-4.1-2.1-.9-1.3-1.2-3-.7-4.5l22.9-66.1c5.8-16.6 21.4-27.8 39-27.8h247.6c17.6 0 33.3 11.2 39 27.8l22.9 66.1c.5 1.5.3 3.2-.7 4.5C440.2 213.2 438.6 214 437 214zM82 204h348l-20.6-59.4c-4.4-12.6-16.3-21.1-29.6-21.1H132.2c-13.3 0-25.2 8.5-29.6 21.1L82 204z"/>
  <path fill="currentColor" d="M336.5 123.5h-161c-1.7 0-3.2-.8-4.2-2.2s-1.1-3.2-.4-4.7L187.4 78c.8-1.8 2.6-3 4.6-3h23v10h-19.7l-12.2 28.5h145.8L316.7 85H235V75h85c2 0 3.8 1.2 4.6 3l16.5 38.5c.7 1.5.5 3.3-.4 4.7C339.7 122.7 338.2 123.5 336.5 123.5zM507 389H5c-2.8 0-5-2.2-5-5v-92.3c0-20.1 9.5-39.3 25.5-51.4L72 205c.9-.7 1.9-1 3-1h362c1.1 0 2.2.4 3 1l46.4 35.3 0 0c16 12.1 25.5 31.4 25.5 51.4V384C512 386.8 509.8 389 507 389zM10 379h492v-87.3c0-17-8.1-33.2-21.6-43.5L435.3 214H76.7l-45.1 34.3C18.1 258.5 10 274.8 10 291.7V379z"/>
  <path fill="currentColor" d="M384 389H128c-2.8 0-5-2.2-5-5 0-15.9 12.9-28.8 28.8-28.8h208.3c15.9 0 28.8 12.9 28.8 28.8C389 386.8 386.8 389 384 389zM133.7 379h244.7c-2.2-8-9.5-13.8-18.2-13.8H151.8C143.2 365.2 135.9 371 133.7 379zM384 325H128c-2.8 0-5-2.2-5-5v-38.9c0-2.8 2.2-5 5-5h256c2.8 0 5 2.2 5 5V320C389 322.8 386.8 325 384 325zM133 315h246v-28.9H133V315z"/>
  <path fill="currentColor" d="M318 365.2H194c-2.8 0-5-2.2-5-5V320c0-2.8 2.2-5 5-5h124c2.8 0 5 2.2 5 5v40.2C323 362.9 320.8 365.2 318 365.2zM199 355.2h114V325H199V355.2zM75 214H46.8c-10.4 0-18.8-8.4-18.8-18.8s8.4-18.8 18.8-18.8H75c2.8 0 5 2.2 5 5V209C80 211.8 77.7 214 75 214zM46.8 186.3c-4.9 0-8.8 4-8.8 8.8s4 8.8 8.8 8.8H70v-17.7H46.8zM465.2 214H437c-2.8 0-5-2.2-5-5v-27.7c0-2.8 2.2-5 5-5h28.1c10.4 0 18.8 8.4 18.8 18.8S475.6 214 465.2 214zM442 204h23.1c4.9 0 8.8-4 8.8-8.8s-4-8.8-8.8-8.8H442V204z"/>
  <path fill="currentColor" d="M440.1,325H404v-10h36.1c17,0,31.1-12.6,33.5-28.9H38.4c2.4,16.3,16.5,28.9,33.5,28.9H384     v10H71.9C47.7,325,28,305.3,28,281.1c0-2.8,2.2-5,5-5h446c2.8,0,5,2.2,5,5C484,305.3,464.3,325,440.1,325z"/>
</symbol></svg>