<svg width="18" height="18" viewBox="0 0 18 18" fill="none" xmlns="http://www.w3.org/2000/svg">
<path d="M16.506 5.15922C15.7925 7.9417 14.3445 10.4813 12.3133 12.5125C10.2821 14.5437 7.74248 15.9917 4.96 16.7052C2.819 17.2502 1 15.4092 1 13.1992V12.1992C1 11.6472 1.449 11.2042 1.998 11.1492C2.9084 11.0587 3.80207 10.8437 4.654 10.5102L6.174 12.0302C8.64887 10.8438 10.6446 8.84809 11.831 6.37322L10.311 4.85322C10.6448 4.00133 10.8602 3.10766 10.951 2.19722C11.005 1.64722 11.448 1.19922 12 1.19922H13C15.21 1.19922 17.051 3.01822 16.506 5.15922Z" stroke="white" stroke-width="1.5" stroke-linecap="round" stroke-linejoin="round"/>
</svg>
