<svg width="880" height="145" viewBox="0 0 880 145" fill="none" xmlns="http://www.w3.org/2000/svg">
<rect y="16" width="104" height="128" rx="10" fill="#C7EBAB" fill-opacity="0.5"/>
<path d="M0 26C0 20.4772 4.47715 16 10 16H94C99.5228 16 104 20.4772 104 26V38C104 43.5228 99.5228 48 94 48H0V26Z" fill="#9CDA6B"/>
<path d="M0 64H62C67.5228 64 72 68.4772 72 74V86C72 91.5228 67.5228 96 62 96H0V64Z" fill="#9CDA6B"/>
<path d="M0 134C0 139.523 4.47715 144 10 144H94C99.5228 144 104 139.523 104 134V122C104 116.477 99.5228 112 94 112H0V134Z" fill="#9CDA6B"/>
<path d="M36 10C36 5.58172 39.5817 2 44 2H60C64.4183 2 68 5.58172 68 10V13C68 13.5523 67.5523 14 67 14H37C36.4477 14 36 13.5523 36 13V10Z" fill="#9CDA6B"/>
<path d="M171.737 144.308C164.896 144.308 158.55 142.782 152.698 139.731C146.929 136.563 141.902 132.103 137.616 126.353C133.413 120.602 130.116 113.855 127.726 106.109C125.336 98.2467 124.141 89.6212 124.141 80.233C124.141 70.8447 125.336 62.2779 127.726 54.5326C130.116 46.67 133.413 39.8635 137.616 34.1132C141.902 28.3629 146.929 23.9621 152.698 20.9109C158.55 17.7424 164.896 16.1581 171.737 16.1581C179.731 16.1581 186.86 18.1531 193.124 22.1431C199.47 26.1331 204.745 31.8834 208.948 39.394L193.371 59.4615C190.569 54.7673 187.478 51.188 184.099 48.7236C180.803 46.2592 177.094 45.027 172.973 45.027C169.429 45.027 166.173 45.8485 163.206 47.4914C160.239 49.1344 157.684 51.5401 155.542 54.7086C153.481 57.7598 151.833 61.4565 150.597 65.7985C149.443 70.1406 148.866 74.9521 148.866 80.233C148.866 85.5139 149.443 90.3253 150.597 94.6674C151.833 99.0095 153.481 102.765 155.542 105.933C157.684 108.985 160.239 111.332 163.206 112.975C166.173 114.617 169.429 115.439 172.973 115.439C177.094 115.439 180.803 114.207 184.099 111.742C187.478 109.278 190.569 105.699 193.371 101.004L208.948 121.072C204.745 128.465 199.47 134.215 193.124 138.323C186.86 142.313 179.731 144.308 171.737 144.308Z" fill="black"/>
<path d="M259.428 141.843V124.064L257.821 119.664V86.9221C257.821 81.6412 256.667 77.5925 254.359 74.776C252.134 71.8422 248.549 70.3753 243.604 70.3753C240.39 70.3753 237.134 71.1381 233.838 72.6637C230.541 74.0719 227.739 76.0669 225.431 78.6487L217.519 55.9409C221.31 52.4203 225.843 49.7211 231.118 47.8435C236.475 45.8485 241.791 44.851 247.065 44.851C257.945 44.851 266.351 48.4303 272.285 55.5888C278.302 62.63 281.31 73.7199 281.31 88.8584V141.843H259.428ZM239.648 143.428C234.291 143.428 229.758 142.137 226.049 139.555C222.34 136.973 219.497 133.453 217.519 128.993C215.623 124.534 214.675 119.546 214.675 114.031C214.675 108.163 215.706 103.117 217.766 98.8921C219.909 94.5501 223.164 91.2642 227.533 89.0345C231.901 86.6874 237.546 85.5139 244.469 85.5139H260.293V102.941H247.684C243.892 102.941 241.214 103.821 239.648 105.581C238.164 107.342 237.423 109.689 237.423 112.622C237.423 115.556 238.206 117.903 239.772 119.664C241.337 121.424 243.48 122.304 246.2 122.304C248.755 122.304 251.063 121.424 253.123 119.664C255.266 117.786 256.832 114.97 257.821 111.214L261.035 123.536C259.799 130.108 257.368 135.096 253.741 138.499C250.197 141.785 245.5 143.428 239.648 143.428Z" fill="black"/>
<path d="M338.293 143.428C332.276 143.428 327.249 141.667 323.21 138.147C319.254 134.626 316.287 129.228 314.309 121.952C312.331 114.676 311.342 105.347 311.342 93.9633C311.342 82.8147 312.373 73.6025 314.433 66.3266C316.576 59.0507 319.666 53.6525 323.705 50.1319C327.743 46.6113 332.606 44.851 338.293 44.851C344.392 44.851 349.914 46.846 354.859 50.836C359.886 54.826 363.842 60.5176 366.727 67.9109C369.694 75.1868 371.177 83.8709 371.177 93.9633C371.177 104.173 369.694 112.975 366.727 120.368C363.842 127.644 359.886 133.335 354.859 137.443C349.914 141.433 344.392 143.428 338.293 143.428ZM296.136 141.843V11.2293H319.625V62.454L318.389 93.9633L318.513 125.473V141.843H296.136ZM333.348 116.847C335.985 116.847 338.334 115.967 340.394 114.207C342.537 112.446 344.227 109.865 345.463 106.461C346.782 102.941 347.441 98.7748 347.441 93.9633C347.441 89.1518 346.782 85.1031 345.463 81.8172C344.227 78.414 342.537 75.8322 340.394 74.0719C338.334 72.3116 335.985 71.4315 333.348 71.4315C330.71 71.4315 328.32 72.3116 326.177 74.0719C324.117 75.8322 322.427 78.414 321.109 81.8172C319.873 85.1031 319.254 89.1518 319.254 93.9633C319.254 98.7748 319.873 102.941 321.109 106.461C322.427 109.865 324.117 112.446 326.177 114.207C328.32 115.967 330.71 116.847 333.348 116.847Z" fill="black"/>
<path d="M419.185 141.843V18.6225H460.105C469.665 18.6225 478.072 21.1456 485.325 26.1918C492.577 31.238 498.223 38.3379 502.262 47.4914C506.382 56.645 508.443 67.5588 508.443 80.233C508.443 92.7898 506.382 103.704 502.262 112.975C498.223 122.128 492.577 129.228 485.325 134.274C478.072 139.32 469.665 141.843 460.105 141.843H419.185ZM443.663 114.031H459.116C464.061 114.031 468.347 112.74 471.973 110.158C475.682 107.459 478.567 103.586 480.627 98.5401C482.687 93.3765 483.718 87.2742 483.718 80.233C483.718 73.0744 482.687 66.9721 480.627 61.9259C478.567 56.8797 475.682 53.0657 471.973 50.4839C468.347 47.7848 464.061 46.4352 459.116 46.4352H443.663V114.031Z" fill="black"/>
<path d="M520.208 141.843V46.4352H542.585V74.248L539.247 66.3266C541.225 59.1681 544.439 53.8285 548.89 50.3079C553.34 46.67 558.739 44.851 565.085 44.851V74.9521C564.013 74.7174 563.066 74.6 562.241 74.6C561.5 74.4827 560.675 74.424 559.769 74.424C554.989 74.424 551.115 76.3016 548.148 80.0569C545.181 83.6949 543.697 89.6799 543.697 98.012V141.843H520.208Z" fill="black"/>
<path d="M574.778 141.843V46.4352H598.267V141.843H574.778ZM586.522 35.8734C582.237 35.8734 578.775 34.1718 576.138 30.7686C573.5 27.3653 572.182 23.1406 572.182 18.0944C572.182 13.0482 573.5 8.82353 576.138 5.42029C578.775 2.01705 582.237 0.31543 586.522 0.31543C590.808 0.31543 594.27 1.95837 596.907 5.24426C599.544 8.4128 600.863 12.5202 600.863 17.5664C600.863 22.8472 599.544 27.248 596.907 30.7686C594.352 34.1718 590.89 35.8734 586.522 35.8734Z" fill="black"/>
<path d="M632.199 141.843L604.631 46.4352H628.738L650.743 126.177H638.628L661.746 46.4352H684.122L656.43 141.843H632.199Z" fill="black"/>
<path d="M723.493 143.428C715.581 143.428 708.658 141.315 702.724 137.091C696.872 132.749 692.298 126.881 689.002 119.488C685.787 111.977 684.18 103.469 684.18 93.9633C684.18 84.4577 685.746 76.0083 688.878 68.615C692.092 61.1044 696.502 55.2954 702.106 51.188C707.71 46.9633 714.015 44.851 721.021 44.851C727.614 44.851 733.631 46.7873 739.07 50.66C744.51 54.4153 748.836 59.9895 752.051 67.3828C755.265 74.7761 756.872 83.7536 756.872 94.3154C756.872 95.4889 756.831 96.8385 756.749 98.3641C756.666 99.8896 756.584 101.298 756.501 102.589H703.466V84.9858H744.015L735.114 89.9146C735.196 85.5725 734.62 81.8172 733.383 78.6487C732.229 75.4802 730.581 73.0158 728.438 71.2555C726.378 69.4952 723.946 68.615 721.144 68.615C718.342 68.615 715.87 69.4952 713.727 71.2555C711.666 73.0158 710.059 75.5388 708.905 78.8247C707.751 81.9933 707.175 85.7486 707.175 90.0906V95.1955C707.175 99.8896 707.834 103.938 709.153 107.342C710.554 110.745 712.532 113.385 715.087 115.263C717.642 117.023 720.691 117.903 724.235 117.903C727.532 117.903 730.334 117.258 732.641 115.967C735.032 114.559 737.381 112.446 739.688 109.63L752.051 127.937C748.836 132.983 744.88 136.856 740.183 139.555C735.485 142.137 729.922 143.428 723.493 143.428Z" fill="black"/>
<path d="M767.702 141.843V46.4352H790.078V74.248L786.74 66.3266C788.719 59.1681 791.933 53.8285 796.383 50.3079C800.834 46.67 806.232 44.851 812.578 44.851V74.9521C811.507 74.7174 810.559 74.6 809.735 74.6C808.993 74.4827 808.169 74.424 807.262 74.424C802.482 74.424 798.609 76.3016 795.642 80.0569C792.675 83.6949 791.191 89.6799 791.191 98.012V141.843H767.702Z" fill="black"/>
<path d="M846.867 143.428C841.18 143.428 835.617 142.489 830.178 140.611C824.82 138.734 820.494 136.386 817.197 133.57L824.244 110.686C827.375 113.385 831.043 115.556 835.246 117.199C839.45 118.725 843.57 119.488 847.609 119.488C851.565 119.488 854.285 118.901 855.768 117.727C857.334 116.554 858.117 114.97 858.117 112.975C858.117 111.097 857.375 109.747 855.892 108.926C854.491 107.987 852.595 107.283 850.205 106.813C847.897 106.344 845.342 105.816 842.54 105.229C839.738 104.642 836.895 103.88 834.01 102.941C831.208 101.885 828.612 100.359 826.222 98.3641C823.914 96.2517 822.06 93.4352 820.658 89.9146C819.257 86.394 818.557 81.9346 818.557 76.5363C818.557 70.434 819.793 65.0357 822.266 60.3416C824.82 55.5301 828.529 51.7748 833.392 49.0757C838.254 46.2592 844.189 44.851 851.194 44.851C855.892 44.851 860.631 45.5551 865.411 46.9633C870.274 48.2542 874.353 50.2492 877.65 52.9484L870.603 75.6562C867.307 72.9571 864.01 71.1381 860.713 70.1993C857.417 69.1431 854.285 68.615 851.318 68.615C847.362 68.615 844.559 69.2604 842.911 70.5513C841.345 71.8422 840.562 73.4265 840.562 75.3041C840.562 77.1818 841.263 78.6487 842.664 79.7049C844.065 80.6437 845.919 81.4065 848.227 81.9933C850.617 82.4627 853.213 82.9908 856.015 83.5775C858.818 84.0469 861.62 84.8097 864.422 85.8659C867.307 86.9221 869.903 88.5064 872.21 90.6187C874.601 92.6137 876.496 95.3715 877.897 98.8921C879.298 102.295 879.999 106.696 879.999 112.094C879.999 117.962 878.721 123.243 876.167 127.937C873.694 132.631 869.985 136.386 865.04 139.203C860.177 142.019 854.12 143.428 846.867 143.428Z" fill="black"/>
</svg>
