<svg width="25" height="14" viewBox="0 0 25 14" fill="none" xmlns="http://www.w3.org/2000/svg">
<path d="M12.2358 13.1619C5.60884 13.1619 0.23584 10.4039 0.23584 6.99889C0.23584 3.59589 5.60884 0.837891 12.2358 0.837891C18.8638 0.837891 24.2358 3.59589 24.2358 6.99889C24.2358 10.4039 18.8638 13.1619 12.2358 13.1619ZM7.83784 2.16989C3.93684 2.97789 1.20884 4.82989 1.20884 6.98389C1.20884 8.17689 2.04684 9.27789 3.45684 10.1599C3.57384 10.2319 3.65084 10.2459 3.70784 10.2429C3.80984 10.2369 3.86784 10.1729 3.90884 10.0969C3.94357 10.0324 3.97592 9.96672 4.00584 9.89989C4.46584 8.81589 6.08384 5.06689 8.20884 2.52389C8.24781 2.47844 8.28261 2.42957 8.31284 2.37789C8.35884 2.29389 8.34884 2.22689 8.31284 2.18589C8.25484 2.12089 8.08884 2.12089 7.83784 2.16989ZM9.97784 3.89989C8.80484 6.74889 11.0248 6.39589 11.6258 6.26289C12.6458 6.03689 13.6198 5.64989 14.3998 5.33789C16.6218 4.44889 17.8018 3.55789 18.1928 3.21489C18.23 3.18322 18.2661 3.1502 18.3008 3.11589C18.3558 3.05789 18.3978 2.99689 18.3978 2.91589C18.3978 2.82256 18.3188 2.74822 18.1608 2.69289L18.0968 2.66789C16.3988 2.12689 14.3728 1.81189 12.1948 1.81189C12.1778 1.81189 12.1358 1.80989 12.0778 1.81189C11.8178 1.81989 11.5278 1.87789 11.2908 2.00089C10.5128 2.40489 10.1748 3.42389 9.97784 3.89989ZM20.5628 3.90289C20.529 3.968 20.497 4.03402 20.4668 4.10089C20.0068 5.18289 18.3898 8.93089 16.2648 11.4739C16.2258 11.5197 16.191 11.5689 16.1608 11.6209C16.1108 11.7049 16.1218 11.7739 16.1608 11.8139C16.2178 11.8779 16.3838 11.8789 16.6348 11.8299C20.5348 11.0199 23.2628 9.16989 23.2628 7.01489C23.2628 5.82189 22.4268 4.72189 21.0158 3.83989C20.8998 3.76689 20.8218 3.75289 20.7658 3.75689C20.6628 3.76389 20.6058 3.82689 20.5628 3.90289ZM14.4938 10.0999C15.6668 7.25089 13.4458 7.60589 12.8468 7.73789C11.8248 7.96289 10.8508 8.35089 10.0718 8.66189C7.84884 9.54989 6.66984 10.4439 6.27684 10.7849C6.22951 10.8269 6.19417 10.8602 6.17084 10.8849C6.11384 10.9419 6.07384 11.0029 6.07384 11.0849C6.07384 11.1779 6.15384 11.2549 6.30984 11.3079C6.32184 11.3129 6.36084 11.3299 6.37584 11.3339C8.07184 11.8739 10.0978 12.1899 12.2758 12.1899H12.3938C12.6668 12.1838 12.9352 12.119 13.1808 11.9999C13.9588 11.5959 14.2978 10.5769 14.4938 10.0999Z" fill="white"/>
</svg>
