<svg width="24" height="24" viewBox="0 0 24 24" fill="none" xmlns="http://www.w3.org/2000/svg">
<path d="M22.8638 6.58368C21.8577 10.507 19.8159 14.088 16.952 16.952C14.088 19.8159 10.507 21.8577 6.58368 22.8638C3.56483 23.6322 1 21.0364 1 17.9202V16.5102C1 15.7319 1.6331 15.1073 2.4072 15.0297C3.69088 14.9021 4.95097 14.5989 6.15221 14.1287L8.29544 16.2719C11.7851 14.5991 14.5991 11.7851 16.2719 8.29544L14.1287 6.15221C14.5994 4.95104 14.9031 3.69094 15.0311 2.4072C15.1073 1.63169 15.7319 1 16.5102 1H17.9202C21.0364 1 23.6322 3.56483 22.8638 6.58368Z" stroke="#9CDA6B" stroke-width="1.5" stroke-linecap="round" stroke-linejoin="round"/>
</svg>
