<svg width="19" height="20" viewBox="0 0 19 20" fill="none" xmlns="http://www.w3.org/2000/svg">
<path d="M2.40994 3.23576V2.81076C2.56994 2.78943 2.72694 2.76943 2.88094 2.75076C3.05694 2.73009 3.23294 2.71109 3.40894 2.69376C3.52294 2.68176 3.55194 2.70976 3.55594 2.82876V2.97176C3.55594 3.07776 3.52894 3.10776 3.42294 3.12076C3.18094 3.15076 2.93894 3.17576 2.69694 3.20376L2.40994 3.23576ZM13.9199 3.00076V3.25976C13.9199 3.34576 13.8819 3.39076 13.7859 3.38376C13.4665 3.36242 13.1471 3.33909 12.8279 3.31376C12.7419 3.30676 12.6999 3.27076 12.6969 3.18976C12.6911 3.00314 12.6911 2.81638 12.6969 2.62976C12.6969 2.54376 12.7409 2.50976 12.8289 2.51676C13.1489 2.53943 13.4686 2.56476 13.7879 2.59276C13.8879 2.60176 13.9169 2.63876 13.9209 2.74276C13.9223 2.83143 13.9219 2.91743 13.9199 3.00076ZM17.2859 1.63476C17.2969 2.08076 17.3149 2.50776 17.3179 2.93476C17.3179 3.61676 17.3319 4.29876 17.3179 4.97976C17.2974 6.74751 17.0579 8.50591 16.6049 10.2148C15.9855 12.5019 14.7749 14.5857 13.0949 16.2568C11.9811 17.3676 10.688 18.2827 9.26994 18.9638C9.23126 18.9853 9.18771 18.9966 9.14344 18.9966C9.09916 18.9966 9.05562 18.9853 9.01694 18.9638C6.27316 17.6613 4.0391 15.4853 2.66494 12.7768C2.13351 11.7161 1.73612 10.5935 1.48194 9.43476C1.28858 8.56341 1.15097 7.68062 1.06994 6.79176C0.968419 5.60063 0.931698 4.40487 0.959938 3.20976C0.965938 2.73476 0.980939 2.25976 0.991939 1.78476C0.991939 1.73776 0.997939 1.69076 1.00094 1.63276C6.39138 0.725063 11.8957 0.725739 17.2859 1.63476ZM10.0319 16.4008C10.1319 16.2168 10.2319 16.0598 10.3129 15.9008C10.3935 15.7471 10.504 15.6111 10.6379 15.5008C11.4119 14.8628 12.1839 14.2218 12.9599 13.5878C13.0675 13.5074 13.1438 13.3922 13.1759 13.2618C13.3167 12.6885 13.4063 12.1039 13.4439 11.5148C13.4738 11.0354 13.4634 10.5544 13.4129 10.0768C13.4025 9.97178 13.3646 9.8714 13.3029 9.78576C12.8918 9.19834 12.4361 8.64337 11.9399 8.12576C11.8826 8.06256 11.8046 8.0218 11.7199 8.01076C11.7259 8.05576 11.7279 8.09276 11.7359 8.12876C11.8259 8.55176 11.9189 8.97276 12.0059 9.39576C12.0266 9.49418 12.0764 9.5841 12.1489 9.65376C12.3942 9.89091 12.6168 10.1504 12.8139 10.4288C12.9047 10.5541 12.9572 10.7032 12.9649 10.8578C13.0088 11.6005 12.9934 12.3455 12.9189 13.0858C12.9124 13.1543 12.8919 13.2208 12.8585 13.281C12.8251 13.3412 12.7796 13.3939 12.7249 13.4358C12.0249 14.0358 11.3249 14.6358 10.6329 15.2428C10.4477 15.3884 10.2948 15.5709 10.1839 15.7788C10.1839 15.7858 10.1679 15.7888 10.1579 15.7938C10.0138 15.4768 9.98203 15.1202 10.0679 14.7828C10.1869 14.3878 10.2889 13.9888 10.3979 13.5908L10.4379 13.4278L10.4089 13.4158C10.3869 13.4558 10.3666 13.4964 10.3479 13.5378C10.2099 13.8538 10.0699 14.1698 9.93794 14.4888C9.84294 14.7198 9.75994 14.9548 9.66994 15.1888C9.6464 15.2464 9.6348 15.3082 9.63583 15.3704C9.63686 15.4326 9.6505 15.494 9.67594 15.5508C9.77594 15.7838 9.86794 16.0208 9.96394 16.2568C9.98094 16.2938 10.0009 16.3308 10.0319 16.4008ZM7.88494 8.43676H7.83494C7.84094 8.54876 7.84394 8.66276 7.85494 8.77476C7.86894 8.92776 7.88894 9.07476 7.90594 9.23176C7.92136 9.34222 7.89613 9.45452 7.83494 9.54776C7.76294 9.66176 7.69894 9.77976 7.62494 9.89176C7.08197 10.7064 6.49162 11.4884 5.85694 12.2338C5.75922 12.3399 5.69671 12.4737 5.67794 12.6168C5.65061 12.8834 5.62127 13.1501 5.58994 13.4168C5.57671 13.5325 5.60429 13.6492 5.66794 13.7468C5.75994 13.8868 5.84794 14.0298 5.94794 14.1648C6.47885 14.882 7.05291 15.5663 7.66694 16.2138C7.85023 16.4249 8.07575 16.5952 8.32894 16.7138C8.41294 16.7488 8.49194 16.7958 8.57394 16.8348L8.65794 16.8618L8.67594 16.8348C8.62961 16.7829 8.578 16.7359 8.52194 16.6948C8.32229 16.5705 8.14287 16.4164 7.98994 16.2378C7.40287 15.5779 6.85429 14.8847 6.34694 14.1618C6.23994 14.0088 6.14694 13.8468 6.04694 13.6888C5.98952 13.5998 5.96379 13.4941 5.97394 13.3888C5.99394 13.1974 6.01527 13.0068 6.03794 12.8168C6.05471 12.7165 6.10643 12.6255 6.18394 12.5598C6.35727 12.3998 6.52661 12.2368 6.69194 12.0708C7.01033 11.8244 7.24698 11.4878 7.37094 11.1048C7.60894 10.5968 7.82594 10.0798 8.05294 9.56676C8.0984 9.48638 8.11465 9.39275 8.09894 9.30176C8.02827 9.00843 7.95694 8.71843 7.88494 8.43176V8.43676ZM8.85594 5.26376V5.30476C8.93094 5.30476 9.00594 5.31376 9.08094 5.31076C9.51694 5.29609 9.95294 5.27909 10.3889 5.25976C10.5427 5.24761 10.6969 5.27516 10.8369 5.33976C11.0536 5.44043 11.2723 5.53843 11.4929 5.63376C11.5803 5.67099 11.6726 5.69557 11.7669 5.70676C11.9479 5.72776 12.1319 5.72576 12.3119 5.74876C12.4212 5.75904 12.5276 5.78921 12.6259 5.83776C13.0109 6.05376 13.3889 6.27976 13.7679 6.50676C13.8542 6.56539 13.9581 6.59226 14.0619 6.58276C13.7829 6.31576 13.5239 6.06776 13.2619 5.82076C13.2439 5.80513 13.2241 5.7917 13.2029 5.78076C12.6014 5.43189 11.9855 5.10828 11.3569 4.81076C11.2207 4.751 11.0746 4.71709 10.9259 4.71076C10.6339 4.69976 10.3419 4.68276 10.0489 4.67276C9.22922 4.64526 8.40861 4.66362 7.59094 4.72776C7.52824 4.72736 7.46672 4.74483 7.41359 4.77812C7.36046 4.81142 7.31792 4.85916 7.29094 4.91576C7.20286 5.07623 7.08189 5.21628 6.93594 5.32676C6.66843 5.55991 6.38472 5.77378 6.08694 5.96676C6.05069 5.9844 6.01838 6.00917 5.99192 6.03958C5.96546 6.06999 5.9454 6.10542 5.93294 6.14376C6.07194 6.06676 6.19194 5.99776 6.31394 5.93276L7.84594 5.10676C7.97542 5.03329 8.1211 4.99309 8.26994 4.98976C8.50994 4.98976 8.74894 4.96076 8.98894 4.95676C9.58894 4.94876 10.1979 4.94676 10.8019 4.94376C10.9044 4.94245 11.0047 4.97399 11.0879 5.03376C10.3469 5.09076 9.59894 5.15276 8.85594 5.25876V5.26376ZM3.74794 8.39276C3.75032 8.54525 3.69454 8.69292 3.59194 8.80576C3.49194 8.90576 3.39794 9.01876 3.30494 9.12876C3.23894 9.20676 3.23394 9.24176 3.29394 9.31976C3.41127 9.47176 3.53327 9.62009 3.65994 9.76476C3.70132 9.7987 3.74706 9.82695 3.79594 9.84876C3.83494 9.67276 3.87194 9.51976 3.90394 9.36476C3.90916 9.31955 3.92964 9.27747 3.962 9.24547C3.99436 9.21347 4.03667 9.19347 4.08194 9.18876C4.36094 9.13776 4.63694 9.07776 4.91494 9.02376C5.08194 8.99076 5.24994 8.96176 5.43594 8.92876L5.33594 8.80376C5.23594 8.70376 5.12994 8.60376 5.03594 8.49276C4.98548 8.42862 4.92036 8.37752 4.84606 8.34376C4.77176 8.31001 4.69044 8.29457 4.60894 8.29876C4.50522 8.29546 4.40175 8.28678 4.29894 8.27276L4.28894 8.24476C4.32313 8.21605 4.35921 8.18965 4.39694 8.16576C4.42767 8.15253 4.45904 8.14085 4.49094 8.13076L5.93994 7.58076C6.08551 7.52433 6.20443 7.41505 6.27294 7.27476C6.26357 7.27396 6.25414 7.27505 6.24521 7.27797C6.23627 7.28089 6.22802 7.28558 6.22094 7.29176C6.05036 7.43525 5.84205 7.52656 5.62094 7.55476C5.54994 7.56876 5.48094 7.58876 5.41094 7.60576C5.32791 7.63026 5.23901 7.62567 5.15894 7.59276C5.11038 7.57457 5.05761 7.57076 5.00694 7.58176C4.90694 7.59876 4.80194 7.62876 4.69894 7.65176C4.67094 7.65776 4.64094 7.65876 4.58794 7.66476C4.65503 7.58421 4.74087 7.52136 4.83794 7.48176C4.93794 7.44776 5.03794 7.40376 5.13794 7.37076C5.17341 7.36453 5.20546 7.34575 5.22823 7.31784C5.251 7.28993 5.26296 7.25476 5.26194 7.21876C5.26694 7.12776 5.29194 7.03876 5.30194 6.94776C5.30411 6.91679 5.31347 6.88675 5.32926 6.86002C5.34506 6.83329 5.36686 6.81061 5.39294 6.79376C5.51294 6.70443 5.63094 6.61376 5.74694 6.52176C5.76961 6.5098 5.78907 6.49256 5.80369 6.4715C5.81831 6.45044 5.82765 6.42618 5.83094 6.40076C5.65294 6.50676 5.49594 6.60876 5.33094 6.70076C5.04407 6.84899 4.79972 7.06787 4.62094 7.33676C4.56523 7.41355 4.49773 7.48105 4.42094 7.53676C4.07494 7.80376 3.72094 8.06376 3.37994 8.33676C3.28204 8.41447 3.19165 8.50118 3.10994 8.59576C3.00994 8.70576 3.03594 8.83176 3.17194 8.92376L3.37794 8.77476C3.49019 8.70916 3.58195 8.61359 3.64294 8.49876C3.65794 8.45076 3.71094 8.42476 3.74794 8.39276ZM11.1959 6.70776C11.3676 6.74604 11.5459 6.74261 11.7159 6.69776C11.8419 6.65276 11.9779 6.63876 12.1069 6.59776C12.175 6.5745 12.2481 6.57003 12.3185 6.58481C12.3889 6.5996 12.454 6.63309 12.5069 6.68176C12.7936 6.91643 13.0826 7.14709 13.3739 7.37376C13.4654 7.44243 13.564 7.5011 13.6679 7.54876C13.8589 7.63876 14.0549 7.71776 14.2499 7.79976C14.2996 7.81839 14.3435 7.84986 14.377 7.89097C14.4106 7.93208 14.4326 7.98135 14.4409 8.03376C14.4479 8.07176 14.4609 8.10776 14.4669 8.14576C14.5239 8.54576 14.5779 8.94576 14.6379 9.34576C14.6767 9.58583 14.6349 9.832 14.5189 10.0458C14.3729 10.3268 14.2299 10.6088 14.0799 10.8878C14.0498 10.9531 14.0037 11.0098 13.9459 11.0528C13.8617 11.0977 13.7931 11.1672 13.7493 11.252C13.7056 11.3369 13.6887 11.4331 13.7009 11.5278C13.7018 11.6056 13.6981 11.6834 13.6899 11.7608C13.7342 11.7331 13.7725 11.6971 13.8029 11.6548C14.1948 11.1144 14.5353 10.5386 14.8199 9.93476C14.8452 9.88325 14.8615 9.82778 14.8679 9.77076C14.9367 9.05801 14.9095 8.33926 14.7869 7.63376C14.7803 7.58646 14.7638 7.54109 14.7385 7.5006C14.7131 7.46011 14.6796 7.42541 14.6399 7.39876C14.0215 6.95826 13.3657 6.57279 12.6799 6.24676C12.6166 6.21296 12.5463 6.19412 12.4746 6.19169C12.4028 6.18926 12.3314 6.20331 12.2659 6.23276C11.9449 6.37276 11.6219 6.50776 11.3009 6.64676C11.2647 6.66495 11.2297 6.68532 11.1959 6.70776ZM9.39594 16.9758C9.40997 16.8306 9.38404 16.6843 9.32094 16.5528C9.25685 16.4184 9.19879 16.2813 9.14694 16.1418C8.9776 15.7084 8.81094 15.2751 8.64694 14.8418C8.60886 14.7435 8.59348 14.6378 8.60194 14.5328C8.62894 14.2408 8.65994 13.9488 8.71494 13.6618C8.86094 12.8938 9.02094 12.1288 9.17394 11.3618C9.18601 11.1919 9.16181 11.0215 9.10294 10.8618C9.07521 10.8969 9.05357 10.9365 9.03894 10.9788C8.94994 11.2118 8.85794 11.4438 8.77294 11.6788C8.50334 12.4024 8.26742 13.1382 8.06594 13.8838C8.01134 14.078 8.02765 14.2854 8.11194 14.4688C8.48027 15.2975 8.89012 16.1072 9.33994 16.8948L9.39894 16.9758H9.39594ZM5.49494 6.93676L5.50594 6.97076C5.60594 6.97076 5.71294 6.97776 5.81594 6.97076C6.0511 6.97355 6.28585 6.95041 6.51594 6.90176C6.80894 6.81176 7.10194 6.72376 7.39294 6.62676C7.45609 6.607 7.51093 6.56692 7.54894 6.51276C7.70694 6.25576 7.85494 5.99276 8.00494 5.73076C8.01136 5.7124 8.01506 5.69319 8.01594 5.67376C7.81226 5.64439 7.60466 5.6587 7.40694 5.71576C7.07827 5.84776 6.75294 5.98776 6.43094 6.13576C6.35137 6.17817 6.28074 6.23556 6.22294 6.30476C6.12789 6.4062 6.04002 6.51413 5.95994 6.62776C5.88201 6.74385 5.76712 6.83019 5.63394 6.87276C5.58604 6.89051 5.53957 6.91191 5.49494 6.93676ZM5.52094 9.16576L5.51494 9.19576C5.55694 9.21376 5.59927 9.23076 5.64194 9.24676C5.8726 9.32943 6.10261 9.41276 6.33194 9.49676C6.37058 9.50623 6.40637 9.5249 6.43625 9.55117C6.46613 9.57745 6.48922 9.61055 6.50356 9.64767C6.5179 9.68478 6.52306 9.72482 6.51859 9.76436C6.51413 9.80389 6.50019 9.84177 6.47794 9.87476C6.32087 10.1718 6.13426 10.4522 5.92094 10.7118C5.87894 10.7637 5.82463 10.8042 5.76294 10.8298C5.55694 10.9058 5.34494 10.9688 5.13594 11.0408C5.10487 11.0527 5.07097 11.0553 5.03843 11.0482C5.0059 11.0411 4.97617 11.0246 4.95294 11.0008C4.88494 10.9394 4.81594 10.8798 4.74594 10.8218C4.72194 10.8018 4.69494 10.7868 4.65694 10.7598C4.62536 10.9299 4.63846 11.1052 4.69494 11.2688C4.75701 11.4245 4.80748 11.5846 4.84594 11.7478C4.88294 11.8818 4.90894 12.0188 4.94594 12.1538C4.97094 12.2478 4.99794 12.2708 5.08994 12.2538C5.2303 12.2237 5.36832 12.1836 5.50294 12.1338C5.57176 12.0949 5.63444 12.046 5.68894 11.9888C5.65581 11.9735 5.61864 11.9693 5.58294 11.9768C5.46994 12.0018 5.35894 12.0308 5.24594 12.0518C5.13294 12.0728 5.12794 12.0518 5.10794 11.9578C5.08069 11.8164 5.05536 11.6748 5.03194 11.5328C5.00794 11.3908 5.01694 11.3948 5.14894 11.3498L6.01994 11.0498C6.09509 11.0315 6.1603 10.9849 6.20194 10.9198C6.41527 10.5444 6.62761 10.1684 6.83894 9.79176C6.86068 9.75504 6.86782 9.7115 6.85894 9.66976C6.84433 9.60633 6.81325 9.54787 6.76883 9.50029C6.72441 9.4527 6.66822 9.41768 6.60594 9.39876C6.30594 9.32676 6.00594 9.24776 5.69794 9.17576C5.63935 9.16719 5.58012 9.16385 5.52094 9.16576ZM10.2949 8.57676C10.2869 8.52876 10.2839 8.50076 10.2779 8.47676L10.0999 7.63376C10.0821 7.58351 10.0775 7.52949 10.0866 7.47694C10.0957 7.42438 10.1182 7.37507 10.1519 7.33376C10.1997 7.27403 10.2425 7.21048 10.2799 7.14376C10.5139 6.76376 10.5109 6.87476 10.4059 6.38276C10.4036 6.3638 10.3985 6.34528 10.3909 6.32776C10.382 6.30548 10.3672 6.2861 10.3479 6.27176C10.2393 6.19147 10.1041 6.1557 9.96994 6.17176C9.57694 6.25576 9.18094 6.32876 8.78694 6.40876C8.70864 6.42182 8.63738 6.46187 8.58551 6.52196C8.53364 6.58205 8.50443 6.65839 8.50294 6.73776C8.58694 6.75376 8.67194 6.76376 8.75494 6.78576C8.87161 6.81431 8.99458 6.80159 9.10294 6.74976C9.34594 6.64976 9.59494 6.56176 9.83794 6.46076C9.87977 6.44322 9.92485 6.43478 9.97019 6.43598C10.0155 6.43719 10.0601 6.44802 10.1009 6.46776C10.1355 6.48492 10.1661 6.50902 10.1909 6.53856C10.2157 6.5681 10.2341 6.60245 10.245 6.63944C10.2558 6.67643 10.259 6.71527 10.2542 6.75352C10.2493 6.79178 10.2367 6.82863 10.2169 6.86176C10.1103 7.00976 10.0006 7.15509 9.88794 7.29776C9.86329 7.32406 9.84662 7.35683 9.83989 7.39224C9.83316 7.42766 9.83665 7.46425 9.84994 7.49776C9.94127 7.78509 10.0303 8.07343 10.1169 8.36276C10.1304 8.40871 10.1531 8.45141 10.1837 8.48822C10.2144 8.52503 10.2522 8.55516 10.2949 8.57676ZM5.73294 3.30076L4.44594 3.39076V3.08076L5.58694 2.99176V2.80076L4.44794 2.88276V2.60076L5.72994 2.50076C5.72994 2.46176 5.73794 2.43376 5.73794 2.40576C5.73661 2.3723 5.73361 2.33892 5.72894 2.30576L4.23994 2.41576V3.60076L5.73994 3.48676L5.73294 3.30076ZM9.73994 3.20076H8.71494C8.60894 3.20076 8.56994 3.15776 8.56794 3.04976V2.60376C8.56794 2.42776 8.59094 2.40376 8.76794 2.40376H9.87494V2.21076C9.84394 2.21076 9.82094 2.20276 9.79694 2.20276H8.76094C8.70821 2.20461 8.65571 2.21063 8.60394 2.22076C8.54027 2.22484 8.48058 2.25311 8.43707 2.29977C8.39357 2.34644 8.36955 2.40797 8.36994 2.47176C8.35927 2.69709 8.35927 2.92243 8.36994 3.14776C8.36986 3.20674 8.39244 3.26349 8.43301 3.3063C8.47358 3.3491 8.52904 3.37468 8.58794 3.37776C8.6493 3.38888 8.71157 3.39424 8.77394 3.39376H9.82394C9.86594 3.39376 9.90694 3.38776 9.95894 3.38376C9.96494 3.14676 9.96894 2.92076 9.95894 2.69176H9.13994V2.88276H9.73994V3.20076ZM10.6779 2.42076L11.9779 2.46776V2.27776C11.4779 2.25376 10.9779 2.22476 10.4699 2.22376V3.40476L11.9859 3.46276L11.9779 3.26876L10.6829 3.21576V2.91876H11.2639C11.4549 2.91876 11.6419 2.95276 11.8299 2.93576V2.74776L10.6799 2.70076L10.6779 2.42076ZM14.1229 3.02076V2.72076C14.1257 2.65277 14.1045 2.58596 14.063 2.53203C14.0215 2.47811 13.9624 2.44049 13.8959 2.42576C13.8506 2.41089 13.8036 2.40149 13.7559 2.39776C13.4646 2.37443 13.1733 2.35243 12.8819 2.33176C12.8294 2.32759 12.7765 2.32759 12.7239 2.33176C12.5719 2.34676 12.4929 2.41576 12.4869 2.56876C12.4789 2.78876 12.4789 3.00876 12.4869 3.22876C12.4851 3.29262 12.5075 3.35481 12.5496 3.40285C12.5917 3.45089 12.6504 3.48122 12.7139 3.48776C12.7801 3.50079 12.8468 3.51047 12.9139 3.51676C13.1239 3.53409 13.3343 3.55009 13.5449 3.56476C13.6593 3.57434 13.7742 3.57734 13.8889 3.57376C13.9205 3.57542 13.952 3.57033 13.9815 3.55882C14.0109 3.54732 14.0375 3.52966 14.0596 3.50704C14.0816 3.48441 14.0986 3.45734 14.1094 3.42763C14.1201 3.39792 14.1244 3.36626 14.1219 3.33476C14.1289 3.23276 14.1249 3.12776 14.1249 3.02176L14.1229 3.02076ZM2.39994 3.43576C2.67294 3.40376 2.92494 3.37676 3.17694 3.34576C3.29567 3.33338 3.41379 3.3157 3.53094 3.29276C3.58625 3.28452 3.63742 3.25866 3.67687 3.21903C3.71632 3.1794 3.74195 3.12811 3.74994 3.07276C3.76347 2.94946 3.76347 2.82506 3.74994 2.70176C3.74608 2.65057 3.7236 2.60256 3.68675 2.56681C3.6499 2.53107 3.60123 2.51006 3.54994 2.50776C3.49879 2.49873 3.44669 2.49638 3.39494 2.50076C3.16161 2.52343 2.92827 2.54809 2.69494 2.57476C2.53094 2.59476 2.36427 2.61609 2.19494 2.63876V3.82476L2.39494 3.80076L2.39994 3.43576ZM6.45594 2.27076L6.23994 2.28176V3.11076C6.23994 3.35476 6.32494 3.43576 6.57094 3.44476H6.59994C6.90694 3.43276 7.21394 3.42576 7.52094 3.40776C7.76894 3.39276 7.84694 3.30276 7.84894 3.05076V2.34476C7.8476 2.30876 7.84494 2.27009 7.84094 2.22876H7.64094C7.64094 2.28176 7.63394 2.32876 7.63294 2.37576V3.06676C7.63294 3.18476 7.60894 3.21176 7.49094 3.21776C7.18894 3.23376 6.88694 3.24609 6.58494 3.25476C6.47794 3.25476 6.45194 3.22676 6.44994 3.11576C6.44794 3.00476 6.44994 2.87576 6.44994 2.75576L6.45594 2.27076ZM16.0809 2.63376L14.5079 2.45876V2.65876L15.1919 2.73576V3.72176L15.4079 3.75076V2.75776L16.0809 2.82876V2.63376ZM6.18094 10.0898L6.14994 10.0578L5.19994 10.8418L5.21294 10.8688L5.72294 10.6888C5.7493 10.6773 5.7721 10.659 5.78894 10.6358C5.92227 10.4544 6.05361 10.2724 6.18294 10.0898H6.18094ZM4.32494 9.68976C4.24674 9.70006 4.17199 9.72836 4.10657 9.77243C4.04116 9.81651 3.98686 9.87515 3.94794 9.94376L4.22994 10.2698C4.24066 10.2369 4.24967 10.2035 4.25694 10.1698C4.28094 10.0178 4.30194 9.86676 4.32694 9.68876L4.32494 9.68976ZM5.58294 7.13076L5.56994 7.40076C5.85694 7.37076 5.90194 7.31976 5.82594 7.11976L5.58294 7.13076ZM0.305938 0.986761C2.91244 0.533105 5.54977 0.279034 8.19494 0.226761C11.4693 0.169057 14.7417 0.423204 17.9679 0.98576C17.9679 1.02176 17.9799 1.04976 17.9809 1.07776C18.0199 2.20076 18.0529 3.32276 18.0349 4.44676C18.021 5.60227 17.9355 6.75581 17.7789 7.90076C17.5831 9.38643 17.1917 10.8397 16.6149 12.2228C15.4756 14.8964 13.5554 17.1637 11.1059 18.7278C10.5099 19.1161 9.8862 19.4603 9.23994 19.7578C9.20897 19.7736 9.1747 19.7818 9.13994 19.7818C9.10517 19.7818 9.0709 19.7736 9.03994 19.7578C7.14404 18.9039 5.45427 17.6518 4.08555 16.0865C2.71683 14.5213 1.70126 12.6796 1.10794 10.6868C0.82718 9.75884 0.621845 8.80975 0.493939 7.84876C0.300403 6.40784 0.215496 4.95441 0.239938 3.50076C0.247938 2.70876 0.274939 1.91776 0.293939 1.12576L0.305938 0.986761ZM0.667939 1.35376V1.53176C0.658605 1.92043 0.647939 2.30909 0.635939 2.69776C0.590471 4.01267 0.619184 5.32909 0.721939 6.64076C0.793491 7.52562 0.92108 8.40505 1.10394 9.27376C1.37623 10.6161 1.83608 11.9135 2.46994 13.1278C3.91498 15.8593 6.21734 18.0404 9.02294 19.3358C9.06087 19.3546 9.10283 19.364 9.14518 19.3629C9.18753 19.3619 9.22899 19.3505 9.26594 19.3298C9.96648 19.0032 10.6388 18.6193 11.2759 18.1818C13.3665 16.7725 15.0343 14.8212 16.1009 12.5368C16.7593 11.0834 17.1994 9.54075 17.4069 7.95876C17.5648 6.86073 17.6463 5.75307 17.6509 4.64376C17.6509 3.74376 17.6359 2.84376 17.6249 1.93676C17.6249 1.74576 17.6099 1.55476 17.6019 1.35276C11.9997 0.374049 6.27018 0.375049 0.667939 1.35376Z" fill="white"/>
</svg>
