<svg width="21" height="20" viewBox="0 0 21 20" fill="none" xmlns="http://www.w3.org/2000/svg">
<path d="M10.2358 4.46833L12.2983 1.94667C12.2983 1.94667 15.8358 2.02167 19.3575 3.65833C18.4558 5.02167 16.665 5.69 16.665 5.69C16.5433 4.49083 15.7033 4.19833 13.0367 4.19833L10.2358 20L7.41834 4.195C4.76834 4.195 3.92834 4.49 3.80584 5.68833C3.80584 5.68833 2.01751 5.02583 1.11501 3.66333C4.63584 2.02583 8.17334 1.95 8.17334 1.95L10.2358 4.46833ZM10.2358 4.46833L10.2325 4.47H10.2358V4.46833ZM10.2358 1.21917C13.0817 1.19417 16.3408 1.65917 19.6758 3.11917C20.1217 2.3125 20.2358 1.95667 20.2358 1.95667C16.59 0.51 13.1758 0.0125 10.2358 0C7.29584 0.0125 3.88167 0.508333 0.23584 1.9575C0.23584 1.9575 0.39834 2.395 0.79584 3.12083C4.13084 1.6575 7.39001 1.19583 10.2358 1.21667V1.21917Z" fill="white"/>
</svg>
