<svg width="880" height="144" viewBox="0 0 880 144" fill="none" xmlns="http://www.w3.org/2000/svg">
<rect y="16" width="104" height="128" rx="10" fill="#C7EBAB" fill-opacity="0.5"/>
<path d="M0 26C0 20.4772 4.47715 16 10 16H94C99.5229 16 104 20.4772 104 26V38C104 43.5228 99.5229 48 94 48H0V26Z" fill="#9CDA6B"/>
<path d="M0 64H62C67.5229 64 72 68.4772 72 74V86C72 91.5228 67.5229 96 62 96H0V64Z" fill="#9CDA6B"/>
<path d="M0 134C0 139.523 4.47715 144 10 144H94C99.5229 144 104 139.523 104 134V122C104 116.477 99.5229 112 94 112H0V134Z" fill="#9CDA6B"/>
<path d="M36 10C36 5.58172 39.5817 2 44 2H60C64.4183 2 68 5.58172 68 10V13C68 13.5523 67.5523 14 67 14H37C36.4477 14 36 13.5523 36 13V10Z" fill="#9CDA6B"/>
<path d="M171.605 144C164.763 144 158.416 142.474 152.563 139.423C146.793 136.254 141.764 131.795 137.478 126.044C133.274 120.293 129.976 113.545 127.586 105.8C125.195 97.9364 124 89.3105 124 79.9218C124 70.533 125.195 61.9658 127.586 54.22C129.976 46.357 133.274 39.5501 137.478 33.7995C141.764 28.0489 146.793 23.6479 152.563 20.5966C158.416 17.4279 164.763 15.8435 171.605 15.8435C179.601 15.8435 186.731 17.8386 192.996 21.8289C199.344 25.8191 204.619 31.5697 208.823 39.0807L193.244 59.1491C190.441 54.4548 187.35 50.8753 183.97 48.4108C180.673 45.9462 176.963 44.7139 172.841 44.7139C169.297 44.7139 166.041 45.5354 163.073 47.1785C160.106 48.8215 157.55 51.2274 155.407 54.3961C153.346 57.4474 151.697 61.1443 150.461 65.4865C149.307 69.8288 148.73 74.6406 148.73 79.9218C148.73 85.2029 149.307 90.0147 150.461 94.357C151.697 98.6993 153.346 102.455 155.407 105.623C157.55 108.675 160.106 111.022 163.073 112.665C166.041 114.308 169.297 115.13 172.841 115.13C176.963 115.13 180.673 113.897 183.97 111.433C187.35 108.968 190.441 105.389 193.244 100.694L208.823 120.763C204.619 128.156 199.344 133.907 192.996 138.015C186.731 142.005 179.601 144 171.605 144Z" fill="white"/>
<path d="M259.313 141.535V123.756L257.705 119.355V86.6112C257.705 81.3301 256.551 77.2812 254.243 74.4645C252.018 71.5306 248.432 70.0636 243.486 70.0636C240.271 70.0636 237.015 70.8264 233.717 72.3521C230.42 73.7604 227.617 75.7555 225.309 78.3374L217.396 55.6284C221.188 52.1076 225.721 49.4083 230.997 47.5306C236.355 45.5354 241.672 44.5379 246.948 44.5379C257.829 44.5379 266.237 48.1174 272.172 55.2763C278.19 62.3178 281.199 73.4083 281.199 88.5477V141.535H259.313ZM239.529 143.12C234.171 143.12 229.637 141.829 225.928 139.247C222.218 136.665 219.374 133.144 217.396 128.685C215.5 124.225 214.552 119.237 214.552 113.721C214.552 107.853 215.582 102.807 217.643 98.5819C219.786 94.2396 223.042 90.9535 227.411 88.7237C231.78 86.3765 237.427 85.2029 244.351 85.2029H260.178V102.631H247.566C243.774 102.631 241.095 103.511 239.529 105.271C238.045 107.032 237.303 109.379 237.303 112.313C237.303 115.247 238.086 117.594 239.653 119.355C241.219 121.115 243.362 121.995 246.082 121.995C248.638 121.995 250.946 121.115 253.007 119.355C255.15 117.477 256.716 114.66 257.705 110.905L260.92 123.227C259.684 129.799 257.252 134.787 253.625 138.191C250.08 141.477 245.382 143.12 239.529 143.12Z" fill="white"/>
<path d="M338.192 143.12C332.175 143.12 327.146 141.359 323.107 137.839C319.15 134.318 316.183 128.919 314.204 121.643C312.226 114.367 311.237 105.037 311.237 93.6528C311.237 82.5037 312.267 73.291 314.328 66.0147C316.471 58.7384 319.562 53.3399 323.602 49.8191C327.641 46.2983 332.504 44.5379 338.192 44.5379C344.292 44.5379 349.815 46.533 354.761 50.5232C359.79 54.5134 363.747 60.2054 366.632 67.599C369.599 74.8753 371.083 83.5599 371.083 93.6528C371.083 103.863 369.599 112.665 366.632 120.059C363.747 127.335 359.79 133.027 354.761 137.134C349.815 141.125 344.292 143.12 338.192 143.12ZM296.028 141.535V10.9144H319.521V62.1418L318.285 93.6528L318.408 125.164V141.535H296.028ZM333.246 116.538C335.884 116.538 338.234 115.658 340.294 113.897C342.438 112.137 344.127 109.555 345.364 106.152C346.683 102.631 347.342 98.4645 347.342 93.6528C347.342 88.8411 346.683 84.7922 345.364 81.5061C344.127 78.1027 342.438 75.5208 340.294 73.7604C338.234 72 335.884 71.1198 333.246 71.1198C330.609 71.1198 328.218 72 326.075 73.7604C324.014 75.5208 322.324 78.1027 321.005 81.5061C319.769 84.7922 319.15 88.8411 319.15 93.6528C319.15 98.4645 319.769 102.631 321.005 106.152C322.324 109.555 324.014 112.137 326.075 113.897C328.218 115.658 330.609 116.538 333.246 116.538Z" fill="white"/>
<path d="M419.099 141.535V18.3081H460.027C469.59 18.3081 477.998 20.8313 485.252 25.8778C492.506 30.9242 498.153 38.0244 502.192 47.1785C506.313 56.3325 508.374 67.2469 508.374 79.9218C508.374 92.4792 506.313 103.394 502.192 112.665C498.153 121.819 492.506 128.919 485.252 133.966C477.998 139.012 469.59 141.535 460.027 141.535H419.099ZM443.582 113.721H459.038C463.984 113.721 468.271 112.43 471.898 109.848C475.607 107.149 478.492 103.276 480.553 98.2298C482.614 93.066 483.644 86.9633 483.644 79.9218C483.644 72.7628 482.614 66.6601 480.553 61.6137C478.492 56.5672 475.607 52.7531 471.898 50.1711C468.271 47.4719 463.984 46.1222 459.038 46.1222H443.582V113.721Z" fill="white"/>
<path d="M520.142 141.535V46.1222H542.523V73.9364L539.184 66.0147C541.163 58.8557 544.377 53.5159 548.829 49.9951C553.28 46.357 558.68 44.5379 565.027 44.5379V74.6406C563.955 74.4059 563.007 74.2885 562.183 74.2885C561.441 74.1712 560.617 74.1125 559.71 74.1125C554.929 74.1125 551.054 75.9902 548.087 79.7457C545.119 83.3839 543.635 89.3692 543.635 97.7017V141.535H520.142Z" fill="white"/>
<path d="M574.722 141.535V46.1222H598.215V141.535H574.722ZM586.468 35.5599C582.182 35.5599 578.72 33.8582 576.082 30.4548C573.444 27.0513 572.125 22.8264 572.125 17.78C572.125 12.7335 573.444 8.50855 576.082 5.10513C578.72 1.70171 582.182 0 586.468 0C590.755 0 594.217 1.64303 596.855 4.92909C599.493 8.0978 600.812 12.2054 600.812 17.2518C600.812 22.533 599.493 26.934 596.855 30.4548C594.299 33.8582 590.837 35.5599 586.468 35.5599Z" fill="white"/>
<path d="M632.154 141.535L604.58 46.1222H628.692L650.701 125.868H638.584L661.706 46.1222H684.086L656.389 141.535H632.154Z" fill="white"/>
<path d="M723.465 143.12C715.551 143.12 708.627 141.007 702.692 136.782C696.839 132.44 692.264 126.572 688.967 119.178C685.752 111.667 684.144 103.159 684.144 93.6528C684.144 84.1467 685.711 75.6968 688.843 68.3032C692.058 60.7922 696.468 54.9829 702.074 50.8753C707.679 46.6504 713.985 44.5379 720.992 44.5379C727.587 44.5379 733.604 46.4743 739.045 50.3472C744.485 54.1027 748.813 59.6773 752.028 67.0709C755.243 74.4645 756.85 83.4425 756.85 94.0049C756.85 95.1785 756.809 96.5281 756.727 98.0538C756.644 99.5795 756.562 100.988 756.479 102.279H703.434V84.6748H743.991L735.088 89.6039C735.17 85.2616 734.593 81.5061 733.357 78.3374C732.203 75.1687 730.554 72.7042 728.411 70.9438C726.35 69.1834 723.918 68.3032 721.116 68.3032C718.313 68.3032 715.84 69.1834 713.697 70.9438C711.636 72.7042 710.028 75.2274 708.874 78.5134C707.72 81.6821 707.143 85.4377 707.143 89.78V94.8851C707.143 99.5795 707.803 103.628 709.122 107.032C710.523 110.435 712.501 113.076 715.057 114.954C717.612 116.714 720.662 117.594 724.207 117.594C727.504 117.594 730.307 116.949 732.615 115.658C735.005 114.249 737.355 112.137 739.663 109.32L752.028 127.628C748.813 132.675 744.856 136.548 740.158 139.247C735.459 141.829 729.895 143.12 723.465 143.12Z" fill="white"/>
<path d="M767.682 141.535V46.1222H790.063V73.9364L786.724 66.0147C788.702 58.8557 791.917 53.5159 796.369 49.9951C800.82 46.357 806.219 44.5379 812.567 44.5379V74.6406C811.495 74.4059 810.547 74.2885 809.723 74.2885C808.981 74.1712 808.157 74.1125 807.25 74.1125C802.469 74.1125 798.594 75.9902 795.627 79.7457C792.659 83.3839 791.175 89.3692 791.175 97.7017V141.535H767.682Z" fill="white"/>
<path d="M846.862 143.12C841.174 143.12 835.61 142.181 830.169 140.303C824.811 138.425 820.483 136.078 817.186 133.262L824.234 110.377C827.367 113.076 831.035 115.247 835.239 116.89C839.443 118.416 843.565 119.178 847.604 119.178C851.561 119.178 854.281 118.592 855.765 117.418C857.331 116.244 858.114 114.66 858.114 112.665C858.114 110.787 857.372 109.438 855.888 108.616C854.487 107.677 852.591 106.973 850.201 106.504C847.892 106.034 845.337 105.506 842.534 104.919C839.732 104.333 836.888 103.57 834.002 102.631C831.2 101.575 828.603 100.049 826.213 98.0538C823.904 95.9413 822.05 93.1247 820.648 89.6039C819.247 86.0831 818.546 81.6235 818.546 76.2249C818.546 70.1223 819.783 64.7237 822.256 60.0293C824.811 55.2176 828.521 51.4621 833.384 48.7628C838.248 45.9462 844.183 44.5379 851.19 44.5379C855.888 44.5379 860.628 45.2421 865.409 46.6504C870.273 47.9413 874.353 49.9364 877.651 52.6357L870.603 75.3447C867.305 72.6455 864.008 70.8264 860.711 69.8875C857.413 68.8313 854.281 68.3032 851.313 68.3032C847.357 68.3032 844.554 68.9486 842.905 70.2396C841.339 71.5306 840.556 73.1149 840.556 74.9927C840.556 76.8704 841.257 78.3374 842.658 79.3936C844.059 80.3325 845.914 81.0954 848.222 81.6822C850.613 82.1516 853.209 82.6797 856.012 83.2665C858.815 83.7359 861.617 84.4988 864.42 85.555C867.305 86.6112 869.902 88.1956 872.21 90.3081C874.601 92.3032 876.497 95.0611 877.898 98.5819C879.299 101.985 880 106.386 880 111.785C880 117.653 878.722 122.934 876.167 127.628C873.694 132.323 869.984 136.078 865.038 138.895C860.175 141.711 854.116 143.12 846.862 143.12Z" fill="white"/>
</svg>
