<svg aria-hidden="true" xmlns="http://www.w3.org/2000/svg" xmlns:xlink="http://www.w3.org/1999/xlink"><symbol xml:space="preserve" id="android" viewBox="0 0 24 24" xmlns="http://www.w3.org/2000/svg">
  <path d="M18 7.647H6a.5.5 0 0 0-.5.5v8.154c0 1.371.825 2.55 2 3.063v2.82c0 .797.631 1.375 1.5 1.375s1.5-.578 1.5-1.375v-2.539h3v2.541c0 .797.631 1.375 1.5 1.375s1.5-.578 1.5-1.375v-2.834a3.34 3.34 0 0 0 2-3.051V8.149a.502.502 0 0 0-.5-.502zM6.014 6.479a.503.503 0 0 0 .374.168h11.185a.501.501 0 0 0 .497-.561c-.204-1.688-.914-2.988-2.03-3.859l.756-.985a.501.501 0 0 0-.793-.61l-.813 1.057c-.896-.452-1.967-.699-3.21-.699-1.321 0-2.459.271-3.385.781L7.72.632a.5.5 0 0 0-.793.61l.84 1.093c-1.032.869-1.681 2.14-1.874 3.751a.49.49 0 0 0 .121.393zM21 7.647c-.827 0-1.5.673-1.5 1.5v4.999a1.501 1.501 0 0 0 3 0V9.147c0-.827-.673-1.5-1.5-1.5zM3 7.647c-.827 0-1.5.673-1.5 1.5v4.999a1.501 1.501 0 0 0 3 0V9.147c0-.827-.673-1.5-1.5-1.5z"/>
</symbol><symbol viewBox="0 0 128 128" id="apple" xmlns="http://www.w3.org/2000/svg">
  <path d="M97.905 67.885c.174 18.8 16.494 25.057 16.674 25.137-.138.44-2.607 8.916-8.597 17.669-5.178 7.568-10.553 15.108-19.018 15.266-8.318.152-10.993-4.934-20.504-4.934-9.508 0-12.479 4.776-20.354 5.086-8.172.31-14.395-8.185-19.616-15.724-10.668-15.424-18.821-43.585-7.874-62.594 5.438-9.44 15.158-15.417 25.707-15.571 8.024-.153 15.598 5.398 20.503 5.398 4.902 0 14.106-6.676 23.782-5.696 4.051.169 15.421 1.636 22.722 12.324-.587.365-13.566 7.921-13.425 23.639m-15.633-46.166c4.338-5.251 7.258-12.563 6.462-19.836-6.254.251-13.816 4.167-18.301 9.416-4.02 4.647-7.54 12.087-6.591 19.216 6.971.54 14.091-3.542 18.43-8.796"/>
</symbol><symbol fill="none" viewBox="0 0 24 24" id="apple-store" xmlns="http://www.w3.org/2000/svg">
  <path stroke="currentColor" stroke-linecap="round" stroke-linejoin="round" stroke-width="2" d="M14 3L7 15M7 15H3M7 15H13M4 20L5 18.3333M16.7647 15L20 20M16.7647 15H21M16.7647 15L13.5294 10M9 3L11.5882 7"/>
</symbol><symbol xml:space="preserve" viewBox="0 0 24 24" id="google-play" xmlns="http://www.w3.org/2000/svg">
  <path d="M12.786 12.316a.5.5 0 0 0-.152-.355L2.705 2.352a.5.5 0 0 0-.822.201 1.926 1.926 0 0 0-.106.614v18.151c0 .376.106.729.314 1.049a.502.502 0 0 0 .773.082l9.775-9.775a.505.505 0 0 0 .147-.358zM13.352 11.265a.498.498 0 0 0 .702-.005l2.525-2.525a.502.502 0 0 0-.113-.792L4.624 1.458a.502.502 0 0 0-.632.158.502.502 0 0 0 .061.649l9.299 9zM21.217 10.544l-2.924-1.602a.503.503 0 0 0-.594.085l-2.915 2.915a.5.5 0 0 0 .006.712l2.906 2.813a.503.503 0 0 0 .588.079l2.933-1.606c.63-.345 1.006-.98 1.006-1.698s-.376-1.353-1.006-1.698zM14.071 13.351a.5.5 0 0 0-.701.006l-8.32 8.32a.498.498 0 0 0 .594.791l10.804-5.916a.499.499 0 0 0 .107-.798l-2.484-2.403z"/>
</symbol><symbol fill="none" viewBox="0 0 96 96" id="icon-command" xmlns="http://www.w3.org/2000/svg">
  <path stroke="currentColor" stroke-width="5" d="M10 22C10 14.8203 15.8203 9 23 9V9C30.1797 9 36 14.8203 36 22V35H23C15.8203 35 10 29.1797 10 22V22zM86 22C86 14.8203 80.1797 9 73 9V9C65.8203 9 60 14.8203 60 22V35H73C80.1797 35 86 29.1797 86 22V22zM23 86C15.8203 86 10 80.1797 10 73V73C10 65.8203 15.8203 60 23 60L36 60 36 73C36 80.1797 30.1797 86 23 86V86zM73 86C80.1797 86 86 80.1797 86 73V73C86 65.8203 80.1797 60 73 60L60 60 60 73C60 80.1797 65.8203 86 73 86V86zM36 35V60.5M60.75 35L35.25 35M60 35V60.5M60.75 60L35.25 60"/>
</symbol><symbol viewBox="0 0 32 32" id="icon-gmail" xmlns="http://www.w3.org/2000/svg">
<path d="M16 0c-8.837 0-16 7.163-16 16s7.163 16 16 16 16-7.163 16-16l-0.539-4.154c-1.892-6.878-8.090-11.846-15.449-11.846-0.004 0-0.009 0-0.013 0h0.001zM16.078 7.385c1.029-0.012 2.023 0.299 2.999 0.654l-0.5 1.116c-0.784-0.277-1.588-0.539-2.423-0.539-4.065 0-7.385 3.318-7.385 7.385s3.318 7.385 7.385 7.385c3.813 0 7.346-2.926 7.346-6.769v-0.615h-4.885v-1.231h5.808c0.265 2.578-0.087 4.61-1.039 6.116-1.024 1.618-2.663 2.759-4.923 3.423-4.555 1.339-9.342-1.415-10.615-6-0.199-0.691-0.314-1.484-0.314-2.305 0-3.941 2.643-7.265 6.253-8.296l0.061-0.015c0.667-0.188 1.435-0.3 2.227-0.308l0.005-0z"/>
</symbol><symbol viewBox="0 0 32 32" id="icon-telegram" xmlns="http://www.w3.org/2000/svg">
<path d="M16 32c8.839 0 16-7.161 16-16s-7.161-16-16-16-16 7.161-16 16 7.161 16 16 16zM7.321 15.653l15.427-5.948c0.716-0.259 1.341 0.175 1.109 1.257l0.001-0.001-2.627 12.375c-0.195 0.877-0.716 1.091-1.445 0.677l-4-2.948-1.929 1.859c-0.213 0.213-0.393 0.393-0.807 0.393l0.284-4.071 7.413-6.697c0.323-0.284-0.072-0.444-0.497-0.161l-9.161 5.768-3.949-1.232c-0.857-0.272-0.876-0.857 0.181-1.271z"/>
</symbol><symbol id="icon-update" viewBox="0 0 48 48" xmlns="http://www.w3.org/2000/svg">
  <path d="M24 12v6l8-8-8-8v6C15.16 8 8 15.16 8 24c0 3.14.92 6.05 2.48 8.52l2.92-2.92c-.89-1.67-1.4-3.57-1.4-5.6 0-6.63 5.37-12 12-12zm13.52 3.48L34.6 18.4c.89 1.67 1.4 3.57 1.4 5.6 0 6.63-5.37 12-12 12v-6l-8 8 8 8v-6c8.84 0 16-7.16 16-16 0-3.14-.92-6.05-2.48-8.52z"/>
  <path fill="none" d="M0 0h48v48H0z"/>
</symbol><symbol xml:space="preserve" id="icon-version" viewBox="0 0 92 92" xmlns="http://www.w3.org/2000/svg">
  <path d="M77.1 11.6C77.1 5.8 72.3 1 66.4 1c-5.9 0-10.7 4.8-10.7 10.6 0 4.4 2.7 8.2 6.6 9.8-.1 1.8-1.2 13-16.9 18.7-7.1 2.6-12.4 6.1-15.4 9.7V21.4c4-1.6 6.4-5.4 6.4-9.8C36.4 5.8 31.5 1 25.7 1c-5.9 0-10.5 4.8-10.5 10.6 0 4.4 2.8 8.2 6.8 9.8v49.2c-4 1.6-6.9 5.4-6.9 9.8 0 5.8 4.7 10.6 10.5 10.6 5.9 0 10.8-4.8 10.8-10.6 0-4.4-2.5-8.2-6.5-9.8v-3.2c0-1.1.5-13.3 18.3-19.8 21.2-7.7 22.2-24.2 22.2-26.2 4-1.6 6.7-5.4 6.7-9.8zM25.6 7c2.6 0 4.6 2.1 4.6 4.6s-2.1 4.6-4.6 4.6c-2.6 0-4.6-2.1-4.6-4.6S23 7 25.6 7zm0 78C23 85 21 82.9 21 80.4s2.1-4.6 4.6-4.6c2.6 0 4.6 2.1 4.6 4.6S28.1 85 25.6 85zm40.8-68.8c-2.6 0-4.6-2.1-4.6-4.6S63.9 7 66.4 7C69 7 71 9.1 71 11.6s-2 4.6-4.6 4.6z"/>
</symbol><symbol xml:space="preserve" id="icon-version-control" viewBox="0 0 100 100" xmlns="http://www.w3.org/2000/svg">
  <path d="M68,38v16c0,1.29-0.62,2.5-1.67,3.25L54,66.06V72c0,2.21-1.79,4-4,4s-4-1.79-4-4V60.06l-12.33-8.8  C32.62,50.5,32,49.29,32,48V38c0-2.21,1.79-4,4-4s4,1.79,4,4v7.94l6,4.29V32c0-2.21,1.79-4,4-4s4,1.79,4,4v24.23l6-4.29V38  c0-2.21,1.79-4,4-4S68,35.79,68,38z M93,45.96v8.08c0,2.56-1.82,4.79-4.34,5.29l-5.23,1.04c-0.63,2.04-1.46,4.04-2.46,5.94  l2.96,4.44c1.42,2.13,1.14,4.99-0.67,6.8l-5.72,5.72c-1.81,1.81-4.67,2.09-6.8,0.67l-4.44-2.96c-1.9,1-3.89,1.83-5.94,2.46  l-1.04,5.23C58.83,91.18,56.6,93,54.04,93h-8.08c-2.56,0-4.79-1.82-5.29-4.34l-1.04-5.23c-2.05-0.63-4.04-1.46-5.93-2.45l-4.45,2.96  c-2.13,1.42-4.99,1.14-6.8-0.68l-5.72-5.72c-1.81-1.81-2.09-4.67-0.67-6.8l2.96-4.44c-1-1.9-1.83-3.89-2.46-5.94l-5.23-1.04  C8.82,58.83,7,56.6,7,54.04v-8.08c0-2.56,1.82-4.78,4.33-5.29l5.23-1.05c0.63-2.05,1.46-4.04,2.45-5.93l-2.96-4.44  c-1.42-2.13-1.14-4.99,0.67-6.8l5.72-5.72c1.81-1.81,4.67-2.1,6.8-0.67l4.45,2.96c1.88-0.99,3.87-1.82,5.93-2.45l1.05-5.23  C41.17,8.82,43.4,7,45.96,7h8.08c2.56,0,4.79,1.82,5.29,4.34l1.04,5.23c2.04,0.63,4.04,1.45,5.94,2.46l4.44-2.96  c2.13-1.42,4.99-1.14,6.8,0.67l5.72,5.72c1.81,1.81,2.09,4.67,0.68,6.8l-2.96,4.44c1,1.89,1.82,3.88,2.45,5.93l5.23,1.05  C91.18,41.18,93,43.4,93,45.96z M87,46.46l-5.1-1.02c-1.97-0.39-3.54-1.81-4.1-3.71c-0.57-1.93-1.34-3.79-2.29-5.53  c-0.95-1.73-0.84-3.85,0.27-5.52l2.89-4.34l-5.01-5.01l-4.33,2.89c-1.67,1.11-3.79,1.22-5.53,0.27c-1.76-0.96-3.62-1.73-5.53-2.29  c-1.9-0.56-3.32-2.13-3.72-4.1L53.54,13h-7.08l-1.02,5.1c-0.39,1.97-1.82,3.54-3.71,4.1c-1.93,0.57-3.79,1.34-5.53,2.29  c-1.74,0.95-3.85,0.84-5.52-0.27l-4.33-2.89l-5.01,5.01l2.89,4.33c1.11,1.67,1.22,3.79,0.27,5.53c-0.95,1.74-1.72,3.6-2.29,5.53  c-0.56,1.9-2.13,3.32-4.1,3.71L13,46.46v7.08l5.1,1.02c1.97,0.39,3.54,1.82,4.1,3.72c0.56,1.91,1.33,3.77,2.29,5.53  c0.95,1.74,0.84,3.86-0.27,5.53l-2.89,4.33l5.01,5.01l4.33-2.89c1.67-1.11,3.79-1.22,5.53-0.27c1.74,0.95,3.6,1.72,5.53,2.29  c1.89,0.56,3.32,2.13,3.71,4.1l1.02,5.1h7.08l1.02-5.1c0.39-1.97,1.82-3.54,3.72-4.1c1.91-0.56,3.77-1.33,5.53-2.29  c1.74-0.94,3.86-0.84,5.53,0.27l4.33,2.89l5.01-5.01l-2.89-4.33c-1.11-1.67-1.22-3.79-0.27-5.53c0.96-1.76,1.73-3.62,2.29-5.53  c0.56-1.9,2.13-3.32,4.1-3.72l5.1-1.02V46.46z"/>
</symbol><symbol viewBox="0 0 32 32" id="icon-whatsapp" xmlns="http://www.w3.org/2000/svg">
<path d="M27.217 4.65c-2.995-2.997-6.977-4.649-11.22-4.65-8.743 0-15.858 7.113-15.862 15.856-0.001 2.795 0.729 5.523 2.117 7.927l-2.25 8.217 8.409-2.205c2.317 1.263 4.925 1.929 7.58 1.93h0.007c8.742 0 15.858-7.114 15.862-15.857 0.002-4.237-1.647-8.221-4.641-11.218zM15.996 29.047h-0.005c-2.366-0.001-4.686-0.636-6.71-1.837l-0.481-0.286-4.99 1.308 1.332-4.863-0.314-0.499c-1.32-2.098-2.017-4.524-2.016-7.014 0.003-7.267 5.917-13.179 13.189-13.179 3.521 0.001 6.831 1.374 9.321 3.865s3.859 5.802 3.858 9.324c-0.003 7.267-5.917 13.18-13.184 13.18zM23.228 19.176c-0.396-0.198-2.345-1.157-2.708-1.289s-0.627-0.198-0.892 0.198c-0.264 0.397-1.024 1.289-1.255 1.553s-0.462 0.298-0.859 0.099c-0.396-0.198-1.673-0.617-3.187-1.966-1.178-1.050-1.974-2.348-2.205-2.745s-0.025-0.611 0.174-0.809c0.178-0.178 0.396-0.463 0.595-0.694s0.264-0.397 0.396-0.661c0.132-0.264 0.066-0.496-0.033-0.694s-0.892-2.148-1.222-2.942c-0.322-0.773-0.648-0.668-0.892-0.68-0.231-0.011-0.495-0.014-0.76-0.014s-0.694 0.099-1.057 0.496c-0.363 0.397-1.387 1.355-1.387 3.305s1.42 3.834 1.618 4.099c0.198 0.264 2.795 4.266 6.77 5.983 0.946 0.408 1.684 0.652 2.259 0.835 0.949 0.301 1.813 0.259 2.496 0.157 0.761-0.114 2.345-0.959 2.675-1.884s0.33-1.719 0.231-1.884c-0.099-0.165-0.363-0.264-0.76-0.463z"/>
</symbol></svg>