<!-- Generated by IcoMoon.io -->
<svg version="1.1" xmlns="http://www.w3.org/2000/svg" width="3206" height="1024" viewBox="0 0 3206 1024">
<g id="icomoon-ignore">
</g>
<path d="M1191.522 0c-463.453 0.003-923.559 201.434-1004.16 235.008-64.476 26.856-100.755 31.362-110.83 30.243-22.389-4.474-61.762-7.401-40.289 16.758 11.898 13.381 18.175 28.069 21.219 40.415 3.712 15.059-2.31 30.076-10.117 43.479-5.625 9.657-9.138 16.744-11.178 21.855-3.303 8.277 4.41 14.181 12.201 18.51 11.167 6.207 18.227 17.993 17.114 30.717-3.325 38.025-14.61 83.811-25.893 103.548-21.442 37.51-38.751 83.469-39.568 126.66-0.302 15.979 2.787 28.952 2.378 44.927-0.254 9.937-1.646 18.77 0.282 26.49 1.997 7.983 9.059 22.648 14.853 33.788 3.389 6.518 4.722 13.909 6.964 20.903 2.020 6.304 5.67 11.309 9.837 15.169 10.102 9.354 21.861 22.804 32.285 31.802 1.632 1.411 4.326 2.823 6.367 3.517 130.475 44.304 141.609 33.302 254.39 38.645 7.361 0.347 15.136-0.414 22.312-2.093 36.604-8.539 71.899 13.432 93.789 43.979 43.243 60.345 113.939 99.675 193.86 99.68 86.020 0 161.4-45.546 203.34-113.829 10.258-16.705 29.928-26.41 48.609-20.453 17.217 5.507 11.424 28.855 16.798 23.485 5.383-5.36 24.607-6.723 33.56-6.723h1413.881c8.397 0 19.42-1.309 27.327-5.565 8.285-4.466 15.262-12.84 24.349-15.293 12.462-3.366 25.195 3.188 31.401 14.501 40.519 73.817 118.953 123.877 209.123 123.877 87.205-0.004 163.457-46.819 205.027-116.669 8.811-14.803 28.975-22.056 44.059-13.735 13.183 7.275 27.92 5.77 41.966 0.347 6.117-2.36 11.411-3.7 14.532-4.225 157.843-16.785 211.607-40.283 235.11-47.002 23.494-6.714 23.503-16.811 10.075-20.173-29.42-7.351-54.557-42.060-25.11-49.29 3.027-0.744 5.89-1.055 8.312-1.055 12.31 1.117 33.574-2.689 20.142-26.864-16.789-30.212-16.776-53.711-13.419-57.068 35.275-36.036 17.145-104.466-23.525-134.282-136.744-93.282-308.767-143.474-468.556-172.339-188.67-34.082-370.906-98.951-543.486-182.439-65.166-31.526-134.571-60.136-200.321-78.339-218.299-60.433-295.553-120.866-759.011-120.866z"></path>
</svg>
