<svg aria-hidden="true" xmlns="http://www.w3.org/2000/svg" xmlns:xlink="http://www.w3.org/1999/xlink"><symbol viewBox="0 0 72 72" fill="none" id="icon-analytics" xmlns="http://www.w3.org/2000/svg">
<path d="M13 8H8V60C8 61.0609 8.42143 62.0783 9.17157 62.8284C9.92172 63.5786 10.9391 64 12 64H64V59H13V8Z" fill="currentColor"/>
<path d="M60 24H48.3333V27.4286H54.3167L41.6667 40.44L34.5167 33.0686C34.3617 32.9079 34.1774 32.7804 33.9743 32.6933C33.7712 32.6063 33.5534 32.5615 33.3333 32.5615C33.1133 32.5615 32.8955 32.6063 32.6924 32.6933C32.4893 32.7804 32.3049 32.9079 32.15 33.0686L20 45.5829L22.35 48L33.3333 36.7029L40.4833 44.0743C40.6383 44.235 40.8226 44.3625 41.0257 44.4495C41.2288 44.5366 41.4466 44.5814 41.6667 44.5814C41.8867 44.5814 42.1045 44.5366 42.3076 44.4495C42.5107 44.3625 42.6951 44.235 42.85 44.0743L56.6667 29.8457V36H60V24Z" fill="currentColor"/>
</symbol><symbol viewBox="0 0 72 72" fill="none" id="icon-dollar" xmlns="http://www.w3.org/2000/svg">
<path d="M36 7V63" stroke="currentColor" stroke-width="5" stroke-linecap="round" stroke-linejoin="round"/>
<path d="M51 15H28.5C25.7152 15 23.0445 16.1062 21.0754 18.0754C19.1062 20.0445 18 22.7152 18 25.5C18 28.2848 19.1062 30.9555 21.0754 32.9246C23.0445 34.8938 25.7152 36 28.5 36H43.5C46.2848 36 48.9555 37.1062 50.9246 39.0754C52.8938 41.0445 54 43.7152 54 46.5C54 49.2848 52.8938 51.9555 50.9246 53.9246C48.9555 55.8938 46.2848 57 43.5 57H18" stroke="currentColor" stroke-width="5" stroke-linecap="round" stroke-linejoin="round"/>
</symbol><symbol viewBox="0 0 56 56" fill="none" id="icon-link" xmlns="http://www.w3.org/2000/svg">
<path d="M23.3333 30.3332C24.3354 31.6728 25.6138 32.7813 27.0819 33.5834C28.55 34.3855 30.1735 34.8624 31.8422 34.9819C33.5108 35.1015 35.1857 34.8607 36.7531 34.276C38.3206 33.6913 39.7439 32.7763 40.9266 31.5932L47.9266 24.5932C50.0518 22.3928 51.2278 19.4458 51.2012 16.3868C51.1746 13.3279 49.9476 10.4017 47.7845 8.23862C45.6214 6.07553 42.6953 4.84856 39.6363 4.82197C36.5774 4.79539 33.6303 5.97133 31.43 8.0965L27.4166 12.0865" stroke="currentColor" stroke-width="5" stroke-linecap="round" stroke-linejoin="round"/>
<path d="M32.6666 25.6666C31.6645 24.327 30.3861 23.2185 28.918 22.4164C27.4498 21.6143 25.8264 21.1374 24.1577 21.0178C22.4891 20.8983 20.8142 21.1391 19.2468 21.7238C17.6793 22.3085 16.256 23.2235 15.0732 24.4066L8.07325 31.4066C5.94807 33.607 4.77214 36.554 4.79872 39.613C4.8253 42.6719 6.05227 45.5981 8.21537 47.7612C10.3785 49.9243 13.3046 51.1512 16.3636 51.1778C19.4225 51.2044 22.3696 50.0285 24.5699 47.9033L28.5599 43.9133" stroke="currentColor" stroke-width="5" stroke-linecap="round" stroke-linejoin="round"/>
</symbol><symbol viewBox="0 0 56 56" fill="none" id="icon-qr-code" xmlns="http://www.w3.org/2000/svg">
<rect x="1.5" y="1.5" width="23.1333" height="23.1333" rx="6" stroke="currentColor" stroke-width="3"/>
<rect x="31.3668" y="1.5" width="23.1333" height="23.1333" rx="6" stroke="currentColor" stroke-width="3"/>
<rect x="1.5" y="31.3667" width="23.1333" height="23.1333" rx="6" stroke="currentColor" stroke-width="3"/>
<path d="M8.03345 39.1999C8.03345 38.4819 8.61548 37.8999 9.33345 37.8999H16.8001C17.5181 37.8999 18.1001 38.4819 18.1001 39.1999V46.6666C18.1001 47.3845 17.5181 47.9666 16.8001 47.9666H9.33345C8.61548 47.9666 8.03345 47.3845 8.03345 46.6666V39.1999Z" stroke="currentColor" stroke-width="3"/>
<path d="M8.03345 9.33345C8.03345 8.61548 8.61548 8.03345 9.33345 8.03345H16.8001C17.5181 8.03345 18.1001 8.61548 18.1001 9.33345V16.8001C18.1001 17.5181 17.5181 18.1001 16.8001 18.1001H9.33345C8.61548 18.1001 8.03345 17.5181 8.03345 16.8001V9.33345Z" stroke="currentColor" stroke-width="3"/>
<rect x="37.9003" y="8.03345" width="10.0667" height="10.0667" rx="2.25" stroke="currentColor" stroke-width="3"/>
<path d="M40.1335 31.7334C40.1335 32.7643 39.2978 33.6 38.2668 33.6H35.4668C34.4359 33.6 33.6002 34.4358 33.6002 35.4667V38.2667C33.6002 39.2976 32.7644 40.1334 31.7335 40.1334C30.7026 40.1334 29.8668 39.2976 29.8668 38.2667V35.4667C29.8668 32.3739 32.374 29.8667 35.4668 29.8667H38.2668C39.2978 29.8667 40.1335 30.7024 40.1335 31.7334ZM40.1335 54.1334C40.1335 55.1643 39.2978 56 38.2668 56H35.4668C32.374 56 29.8668 53.4928 29.8668 50.4V47.6C29.8668 46.5691 30.7026 45.7334 31.7335 45.7334C32.7644 45.7334 33.6002 46.5691 33.6002 47.6V50.4C33.6002 51.431 34.4359 52.2667 35.4668 52.2667H38.2668C39.2978 52.2667 40.1335 53.1024 40.1335 54.1334ZM45.7335 54.1334C45.7335 55.1643 46.5692 56 47.6002 56H50.4002C53.493 56 56.0002 53.4928 56.0002 50.4V47.6C56.0002 46.5691 55.1644 45.7334 54.1335 45.7334C53.1026 45.7334 52.2668 46.5691 52.2668 47.6V50.4C52.2668 51.431 51.4311 52.2667 50.4002 52.2667H47.6002C46.5692 52.2667 45.7335 53.1024 45.7335 54.1334ZM56.0002 38.2667C56.0002 39.2976 55.1644 40.1334 54.1335 40.1334C53.1026 40.1334 52.2668 39.2976 52.2668 38.2667V35.4667C52.2668 34.4358 51.4311 33.6 50.4002 33.6H47.6002C46.5692 33.6 45.7335 32.7643 45.7335 31.7334C45.7335 30.7024 46.5692 29.8667 47.6002 29.8667H50.4002C53.4929 29.8667 56.0002 32.3739 56.0002 35.4667V38.2667Z" fill="currentColor"/>
<path d="M40.1335 31.7334C40.1335 32.7643 39.2978 33.6 38.2668 33.6H35.4668C34.4359 33.6 33.6002 34.4358 33.6002 35.4667V38.2667C33.6002 39.2976 32.7644 40.1334 31.7335 40.1334C30.7026 40.1334 29.8668 39.2976 29.8668 38.2667V35.4667C29.8668 32.3739 32.374 29.8667 35.4668 29.8667H38.2668C39.2978 29.8667 40.1335 30.7024 40.1335 31.7334ZM40.1335 54.1334C40.1335 55.1643 39.2978 56 38.2668 56H35.4668C32.374 56 29.8668 53.4928 29.8668 50.4V47.6C29.8668 46.5691 30.7026 45.7334 31.7335 45.7334C32.7644 45.7334 33.6002 46.5691 33.6002 47.6V50.4C33.6002 51.431 34.4359 52.2667 35.4668 52.2667H38.2668C39.2978 52.2667 40.1335 53.1024 40.1335 54.1334ZM45.7335 54.1334C45.7335 55.1643 46.5692 56 47.6002 56H50.4002C53.493 56 56.0002 53.4928 56.0002 50.4V47.6C56.0002 46.5691 55.1644 45.7334 54.1335 45.7334C53.1026 45.7334 52.2668 46.5691 52.2668 47.6V50.4C52.2668 51.431 51.4311 52.2667 50.4002 52.2667H47.6002C46.5692 52.2667 45.7335 53.1024 45.7335 54.1334ZM56.0002 38.2667C56.0002 39.2976 55.1644 40.1334 54.1335 40.1334C53.1026 40.1334 52.2668 39.2976 52.2668 38.2667V35.4667C52.2668 34.4358 51.4311 33.6 50.4002 33.6H47.6002C46.5692 33.6 45.7335 32.7643 45.7335 31.7334C45.7335 30.7024 46.5692 29.8667 47.6002 29.8667H50.4002C53.4929 29.8667 56.0002 32.3739 56.0002 35.4667V38.2667Z" stroke="currentColor"/>
</symbol><symbol viewBox="0 0 56 55" fill="none" id="icon-star" xmlns="http://www.w3.org/2000/svg">
<path d="M27.4056 3.91958C27.4674 3.7292 27.5548 3.6431 27.6278 3.59335C27.7167 3.53277 27.8463 3.48772 28 3.48772C28.1537 3.48772 28.2833 3.53277 28.3722 3.59335C28.4452 3.64309 28.5326 3.7292 28.5944 3.91958L33.0033 17.4886C33.7563 19.8062 35.9161 21.3754 38.353 21.3754H52.6203C52.8204 21.3754 52.9293 21.4319 52.9992 21.4859C53.0843 21.5517 53.1672 21.661 53.2147 21.8073C53.2622 21.9535 53.2594 22.0906 53.2292 22.1939C53.2045 22.2787 53.1496 22.3884 52.9876 22.506L41.4451 30.8921C39.4736 32.3245 38.6487 34.8635 39.4017 37.1811L43.8106 50.7501C43.8724 50.9405 43.8524 51.0615 43.8225 51.1447C43.7862 51.2459 43.7079 51.3585 43.5835 51.4489C43.4592 51.5393 43.3279 51.579 43.2203 51.5822C43.132 51.5849 43.0107 51.5666 42.8488 51.4489L31.3063 43.0628C29.3348 41.6304 26.6652 41.6304 24.6937 43.0628L13.1512 51.4489C12.9893 51.5666 12.868 51.5849 12.7797 51.5822C12.6721 51.579 12.5408 51.5393 12.4165 51.4489C12.2921 51.3585 12.2138 51.2459 12.1775 51.1447C12.1476 51.0615 12.1276 50.9405 12.1894 50.7501L16.5983 37.1811C17.3513 34.8635 16.5264 32.3245 14.5549 30.8921L3.01237 22.506C2.85042 22.3884 2.79553 22.2787 2.77077 22.1939C2.74062 22.0906 2.73781 21.9535 2.78532 21.8073C2.83283 21.661 2.91571 21.5517 3.0008 21.4859C3.07066 21.4319 3.17955 21.3754 3.37973 21.3754H17.647C20.0839 21.3754 22.2437 19.8062 22.9967 17.4886L27.4056 3.91958Z" stroke="currentColor" stroke-width="5"/>
<defs>
<linearGradient id="epaint0_linear_248_996" x1="-8" y1="30" x2="64" y2="30" gradientUnits="userSpaceOnUse">
<stop offset="1" stop-color="white"/>
</linearGradient>
</defs>
</symbol></svg>