<svg width="40" height="36" viewBox="0 0 40 36" fill="none" xmlns="http://www.w3.org/2000/svg">
<path d="M5.75 10C4.68913 10 3.67172 9.57857 2.92157 8.82843C2.17143 8.07828 1.75 7.06087 1.75 6C1.75 4.93913 2.17143 3.92172 2.92157 3.17157C3.67172 2.42143 4.68913 2 5.75 2C6.81087 2 7.82828 2.42143 8.57843 3.17157C9.32857 3.92172 9.75 4.93913 9.75 6C9.75 7.06087 9.32857 8.07828 8.57843 8.82843C7.82828 9.57857 6.81087 10 5.75 10ZM5.75 10V26M19.75 10C18.6891 10 17.6717 9.57857 16.9216 8.82843C16.1714 8.07828 15.75 7.06087 15.75 6C15.75 4.93913 16.1714 3.92172 16.9216 3.17157C17.6717 2.42143 18.6891 2 19.75 2C20.8109 2 21.8283 2.42143 22.5784 3.17157C23.3286 3.92172 23.75 4.93913 23.75 6C23.75 7.06087 23.3286 8.07828 22.5784 8.82843C21.8283 9.57857 20.8109 10 19.75 10ZM19.75 10V26M5.75 26C6.81087 26 7.82828 26.4214 8.57843 27.1716C9.32857 27.9217 9.75 28.9391 9.75 30C9.75 31.0609 9.32857 32.0783 8.57843 32.8284C7.82828 33.5786 6.81087 34 5.75 34C4.68913 34 3.67172 33.5786 2.92157 32.8284C2.17143 32.0783 1.75 31.0609 1.75 30C1.75 28.9391 2.17143 27.9217 2.92157 27.1716C3.67172 26.4214 4.68913 26 5.75 26ZM19.75 26C20.8109 26 21.8283 26.4214 22.5784 27.1716C23.3286 27.9217 23.75 28.9391 23.75 30C23.75 31.0609 23.3286 32.0783 22.5784 32.8284C21.8283 33.5786 20.8109 34 19.75 34C18.6891 34 17.6717 33.5786 16.9216 32.8284C16.1714 32.0783 15.75 31.0609 15.75 30C15.75 28.9391 16.1714 27.9217 16.9216 27.1716C17.6717 26.4214 18.6891 26 19.75 26ZM29.75 6C29.75 7.06087 30.1714 8.07828 30.9216 8.82843C31.6717 9.57857 32.6891 10 33.75 10C34.8109 10 35.8283 9.57857 36.5784 8.82843C37.3286 8.07828 37.75 7.06087 37.75 6C37.75 4.93913 37.3286 3.92172 36.5784 3.17157C35.8283 2.42143 34.8109 2 33.75 2C32.6891 2 31.6717 2.42143 30.9216 3.17157C30.1714 3.92172 29.75 4.93913 29.75 6Z" stroke="#121212" stroke-width="3" stroke-linecap="round" stroke-linejoin="round"/>
<path d="M33.75 10V14C33.75 15.0609 33.3286 16.0783 32.5784 16.8284C31.8283 17.5786 30.8109 18 29.75 18H5.75" stroke="#121212" stroke-width="3" stroke-linecap="round" stroke-linejoin="round"/>
</svg>
