<svg width="36" height="36" viewBox="0 0 36 36" fill="none" xmlns="http://www.w3.org/2000/svg">
<path d="M26.3333 1.08008H9.66665C5.06427 1.08008 1.33331 4.81104 1.33331 9.41341V26.0801C1.33331 30.6825 5.06427 34.4134 9.66665 34.4134H26.3333C30.9357 34.4134 34.6666 30.6825 34.6666 26.0801V9.41341C34.6666 4.81104 30.9357 1.08008 26.3333 1.08008Z" stroke="white" stroke-width="2" stroke-linecap="round" stroke-linejoin="round"/>
<path d="M27.1666 8.58008H27.1833M24.6666 16.6967C24.8723 18.0838 24.6354 19.5004 23.9896 20.7451C23.3437 21.9898 22.3219 22.9991 21.0693 23.6295C19.8168 24.26 18.3974 24.4794 17.0129 24.2566C15.6285 24.0339 14.3496 23.3802 13.358 22.3887C12.3665 21.3971 11.7128 20.1182 11.4901 18.7338C11.2673 17.3493 11.4867 15.9299 12.1172 14.6774C12.7476 13.4248 13.7569 12.403 15.0016 11.7571C16.2463 11.1113 17.6629 10.8744 19.05 11.0801C20.4648 11.2899 21.7747 11.9492 22.7861 12.9606C23.7975 13.972 24.4568 15.2819 24.6666 16.6967Z" stroke="white" stroke-width="2" stroke-linecap="round" stroke-linejoin="round"/>
</svg>
