<svg width="42" height="44" viewBox="0 0 42 44" fill="none" xmlns="http://www.w3.org/2000/svg">
<path d="M2.25 42H26.25M4.25 16H24.25M24.25 42V6C24.25 4.93913 23.8286 3.92172 23.0784 3.17157C22.3283 2.42143 21.3109 2 20.25 2H8.25C7.18913 2 6.17172 2.42143 5.42157 3.17157C4.67143 3.92172 4.25 4.93913 4.25 6V42M24.25 24H28.25C29.3109 24 30.3283 24.4214 31.0784 25.1716C31.8286 25.9217 32.25 26.9391 32.25 28V32C32.25 33.0609 32.6714 34.0783 33.4216 34.8284C34.1717 35.5786 35.1891 36 36.25 36C37.3109 36 38.3283 35.5786 39.0784 34.8284C39.8286 34.0783 40.25 33.0609 40.25 32V17.66C40.2504 17.1322 40.1464 16.6095 39.9438 16.1221C39.7413 15.6346 39.4443 15.1921 39.07 14.82L32.25 8" stroke="#121212" stroke-width="3" stroke-linecap="round" stroke-linejoin="round"/>
</svg>
