<svg width="49" height="48" viewBox="0 0 49 48" fill="none" xmlns="http://www.w3.org/2000/svg">
<path d="M16.25 24L12.25 30H18.25L14.25 36" stroke="#383838" stroke-width="2" stroke-linecap="round" stroke-linejoin="round"/>
<path fill-rule="evenodd" clip-rule="evenodd" d="M21.75 2.5C23.2087 2.5 24.6072 3.07988 25.6387 4.11133C26.6701 5.14278 27.25 6.54131 27.25 8V24.5H29.75C31.2087 24.5 32.6072 25.0799 33.6387 26.1113C34.6701 27.1428 35.25 28.5413 35.25 30V34C35.25 34.6349 35.4937 35.2428 35.9258 35.7051C36.93 36.4404 37.6425 36.3031 38.0723 36.042C38.6146 35.7124 39.0781 34.9609 39.0781 34V19.6875C37.0917 18.918 35.75 16.8191 35.75 14.5C35.75 13.5981 36.5077 13 37.2764 13H37.75V11C37.75 10.4477 38.1977 10 38.75 10C39.3023 10 39.75 10.4477 39.75 11V13H41.75V11C41.75 10.4477 42.1977 10 42.75 10C43.3023 10 43.75 10.4477 43.75 11V13H44.2236C44.9923 13 45.75 13.5981 45.75 14.5C45.75 16.9506 44.2522 19.1558 42.0781 19.8057V34C42.0781 35.8675 41.1826 37.6623 39.6309 38.6055C37.9789 39.6095 35.8923 39.4698 34.0059 38.0166C33.9548 37.9773 33.9069 37.9342 33.8613 37.8887C32.8299 36.8572 32.25 35.4587 32.25 34V30C32.25 29.337 31.9864 28.7013 31.5176 28.2324C31.0487 27.7636 30.413 27.5 29.75 27.5H27.25V42.5H27.75C28.5784 42.5 29.25 43.1716 29.25 44C29.25 44.8284 28.5784 45.5 27.75 45.5H3.75C2.92157 45.5 2.25 44.8284 2.25 44C2.25 43.1716 2.92157 42.5 3.75 42.5H4.25V8C4.25 6.54131 4.82988 5.14278 5.86133 4.11133C6.89278 3.07988 8.29131 2.5 9.75 2.5H21.75ZM7.25 42.5H24.25V19.5H7.25V42.5ZM37.7803 15C37.9938 16.7795 39.3301 18 40.75 18C42.1699 18 43.5062 16.7795 43.7197 15H37.7803ZM9.75 5.5C9.08696 5.5 8.45126 5.76358 7.98242 6.23242C7.51358 6.70126 7.25 7.33696 7.25 8V16.5H24.25V8C24.25 7.33696 23.9864 6.70126 23.5176 6.23242C23.0487 5.76358 22.413 5.5 21.75 5.5H9.75Z" fill="#383838"/>
</svg>
