<svg width="195" height="40" viewBox="0 0 195 40" fill="none" xmlns="http://www.w3.org/2000/svg">
<rect x="0.555556" y="4.49891" width="27.8889" height="34.9452" rx="2.22222" stroke="#C6EAAA" stroke-width="1.11111"/>
<rect y="3.94336" width="29" height="36.0563" rx="2.77778" fill="#C7EBAB" fill-opacity="0.5"/>
<g filter="url(#filter0_i_4366_4776)">
<path d="M0 6.72114C0 5.18701 1.24365 3.94336 2.77778 3.94336H26.2222C27.7563 3.94336 29 5.18701 29 6.72114V10.1797C29 11.7138 27.7563 12.9574 26.2222 12.9574H0V6.72114Z" fill="#9CDA6B"/>
</g>
<path d="M0 17.4648H17.2991C18.8333 17.4648 20.0769 18.7085 20.0769 20.2426V23.7012C20.0769 25.2353 18.8333 26.4789 17.2991 26.4789H0V17.4648Z" fill="#9CDA6B"/>
<g filter="url(#filter1_i_4366_4776)">
<path d="M0 37.2222C0 38.7563 1.24365 40 2.77778 40H26.2222C27.7563 40 29 38.7563 29 37.2222V33.7637C29 32.2296 27.7563 30.9859 26.2222 30.9859H0V37.2222Z" fill="#9CDA6B"/>
</g>
<mask id="path-6-inside-1_4366_4776" fill="white">
<path d="M10.0385 2.22222C10.0385 0.994923 11.0334 0 12.2607 0H16.7393C17.9666 0 18.9615 0.994922 18.9615 2.22222V3.1025C18.9615 3.25592 18.8372 3.38028 18.6838 3.38028H10.3162C10.1628 3.38028 10.0385 3.25592 10.0385 3.1025V2.22222Z"/>
</mask>
<path d="M10.0385 2.22222C10.0385 0.994923 11.0334 0 12.2607 0H16.7393C17.9666 0 18.9615 0.994922 18.9615 2.22222V3.1025C18.9615 3.25592 18.8372 3.38028 18.6838 3.38028H10.3162C10.1628 3.38028 10.0385 3.25592 10.0385 3.1025V2.22222Z" stroke="url(#paint0_linear_4366_4776)" stroke-width="2.22222" mask="url(#path-6-inside-1_4366_4776)"/>
<path d="M46.9492 39.9997C45.5193 39.9997 44.1927 39.6774 42.9695 39.0327C41.7635 38.3633 40.7126 37.4211 39.8168 36.2062C38.9382 34.9912 38.249 33.5656 37.7494 31.9292C37.2498 30.2679 37 28.4456 37 26.462C37 24.4785 37.2498 22.6685 37.7494 21.0321C38.249 19.3709 38.9382 17.9328 39.8168 16.7179C40.7126 15.503 41.7635 14.5732 42.9695 13.9285C44.1927 13.2591 45.5193 12.9244 46.9492 12.9244C48.6203 12.9244 50.1105 13.3459 51.4199 14.1889C52.7464 15.0319 53.849 16.2468 54.7276 17.8336L51.4715 22.0734C50.8858 21.0817 50.2397 20.3255 49.5334 19.8048C48.8443 19.2841 48.069 19.0238 47.2076 19.0238C46.4668 19.0238 45.7863 19.1973 45.1661 19.5444C44.5459 19.8916 44.0118 20.3998 43.5639 21.0693C43.1332 21.7139 42.7886 22.4949 42.5302 23.4123C42.289 24.3297 42.1684 25.3463 42.1684 26.462C42.1684 27.5778 42.289 28.5943 42.5302 29.5117C42.7886 30.4291 43.1332 31.2225 43.5639 31.892C44.0118 32.5366 44.5459 33.0325 45.1661 33.3796C45.7863 33.7267 46.4668 33.9003 47.2076 33.9003C48.069 33.9003 48.8443 33.64 49.5334 33.1193C50.2397 32.5986 50.8858 31.8424 51.4715 30.8506L54.7276 35.0904C53.849 36.6525 52.7464 37.8674 51.4199 38.7352C50.1105 39.5782 48.6203 39.9997 46.9492 39.9997Z" fill="white"/>
<path d="M65.2797 39.479V35.7227L64.9437 34.7929V27.8753C64.9437 26.7596 64.7025 25.9042 64.2201 25.3091C63.755 24.6892 63.0056 24.3793 61.9719 24.3793C61.3 24.3793 60.6195 24.5405 59.9304 24.8628C59.2412 25.1603 58.6555 25.5818 58.1731 26.1273L56.5192 21.3296C57.3117 20.5858 58.2592 20.0155 59.3618 19.6188C60.4817 19.1973 61.5929 18.9866 62.6955 18.9866C64.9696 18.9866 66.7268 19.7428 67.9672 21.2552C69.2249 22.7429 69.8537 25.0859 69.8537 28.2844V39.479H65.2797ZM61.1449 39.8137C60.0251 39.8137 59.0776 39.541 58.3023 38.9955C57.5271 38.45 56.9327 37.7062 56.5192 36.764C56.123 35.8219 55.9248 34.7681 55.9248 33.6028C55.9248 32.3631 56.1402 31.2969 56.5709 30.4043C57.0188 29.4869 57.6993 28.7927 58.6124 28.3216C59.5255 27.8257 60.7056 27.5778 62.1528 27.5778H65.4606V31.2597H62.8247C62.0322 31.2597 61.4723 31.4457 61.1449 31.8176C60.8348 32.1895 60.6798 32.6854 60.6798 33.3052C60.6798 33.9251 60.8434 34.421 61.1708 34.7929C61.4981 35.1648 61.946 35.3508 62.5146 35.3508C63.0486 35.3508 63.531 35.1648 63.9617 34.7929C64.4097 34.3962 64.737 33.8011 64.9437 33.0077L65.6156 35.6111C65.3572 36.9996 64.849 38.0533 64.0909 38.7724C63.3501 39.4666 62.3681 39.8137 61.1449 39.8137Z" fill="white"/>
<path d="M81.7651 39.8137C80.5074 39.8137 79.4565 39.4418 78.6123 38.698C77.7854 37.9542 77.1652 36.8136 76.7517 35.2764C76.3382 33.7391 76.1315 31.768 76.1315 29.363C76.1315 27.0075 76.3468 25.0612 76.7775 23.5239C77.2255 21.9867 77.8715 20.8461 78.7157 20.1023C79.5599 19.3585 80.5763 18.9866 81.7651 18.9866C83.0399 18.9866 84.1942 19.4081 85.2279 20.2511C86.2788 21.0941 87.1058 22.2966 87.7087 23.8586C88.3289 25.3959 88.639 27.2306 88.639 29.363C88.639 31.5201 88.3289 33.3796 87.7087 34.9417C87.1058 36.4789 86.2788 37.6814 85.2279 38.5492C84.1942 39.3922 83.0399 39.8137 81.7651 39.8137ZM72.9529 39.479V11.883H77.8629V22.7057L77.6045 29.363L77.6303 36.0202V39.479H72.9529ZM80.7314 34.1978C81.2827 34.1978 81.7737 34.0119 82.2044 33.64C82.6523 33.268 83.0055 32.7226 83.2639 32.0035C83.5395 31.2597 83.6774 30.3795 83.6774 29.363C83.6774 28.3464 83.5395 27.491 83.2639 26.7968C83.0055 26.0777 82.6523 25.5322 82.2044 25.1603C81.7737 24.7884 81.2827 24.6025 80.7314 24.6025C80.1801 24.6025 79.6805 24.7884 79.2325 25.1603C78.8018 25.5322 78.4487 26.0777 78.173 26.7968C77.9146 27.491 77.7854 28.3464 77.7854 29.363C77.7854 30.3795 77.9146 31.2597 78.173 32.0035C78.4487 32.7226 78.8018 33.268 79.2325 33.64C79.6805 34.0119 80.1801 34.1978 80.7314 34.1978Z" fill="white"/>
<path d="M98.6742 39.479V13.445H107.228C109.226 13.445 110.984 13.9781 112.5 15.0443C114.016 16.1104 115.196 17.6105 116.04 19.5444C116.901 21.4784 117.332 23.7843 117.332 26.462C117.332 29.115 116.901 31.4209 116.04 33.3796C115.196 35.3136 114.016 36.8136 112.5 37.8798C110.984 38.9459 109.226 39.479 107.228 39.479H98.6742ZM103.791 33.6028H107.021C108.055 33.6028 108.951 33.33 109.709 32.7846C110.484 32.2143 111.087 31.3961 111.518 30.3299C111.948 29.239 112.164 27.9497 112.164 26.462C112.164 24.9496 111.948 23.6603 111.518 22.5941C111.087 21.528 110.484 20.7222 109.709 20.1767C108.951 19.6064 108.055 19.3213 107.021 19.3213H103.791V33.6028Z" fill="white"/>
<path d="M119.792 39.479V19.3213H124.469V25.1975L123.771 23.5239C124.185 22.0115 124.857 20.8833 125.787 20.1395C126.717 19.3709 127.846 18.9866 129.172 18.9866V25.3463C128.948 25.2967 128.75 25.2719 128.578 25.2719C128.423 25.2471 128.251 25.2347 128.061 25.2347C127.062 25.2347 126.252 25.6314 125.632 26.4248C125.012 27.1935 124.702 28.458 124.702 30.2184V39.479H119.792Z" fill="white"/>
<path d="M131.198 39.479V19.3213H136.108V39.479H131.198ZM133.653 17.0898C132.758 17.0898 132.034 16.7303 131.483 16.0113C130.931 15.2922 130.656 14.3996 130.656 13.3335C130.656 12.2673 130.931 11.3747 131.483 10.6557C132.034 9.93666 132.758 9.57715 133.653 9.57715C134.549 9.57715 135.273 9.92427 135.824 10.6185C136.375 11.288 136.651 12.1557 136.651 13.2219C136.651 14.3376 136.375 15.2674 135.824 16.0113C135.29 16.7303 134.567 17.0898 133.653 17.0898Z" fill="white"/>
<path d="M143.201 39.479L137.439 19.3213H142.478L147.078 36.169H144.545L149.378 19.3213H154.055L148.267 39.479H143.201Z" fill="white"/>
<path d="M162.285 39.8137C160.631 39.8137 159.184 39.3674 157.944 38.4748C156.72 37.5575 155.764 36.3177 155.075 34.7557C154.403 33.1689 154.067 31.3713 154.067 29.363C154.067 27.3546 154.395 25.5694 155.049 24.0074C155.721 22.4206 156.643 21.1933 157.814 20.3255C158.986 19.4329 160.304 18.9866 161.768 18.9866C163.146 18.9866 164.404 19.3957 165.541 20.2139C166.678 21.0073 167.583 22.185 168.255 23.7471C168.926 25.3091 169.262 27.2059 169.262 29.4373C169.262 29.6853 169.254 29.9704 169.236 30.2927C169.219 30.6151 169.202 30.9126 169.185 31.1853H158.099V27.4662H166.575L164.714 28.5076C164.731 27.5902 164.611 26.7967 164.352 26.1273C164.111 25.4579 163.767 24.9372 163.319 24.5653C162.888 24.1934 162.38 24.0074 161.794 24.0074C161.208 24.0074 160.691 24.1934 160.243 24.5653C159.813 24.9372 159.477 25.4703 159.236 26.1645C158.994 26.8339 158.874 27.6274 158.874 28.5447V29.6233C158.874 30.6151 159.012 31.4705 159.287 32.1895C159.58 32.9085 159.994 33.4664 160.528 33.8631C161.062 34.235 161.699 34.421 162.44 34.421C163.129 34.421 163.715 34.2846 164.197 34.0119C164.697 33.7143 165.188 33.268 165.67 32.673L168.255 36.5409C167.583 37.607 166.756 38.4253 165.774 38.9955C164.792 39.541 163.629 39.8137 162.285 39.8137Z" fill="white"/>
<path d="M171.526 39.479V19.3213H176.204V25.1975L175.506 23.5239C175.919 22.0115 176.591 20.8833 177.521 20.1395C178.452 19.3709 179.58 18.9866 180.907 18.9866V25.3463C180.683 25.2967 180.485 25.2719 180.312 25.2719C180.157 25.2471 179.985 25.2347 179.796 25.2347C178.796 25.2347 177.987 25.6314 177.366 26.4248C176.746 27.1935 176.436 28.458 176.436 30.2184V39.479H171.526Z" fill="white"/>
<path d="M188.074 39.8137C186.886 39.8137 185.723 39.6154 184.586 39.2187C183.466 38.822 182.561 38.3261 181.872 37.731L183.345 32.8961C184 33.4664 184.767 33.9251 185.645 34.2722C186.524 34.5945 187.385 34.7557 188.229 34.7557C189.056 34.7557 189.625 34.6317 189.935 34.3838C190.262 34.1358 190.426 33.8011 190.426 33.3796C190.426 32.9829 190.271 32.6978 189.961 32.5242C189.668 32.3259 189.272 32.1771 188.772 32.0779C188.29 31.9787 187.756 31.8672 187.17 31.7432C186.584 31.6192 185.99 31.4581 185.387 31.2597C184.801 31.0366 184.258 30.7142 183.759 30.2927C183.276 29.8464 182.889 29.2514 182.596 28.5076C182.303 27.7637 182.157 26.8215 182.157 25.681C182.157 24.3917 182.415 23.2512 182.932 22.2594C183.466 21.2428 184.241 20.4494 185.258 19.8792C186.274 19.2841 187.514 18.9866 188.979 18.9866C189.961 18.9866 190.951 19.1353 191.951 19.4329C192.967 19.7056 193.82 20.1271 194.509 20.6974L193.036 25.4951C192.347 24.9248 191.658 24.5405 190.969 24.3421C190.28 24.119 189.625 24.0074 189.005 24.0074C188.178 24.0074 187.592 24.1438 187.247 24.4165C186.92 24.6892 186.756 25.024 186.756 25.4207C186.756 25.8174 186.903 26.1273 187.196 26.3505C187.489 26.5488 187.876 26.71 188.359 26.8339C188.858 26.9331 189.401 27.0447 189.987 27.1687C190.572 27.2678 191.158 27.429 191.744 27.6522C192.347 27.8753 192.89 28.21 193.372 28.6563C193.872 29.0778 194.268 29.6605 194.561 30.4043C194.854 31.1233 195 32.0531 195 33.1937C195 34.4334 194.733 35.5491 194.199 36.5409C193.682 37.5327 192.907 38.3261 191.873 38.9211C190.857 39.5162 189.59 39.8137 188.074 39.8137Z" fill="white"/>
<defs>
<filter id="filter0_i_4366_4776" x="0" y="3.94336" width="29" height="10.1248" filterUnits="userSpaceOnUse" color-interpolation-filters="sRGB">
<feFlood flood-opacity="0" result="BackgroundImageFix"/>
<feBlend mode="normal" in="SourceGraphic" in2="BackgroundImageFix" result="shape"/>
<feColorMatrix in="SourceAlpha" type="matrix" values="0 0 0 0 0 0 0 0 0 0 0 0 0 0 0 0 0 0 127 0" result="hardAlpha"/>
<feOffset dy="1.11111"/>
<feGaussianBlur stdDeviation="0.555556"/>
<feComposite in2="hardAlpha" operator="arithmetic" k2="-1" k3="1"/>
<feColorMatrix type="matrix" values="0 0 0 0 1 0 0 0 0 1 0 0 0 0 1 0 0 0 0.44 0"/>
<feBlend mode="normal" in2="shape" result="effect1_innerShadow_4366_4776"/>
</filter>
<filter id="filter1_i_4366_4776" x="0" y="29.9308" width="29" height="10.0692" filterUnits="userSpaceOnUse" color-interpolation-filters="sRGB">
<feFlood flood-opacity="0" result="BackgroundImageFix"/>
<feBlend mode="normal" in="SourceGraphic" in2="BackgroundImageFix" result="shape"/>
<feColorMatrix in="SourceAlpha" type="matrix" values="0 0 0 0 0 0 0 0 0 0 0 0 0 0 0 0 0 0 127 0" result="hardAlpha"/>
<feOffset dy="-1.05556"/>
<feGaussianBlur stdDeviation="0.555556"/>
<feComposite in2="hardAlpha" operator="arithmetic" k2="-1" k3="1"/>
<feColorMatrix type="matrix" values="0 0 0 0 1 0 0 0 0 1 0 0 0 0 1 0 0 0 0.44 0"/>
<feBlend mode="normal" in2="shape" result="effect1_innerShadow_4366_4776"/>
</filter>
<linearGradient id="paint0_linear_4366_4776" x1="10.0385" y1="1.69014" x2="18.9615" y2="1.69014" gradientUnits="userSpaceOnUse">
<stop stop-color="#C7EBAB"/>
<stop offset="1" stop-color="#C7EBAB"/>
</linearGradient>
</defs>
</svg>
