<svg xmlns="http://www.w3.org/2000/svg" xmlns:xlink="http://www.w3.org/1999/xlink"><symbol id="sprite-arrow" viewBox="0 0 36 36"><path d="M20.41 2.176v31.11a2 2 0 0 1-4 0V2.177a2 2 0 0 1 4 0"/><path d="M35.38 19.146 19.824 34.7a2 2 0 0 1-2.828 0L1.44 19.146a2 2 0 0 1 2.829-2.829l14.14 14.142 14.142-14.142a2 2 0 0 1 2.829 2.829"/></symbol><use xlink:href="#sprite-arrow" width="36" height="36" y="0"/><view id="sprite-arrow-view" viewBox="0 0 36 36"/><symbol id="sprite-award" viewBox="0 0 40 40"><path d="M7.333 13.334a12.667 12.667 0 0 0 25.334 0A12.667 12.667 0 0 0 20 .667 12.667 12.667 0 0 0 7.333 13.334M20 24a10.667 10.667 0 0 0 10.667-10.666A10.667 10.667 0 0 0 20 2.667 10.667 10.667 0 0 0 9.333 13.334 10.667 10.667 0 0 0 20 24" fill-rule="evenodd"/><path d="M14.675 23.282 12.93 36.41l6.555-3.933a1 1 0 0 1 1.028 0l6.555 3.933-1.744-13.144a1 1 0 0 1 1.983-.263l2.017 15.2a1 1 0 0 1-1.506.99L20 34.5l-7.819 4.691a1 1 0 0 1-1.506-.989l2.017-15.183a1 1 0 1 1 1.983.263"/></symbol><use xlink:href="#sprite-award" width="40" height="40" y="36"/><view id="sprite-award-view" viewBox="0 36 40 40"/><symbol id="sprite-battery-charging" viewBox="0 0 40 40"><path d="M8.333 31H5a4.33 4.33 0 0 1-3.064-1.27 4.33 4.33 0 0 1-1.27-3.063V13.333a4.33 4.33 0 0 1 1.27-3.064A4.33 4.33 0 0 1 4.999 9h5.318a1 1 0 0 1 0 2H5a2.33 2.33 0 0 0-1.65.683 2.33 2.33 0 0 0-.683 1.65v13.334a2.33 2.33 0 0 0 .683 1.65A2.33 2.33 0 0 0 5 29h3.333a1 1 0 0 1 0 2M25 9h3.333a4.333 4.333 0 0 1 4.334 4.333v13.334A4.333 4.333 0 0 1 28.334 31h-5.317a1 1 0 0 1 0-2h5.316a2.33 2.33 0 0 0 1.65-.683 2.33 2.33 0 0 0 .684-1.65V13.333A2.333 2.333 0 0 0 28.333 11H25a1 1 0 0 1 0-2"/><path d="M37.333 21.666v-3.333a1 1 0 0 1 2 0v3.333a1 1 0 0 1-2 0"/><path d="M19.165 10.555 13.535 19h8.132a1 1 0 0 1 .832 1.555l-6.667 10a1 1 0 0 1-1.664-1.11L19.798 21h-8.131a1 1 0 0 1-.832-1.555l6.666-10a1 1 0 0 1 1.664 1.11"/></symbol><use xlink:href="#sprite-battery-charging" width="40" height="40" y="76"/><view id="sprite-battery-charging-view" viewBox="0 76 40 40"/><symbol id="sprite-car-sport" viewBox="0 0 40 40"><path d="M1.843 33.994h.643V35a.55.55 0 0 0 .55.55h4.75a.55.55 0 0 0 .55-.55v-1.006h.8a4.2 4.2 0 0 0 1.012-.12l.076-.019.018-.004a84 84 0 0 1 1.218-.339 12 12 0 0 1 1.094-.213h.001a16 16 0 0 1 .667-.085 70 70 0 0 1 5.074-.355h.001A52 52 0 0 1 20 32.828a61 61 0 0 1 2.896.079h.002a69 69 0 0 1 3.733.282l.23.024h.003a15 15 0 0 1 1.214.18 11 11 0 0 1 .54.118 91 91 0 0 1 1.246.344l.018.004.077.02a4.2 4.2 0 0 0 .988.115h.719V35a.55.55 0 0 0 .55.55h4.75a.55.55 0 0 0 .55-.55v-1.006h.641a.55.55 0 0 0 .53-.403 11 11 0 0 0 .12-.473 25 25 0 0 0 .283-1.399l.074-.443a35 35 0 0 0 .232-1.723 38 38 0 0 0 .072-.725v-.003a21 21 0 0 0 .071-1.29 33 33 0 0 0 .011-.867 45 45 0 0 0-.051-2.1 42 42 0 0 0-.314-3.613 12.4 12.4 0 0 0-.332-1.71 2.4 2.4 0 0 0-.248-.601l-.032-.05a3 3 0 0 0-.758-.725 52 52 0 0 0-1.493-.962l-.008-.005a4.94 4.94 0 0 1-1.622-1.566 7 7 0 0 1-.248-.483l-.001-.003-.032-.069-.031-.067-.03-.067-.03-.066-.026-.06a109 109 0 0 0-1.006-2.356 8.1 8.1 0 0 0-3.023-3.806l-.051-.03a11.8 11.8 0 0 0-3-1.1 25 25 0 0 0-2.367-.44 36 36 0 0 0-3.785-.32 33 33 0 0 0-1.06-.019h-.003a36 36 0 0 0-2.561.097 35 35 0 0 0-2.282.238 19 19 0 0 0-4.359 1.06l-.012.004a8 8 0 0 0-1.01.483l-.038.024a8.1 8.1 0 0 0-3.02 3.8 67 67 0 0 0-.896 2.102 17 17 0 0 1-.259.584 7 7 0 0 1-.251.49A5 5 0 0 1 3.687 16.9l-.008.005a50 50 0 0 0-1.5.97 3 3 0 0 0-.75.72l-.046.074a3.9 3.9 0 0 0-.375 1.144 22 22 0 0 0-.312 2.13 46 46 0 0 0-.195 2.625 45 45 0 0 0-.051 2.095 28 28 0 0 0 .043 1.641v.002a17 17 0 0 0 .039.521 37 37 0 0 0 .222 1.91 34 34 0 0 0 .082.538 28 28 0 0 0 .308 1.628 15 15 0 0 0 .156.64v.002l.014.05a.55.55 0 0 0 .529.4m.428-1.1h6.868a3 3 0 0 0 .75-.09h.004l.055-.014a86 86 0 0 1 1.231-.341l.013-.003a13 13 0 0 1 1.202-.235 18 18 0 0 1 .711-.091 71 71 0 0 1 5.155-.36 53 53 0 0 1 1.74-.032h.003a63 63 0 0 1 2.949.08 70 70 0 0 1 3.792.287l.236.025a16 16 0 0 1 1.304.192h.002a13 13 0 0 1 .598.131l.012.004a92 92 0 0 1 1.259.347l.056.013.004.001a3 3 0 0 0 .73.086h6.784l.006-.023v-.001a24 24 0 0 0 .27-1.339h.001l.072-.43a34 34 0 0 0 .224-1.668 37 37 0 0 0 .07-.704 19 19 0 0 0 .067-1.22 32 32 0 0 0 .011-.84 44 44 0 0 0-.05-2.05v-.002a41 41 0 0 0-.306-3.522l-.001-.004a11 11 0 0 0-.303-1.562l-.001-.004a1.3 1.3 0 0 0-.122-.305 1.9 1.9 0 0 0-.462-.436 51 51 0 0 0-1.458-.94 6.04 6.04 0 0 1-1.99-1.927l-.015-.026a8 8 0 0 1-.295-.574l-.035-.074-.034-.074-.032-.071-.032-.071-.03-.07-.005-.01a108 108 0 0 0-1.003-2.35l-.01-.026a7 7 0 0 0-2.594-3.285 10.7 10.7 0 0 0-2.698-.983l-.01-.002a24 24 0 0 0-2.266-.423 35 35 0 0 0-3.672-.31A31 31 0 0 0 20 7.55a35 35 0 0 0-2.483.094h-.001a34 34 0 0 0-2.215.232h-.01a18 18 0 0 0-4.106.998 7 7 0 0 0-.85.405 7 7 0 0 0-2.598 3.285l-.011.028a66 66 0 0 0-.888 2.083l-.003.007a18 18 0 0 1-.277.624 8 8 0 0 1-.3.582l-.015.026a6.1 6.1 0 0 1-1.988 1.927 49 49 0 0 0-1.465.947 1.9 1.9 0 0 0-.449.422 2.8 2.8 0 0 0-.249.785l-.004.021a21 21 0 0 0-.298 2.033v.004a45 45 0 0 0-.19 2.565v.002a44 44 0 0 0-.051 2.045 27 27 0 0 0 .041 1.578 16 16 0 0 0 .036.485 36 36 0 0 0 .216 1.853 32 32 0 0 0 .08.52 27 27 0 0 0 .295 1.566zm30.495 1.1h3.65v.456h-3.65zm-29.18 0h3.65v.456h-3.65z" fill-rule="evenodd"/><path d="M29.447 24.568c-.508-.587-2.163-1.077-4.354-1.405s-2.991-.413-4.95-.413-2.851.14-4.951.413-3.678.757-4.354 1.405c-1.015.983.472 2.087 1.639 2.22 1.13.13 3.392.082 7.675.082s6.544.048 7.675-.081c1.165-.142 2.545-1.17 1.62-2.22m5.766-5.681a.28.28 0 0 0-.266-.258c-1.015-.036-2.045.036-3.873.575a8.1 8.1 0 0 0-2.585 1.294c-.196.153-.127.566.12.61q2.26.265 4.538.267c.91 0 1.85-.258 2.024-1.07.09-.467.103-.946.042-1.418m-30.176 0a.28.28 0 0 1 .267-.258c1.015-.036 2.045.036 3.873.575.932.272 1.808.71 2.585 1.294.196.153.126.566-.12.61a39 39 0 0 1-4.539.267c-.91 0-1.85-.258-2.024-1.07a4.5 4.5 0 0 1-.042-1.418"/><path d="M6.227 15.386a6 6 0 0 0-.306.092.55.55 0 0 0 .346 1.044 4 4 0 0 1 .246-.074h.002a14 14 0 0 1 .8-.193 27 27 0 0 1 1.361-.252h.002a37 37 0 0 1 .59-.09 48 48 0 0 1 2.137-.257 68 68 0 0 1 2.67-.208 89 89 0 0 1 2.723-.117A112 112 0 0 1 20 15.287a111 111 0 0 1 3.533.054 85 85 0 0 1 3.15.156 63 63 0 0 1 2.512.222 46 46 0 0 1 1.537.194 32 32 0 0 1 1.594.268 18 18 0 0 1 .996.223h.001a7 7 0 0 1 .389.111l.016.005a.55.55 0 0 0 .357-1.04l-.037-.012-.003-.001a8 8 0 0 0-.452-.129 19 19 0 0 0-1.057-.236 33 33 0 0 0-1.648-.278 47 47 0 0 0-1.574-.199 64 64 0 0 0-2.557-.225 86 86 0 0 0-3.19-.159A112 112 0 0 0 20 14.187a113 113 0 0 0-3.233.044 91 91 0 0 0-2.755.12 69 69 0 0 0-2.713.21 49 49 0 0 0-2.187.263 38 38 0 0 0-.609.093 28 28 0 0 0-1.414.261 15 15 0 0 0-.862.208M33.75 13.45H35a.55.55 0 0 1 0 1.1h-1.25a.55.55 0 0 1 0-1.1M5 13.45h1.25a.55.55 0 0 1 0 1.1H5a.55.55 0 0 1 0-1.1"/></symbol><use xlink:href="#sprite-car-sport" width="40" height="40" y="116"/><view id="sprite-car-sport-view" viewBox="0 116 40 40"/><symbol id="sprite-clock" viewBox="0 0 32 32"><path d="M20.586 23.414 14 16.828V8h4v7.172l5.414 5.414zM16 0C7.163 0 0 7.163 0 16s7.163 16 16 16 16-7.163 16-16S24.837 0 16 0m0 28C9.373 28 4 22.627 4 16S9.373 4 16 4s12 5.373 12 12-5.373 12-12 12"/></symbol><use xlink:href="#sprite-clock" width="32" height="32" y="156"/><view id="sprite-clock-view" viewBox="0 156 32 32"/><symbol id="sprite-geo" viewBox="0 0 28 32"><path d="M26.356 10.836c-1.527-6.72-7.389-9.745-12.538-9.745h-.015c-5.135 0-11.011 3.011-12.538 9.731C-.437 18.327 4.16 24.684 8.32 28.684c1.542 1.484 3.52 2.225 5.498 2.225s3.956-.742 5.484-2.225c4.16-4 8.756-10.342 7.055-17.847zm-12.538 7.288a4.581 4.581 0 1 1 0-9.164 4.581 4.581 0 1 1 0 9.164"/></symbol><use xlink:href="#sprite-geo" width="28" height="32" y="188"/><view id="sprite-geo-view" viewBox="0 188 28 32"/><symbol id="sprite-logo-footer" viewBox="0 0 58 57"><path d="m15.93 22.735 9.59-9.932a4.526 4.526 0 0 1 6.4-.111l13.024 12.576a4.5 4.5 0 0 1 1.3 2.395h.22a.884.884 0 1 1 0 1.768h-.23q-.026.135-.062.269h2.315a6.78 6.78 0 0 0-1.97-6.06L33.492 11.064a6.79 6.79 0 0 0-9.6.167l-11.11 11.504z"/><path d="M46.294 27.981c.045.376.043.756-.006 1.132h.176a.566.566 0 0 0 0-1.132z"/><path d="M46.097 30.148q.24.503.333 1.002h1.633q.231-.553.36-1.132h-2.35q-.007.024-.017.048z"/><path d="M46.478 31.468q.02.192.023.381h.416a.88.88 0 0 1 .64.275q.201-.32.363-.656z"/><path d="M47.375 32.4a7 7 0 0 1-.691.84l-.057.059h-.358q.057-.173.102-.351.096-.379.122-.78h.424c.188 0 .355.091.458.233"/><path d="M46.15 33.617h.17l-.326.337q.084-.165.155-.337"/><path d="m49.884 33.184-.111.115h.441a.566.566 0 0 0 .382-.984q-.315.457-.712.87"/><path d="M14.509 24.206h-3.146l1.093-1.131h3.146z"/><path d="m13.744 24.998.437-.452h-3.13a7 7 0 0 0-.358.452z"/><path d="m13.416 25.338-.472.489a4.6 4.6 0 0 0-.517.642h-2.54q.231-.587.576-1.131z"/><path d="M12.222 26.809q-.11.203-.198.413H9.892a2 2 0 0 0-.259.02q.058-.219.13-.433z"/><path d="m48.753 34.355-1.093 1.132h1.664a.566.566 0 0 0 0-1.132z"/><path d="m26.89 17.901-4.373 4.529-.198-.016c-1.305-.11-2.622.281-3.795.893l7.839-8.118a3.395 3.395 0 0 1 4.8-.083L42.558 26.11c.444.429.746.95.905 1.503l-.087-.046c-.228-.144-.665-.292-1.296-.408a14 14 0 0 0-1.95-.2 3 3 0 0 0-.284-.321l-9.116-8.804a2.716 2.716 0 0 0-3.84.067"/><path d="m19.98 35.767 6.857 6.622a3.395 3.395 0 0 0 4.8-.083l6.041-6.256h-2.43l-.376-.007-.336.003-3.426 3.548a2.716 2.716 0 0 1-3.84.067l-4.033-3.894z"/><path d="m27.242 19.709-1.065 1.103h1.15c.065 0 .101 0 .128.015.032.02.05.064.09.161l.723 1.52.001.004a95 95 0 0 0 2.73-.099h.023c.962 0 1.887.174 2.751.457l-3.331-3.217a2.263 2.263 0 0 0-3.2.056"/><path d="M31.059 37.475q-.076.003-.154.003c-1.282 0-2.383-.705-2.86-1.711H25.41l2.15 2.075a2.263 2.263 0 0 0 3.2-.056z"/><path d="M11.744 29.769a5 5 0 0 1-.034-.227H9.873q-.236 0-.443-.054.011.14.028.28z"/><path d="M9.873 29.09h.004z"/><path d="M9.897 27.675a1 1 0 0 0-.375.065v-.002a1 1 0 0 1 .37-.063z"/><path d="M11.866 31.806h-1.837q.052.114.109.226h1.728c.128 0 .173-.038.183-.047a.07.07 0 0 0 .02-.055.1.1 0 0 0-.034-.074c-.018-.017-.064-.05-.17-.05"/><path d="m34.975 35.592.277.005h.054z"/><path d="M11.874 32.485c.904 0 .848-1.132 0-1.132h-.007c.844.001.9 1.132-.002 1.132z"/><path d="m14.985 37.235 9.522 9.196a6.79 6.79 0 0 0 9.6-.167l10.018-10.375c-.23.102-.465.16-.696.16h-2.604l-8.346 8.643a4.526 4.526 0 0 1-6.4.111l-8.102-7.824c-.496.315-1.097.5-1.744.5a3.3 3.3 0 0 1-1.248-.244"/><path d="m12.417 34.756.949.916a2.6 2.6 0 0 1-.205-.916z"/><path d="M13.163 34.374q.005-.155.026-.305h-1.483l.315.305z"/><path d="M24.072 22.58h3.596c.048 0 .044-.037.035-.055l-.551-1.251c-.022-.05-.024-.054-.084-.054h-2.397c-.06 0-.062.004-.084.054l-.551 1.25c-.008.02-.012.056.036.056"/><path fill-rule="evenodd" clip-rule="evenodd" d="M35.847 54.236a9.05 9.05 0 0 1-12.8.223L3.512 35.594a9.05 9.05 0 0 1-.224-12.8L22.153 3.26a9.05 9.05 0 0 1 12.8-.223L54.488 21.9a9.05 9.05 0 0 1 .224 12.8zm-1.684-4.772a6.79 6.79 0 0 1-9.6.167L8.331 33.956a1 1 0 0 1-.295-.18.84.84 0 0 1-.245-.395 6.79 6.79 0 0 1 .325-9.07l15.72-16.28a6.79 6.79 0 0 1 9.6-.167l16.28 15.72a6.79 6.79 0 0 1 1.055 8.463.882.882 0 0 1-.556 1.57h-.75l-.405.42h.264a.884.884 0 0 1 0 1.768h-1.97z"/><path fill-rule="evenodd" clip-rule="evenodd" d="M47.03 28.547a.566.566 0 0 0-.566-.566h-2.527c.288.117.547.317.758.525.123.09.4.442.524.607h1.245a.566.566 0 0 0 .566-.566"/><path fill-rule="evenodd" clip-rule="evenodd" d="M45.143 31.15H43.22l2.3-1.132.07.275a.726.726 0 0 1-.447.856m3.999-.567a.566.566 0 0 1-.566.566h-2l-.037-1.131h2.037c.312 0 .566.253.566.565"/><path fill-rule="evenodd" clip-rule="evenodd" d="M46.501 32.167h.416a.566.566 0 1 1 0 1.131h-.522l-.083-.133c.178-.275.22-.714.19-.998"/><path d="M48.351 32.733c0-.313.254-.566.566-.566h1.297a.566.566 0 1 1 0 1.131h-1.297a.566.566 0 0 1-.566-.565"/><rect x="10.7604" y="23.0742" width="5.65772" height="1.13154" rx="0.565772"/><rect x="7.72701" y="25.3379" width="6.63839" height="1.13154" rx="0.565772"/><path fill-rule="evenodd" clip-rule="evenodd" d="M35.23 35.596h8.194c1.164 0 3.128-2.268 2.505-4.606l.006.043c-.497.367-1.074.622-1.72.622-1.868 0-1.868-1.245-.623-1.556.492-.123 1.13-.149 1.742-.174h.059c.016.001.032.002.06 0v.002l.002.001c-.391-.607-.997-1.196-1.879-1.726a9 9 0 0 0-.434-.245c-.283-.189-1.47-.566-3.956-.566-.847-1.414-4.238-4.527-8.193-4.527-1.79.095-6.046.227-8.758 0-3.39-.283-7.064 3.113-7.63 4.81H9.822c-.282 0-.76.075-.799.797-.021.299.18.618.78.618h4.521c1.13 0 1.13 1.132 0 1.132H8.39c-.546 0-.983.002-1.04.504 0 .417.122.627 1.04.627h3.41c.847 0 .904 1.132 0 1.132H8.974c-.789 0-.848.283-.848.566s.092.566.848.566h4.323c.454-1.052 1.58-1.796 2.898-1.796 1.718 0 3.112 1.266 3.112 2.829q0 .35-.09.676l8.71.147a2.6 2.6 0 0 1-.134-.823c0-1.563 1.393-2.83 3.112-2.83s3.112 1.267 3.112 2.83c0 .323-.06.634-.17.924zm-18.186-8.604c.66-1.094 2.715-3.282 5.657-3.282s4.998 2.188 5.658 3.282zm20.367.113c-3.168-3.532-8.486-3.63-10.75-3.237 1.359 0 3.207 2.158 3.961 3.237zm-19.356 2.1a.08.08 0 0 0-.078.078v.856c0 .043.035.078.078.078h1.098v.933c0 .043.035.078.078.078h1.02a.08.08 0 0 0 .077-.078v-.933h1.176v.933c0 .043.035.078.078.078h1.02a.08.08 0 0 0 .078-.078v-.933h1.175v.933c0 .043.035.078.078.078h1.02a.08.08 0 0 0 .078-.078v-.933h1.175v.933c0 .043.035.078.078.078h1.02a.08.08 0 0 0 .078-.078v-.933h1.098a.08.08 0 0 0 .077-.078v-.856a.08.08 0 0 0-.077-.078h-1.02a.08.08 0 0 0-.078.078v.934h-1.176v-.934a.08.08 0 0 0-.078-.078h-1.02a.08.08 0 0 0-.077.078v.934h-1.176v-.934a.08.08 0 0 0-.078-.078h-1.02a.08.08 0 0 0-.078.078v.934h-1.175v-.934a.08.08 0 0 0-.078-.078h-1.02a.08.08 0 0 0-.078.078v.934h-1.175v-.934a.08.08 0 0 0-.078-.078zm2.348 2.016a.08.08 0 0 0-.078.078v.855c0 .043.035.078.078.078h1.02a.08.08 0 0 0 .078-.078v-.933zm2.273 0h1.176v.933a.08.08 0 0 1-.078.078h-1.02a.08.08 0 0 1-.078-.078zm3.45 0h-1.099v.933c0 .043.035.078.078.078h1.02a.08.08 0 0 0 .078-.078V31.3a.08.08 0 0 0-.078-.078m7.79-1.491c.492.761 1.624 2 3.003 2 1.867 0 1.867-1.245.623-1.556-.493-.123-1.13-.148-1.742-.173l-.073-.003c-.874-.035-1.679-.067-1.9-.399l.022.03.022.03c.254.273 1.148.341 2.02.408.512.038 1.015.077 1.378.155 1.026.223 1.058 1.24-.469 1.289-1.137.036-2.423-1.147-2.884-1.781"/><path d="m45.802 30.604-.001-.006-.002-.007-.001-.004v-.003l-.001-.002v-.002a6 6 0 0 0-.193-.4l-.084-.166-.11.006-.143.008c-.521.02-1.065.043-1.485.15-1.06.268-1.06 1.345.53 1.345a2.2 2.2 0 0 0 1.07-.29c.566-.23.502-.402.444-.56l-.013-.041-.003-.01z"/><path fill-rule="evenodd" clip-rule="evenodd" d="M18.83 34.649c0 1.323-1.18 2.396-2.635 2.396-1.456 0-2.636-1.073-2.636-2.396 0-1.324 1.18-2.396 2.636-2.396 1.455 0 2.635 1.072 2.635 2.396m-1.168 0c0 .736-.657 1.333-1.467 1.333s-1.467-.597-1.467-1.333c0-.737.657-1.334 1.467-1.334s1.467.597 1.467 1.334"/><path fill-rule="evenodd" clip-rule="evenodd" d="M33.54 34.649c0 1.323-1.18 2.396-2.635 2.396-1.456 0-2.636-1.073-2.636-2.396 0-1.324 1.18-2.396 2.636-2.396 1.455 0 2.635 1.072 2.635 2.396m-1.168 0c0 .736-.657 1.333-1.467 1.333s-1.467-.597-1.467-1.333c0-.737.657-1.334 1.467-1.334s1.467.597 1.467 1.334"/><path fill-rule="evenodd" clip-rule="evenodd" d="M10.934 35.887h2.433c-.062-.042-.115-.309-.153-.592a10 10 0 0 1-.055-.54h-2.225z"/><path d="M13.385 35.887h-.018c-.062-.042-.115-.309-.153-.592l.153.377z"/><path d="M13.385 35.887h-.018c-.062-.042-.115-.309-.153-.592l.153.377z"/><path d="M13.385 35.887h-.018c-.062-.042-.115-.309-.153-.592l.153.377z"/><path d="M13.385 35.887h-.018c-.062-.042-.115-.309-.153-.592l.153.377z"/><path fill-rule="evenodd" clip-rule="evenodd" d="m13.367 35.672.018.215h.07z"/><path fill-rule="evenodd" clip-rule="evenodd" d="M10.934 35.887v-1.132c-.15 0-.325.1-.391.301a1 1 0 0 0-.025.239c0 .641.416.592.416.592"/><path fill-rule="evenodd" clip-rule="evenodd" d="M49.89 34.92a.566.566 0 0 0-.566-.566h-3.502c-.126.275-.385.593-.634.837a3 3 0 0 1-.346.295h4.482a.566.566 0 0 0 .566-.566"/><path d="M45.188 35.19c.249-.243.508-.56.634-.835h-.038a9 9 0 0 1-.596.836"/><path d="M45.188 35.19a9 9 0 0 0 .596-.835c-.239.34-.769 1.043-.98 1.131h.038c.1-.07.222-.173.346-.295"/></symbol><use xlink:href="#sprite-logo-footer" width="58" height="57" y="220"/><view id="sprite-logo-footer-view" viewBox="0 220 58 57"/><symbol id="sprite-people-outline" viewBox="0 0 40 40"><path d="M28.673 19.153a7.23 7.23 0 0 0 3.731-5.967 7 7 0 0 0 .019-.498 6.02 6.02 0 0 0-6.17-6.188 5.99 5.99 0 0 0-6.176 6.183 8 8 0 0 0 .02.512 7.8 7.8 0 0 0 .38 1.926 6.395 6.395 0 0 0 5.703 4.627l.076.002a5.3 5.3 0 0 0 2.388-.581zm-.951-1.759a5.23 5.23 0 0 0 2.685-4.318l.002-.023a5 5 0 0 0 .014-.381v-.03A4.02 4.02 0 0 0 26.281 8.5h-.069a3.99 3.99 0 0 0-4.135 4.129v.035a6 6 0 0 0 .014.39v.002a5.8 5.8 0 0 0 .29 1.451l.015.05a4.395 4.395 0 0 0 3.885 3.193 3.3 3.3 0 0 0 1.44-.356" fill-rule="evenodd"/><path d="M15.952 33.5H36.56a1.963 1.963 0 0 0 1.939-2.036 2.2 2.2 0 0 0-.064-.5l-.013-.047a11.36 11.36 0 0 0-10.697-8.102 17 17 0 0 0-1.455-.065 13.04 13.04 0 0 0-10.478 4.61l-.035.043a9.8 9.8 0 0 0-1.693 3.56 2.2 2.2 0 0 0-.065.504A1.963 1.963 0 0 0 15.94 33.5zm.048-2h20.5v-.01l-.003-.032a9.36 9.36 0 0 0-8.835-6.643l-.079-.004a15 15 0 0 0-1.333-.061h-.042a11.04 11.04 0 0 0-8.87 3.88 7.8 7.8 0 0 0-1.331 2.813l-.001.004a.2.2 0 0 0-.006.045z" fill-rule="evenodd"/><path d="M12.792 19.855a5.9 5.9 0 0 0 3.831-5.272 6 6 0 0 0 .015-.4A5.056 5.056 0 0 0 11.488 9a5.03 5.03 0 0 0-5.157 5.18 6 6 0 0 0 .015.417 6.5 6.5 0 0 0 .168 1.075 5.46 5.46 0 0 0 4.884 4.387l.089.003a4.3 4.3 0 0 0 1.247-.188zm-.671-1.885a3.9 3.9 0 0 0 2.505-3.484l.002-.032a4 4 0 0 0 .01-.284v-.029A3.056 3.056 0 0 0 11.508 11h-.055a3.03 3.03 0 0 0-3.123 3.13v.033a4 4 0 0 0 .011.292 4.5 4.5 0 0 0 .12.762l.012.053a3.46 3.46 0 0 0 3.052 2.792 2.3 2.3 0 0 0 .596-.092" fill-rule="evenodd"/><path d="M3.553 29h8.478a1 1 0 0 1 0 2H3.248a1.77 1.77 0 0 1-1.749-1.831 2 2 0 0 1 .058-.445 8 8 0 0 1 .404-1.215l.03-.065a9.99 9.99 0 0 1 9.514-5.433 11.9 11.9 0 0 1 4.985.977 1 1 0 0 1-.793 1.836 9.9 9.9 0 0 0-4.188-.813 1 1 0 0 1-.09-.001 7.99 7.99 0 0 0-7.63 4.31 6 6 0 0 0-.236.68"/></symbol><use xlink:href="#sprite-people-outline" width="40" height="40" y="277"/><view id="sprite-people-outline-view" viewBox="0 277 40 40"/><symbol id="sprite-phone" viewBox="0 0 30 30"><path d="m27.05 20.433-4.233-.483a3.32 3.32 0 0 0-2.734.95l-3.066 3.067A25.1 25.1 0 0 1 6.033 12.983L9.117 9.9a3.32 3.32 0 0 0 .95-2.733l-.484-4.2A3.333 3.333 0 0 0 6.267.017H3.383C1.5.017-.067 1.583.05 3.467.933 17.7 12.317 29.067 26.533 29.95c1.884.117 3.45-1.45 3.45-3.333v-2.884c.017-1.683-1.25-3.1-2.933-3.3"/></symbol><use xlink:href="#sprite-phone" width="30" height="30" y="317"/><view id="sprite-phone-view" viewBox="0 317 30 30"/><symbol id="sprite-rocket" viewBox="0 0 40 40"><path d="M2.751 23.85a2 2 0 0 1 .022-.242v-.003a17 17 0 0 1 .316-1.482 15 15 0 0 1 1.025-2.788l.002-.004a12 12 0 0 1 .657-1.169 9.1 9.1 0 0 1 3.986-3.513l.035-.015a9.7 9.7 0 0 1 3.852-.717 15 15 0 0 1 .722.02 24 24 0 0 1 2.362-2.725 21 21 0 0 1 .356-.347l.016-.015a31.9 31.9 0 0 1 8.855-5.726 35 35 0 0 1 2.43-.97 27 27 0 0 1 3.875-1.081 15.5 15.5 0 0 1 2.894-.31h.011a10 10 0 0 1 .678.023 7 7 0 0 1 1.206.18 1.34 1.34 0 0 1 .654.37 1.34 1.34 0 0 1 .35.652 7 7 0 0 1 .105.565v.004a9.4 9.4 0 0 1 .09 1.344 13 13 0 0 1-.036.945l-.001.009a19.6 19.6 0 0 1-.585 3.375 31 31 0 0 1-1.662 4.729 35 35 0 0 1-1.408 2.841 29 29 0 0 1-4.76 6.473l-.007.007a24 24 0 0 1-2.736 2.366 15 15 0 0 1 .017.68 9.7 9.7 0 0 1-.72 3.875l-.01.023a8 8 0 0 1-.508.98l-.011.02a9.85 9.85 0 0 1-4.187 3.665 14.7 14.7 0 0 1-2.644.98 16 16 0 0 1-1.615.345 2 2 0 0 1-.235.022h-.036a1.7 1.7 0 0 1-.5-.075 1.7 1.7 0 0 1-.668-.388h-.001a1.7 1.7 0 0 1-.535-1.24l.002-.078.007-.094v-.008l.579-5.27a15 15 0 0 1-.417-.04 2.42 2.42 0 0 1-1.47-.704l-2.449-2.448a2.42 2.42 0 0 1-.703-1.47 15 15 0 0 1-.041-.425l-5.275.579h-.007l-.102.008-.072.002a1.7 1.7 0 0 1-.594-.107 1.7 1.7 0 0 1-.645-.428 1.7 1.7 0 0 1-.39-.67m1.991-.837 5.934-.651a1 1 0 0 1 1.11.985 13 13 0 0 0 .08 1.327v.011a.42.42 0 0 0 .122.256l.005.004 2.452 2.452.004.004a.42.42 0 0 0 .256.122l.01.001a13 13 0 0 0 1.32.08 1 1 0 0 1 .985 1.11l-.65 5.928a14 14 0 0 0 1.031-.236h.004a12.7 12.7 0 0 0 2.294-.85l.017-.01a7.85 7.85 0 0 0 3.338-2.914 6 6 0 0 0 .377-.728 7.7 7.7 0 0 0 .567-3.076v-.02a13 13 0 0 0-.049-1.09 1 1 0 0 1 .42-.906 22 22 0 0 0 2.926-2.469 27 27 0 0 0 4.432-6.028l.004-.008a33 33 0 0 0 1.332-2.687l.002-.003a29 29 0 0 0 1.555-4.426v-.002a17.6 17.6 0 0 0 .526-3.028 11 11 0 0 0 .03-.795v-.003a7.4 7.4 0 0 0-.07-1.059v-.002a5 5 0 0 0-.463-.05h-.005a8 8 0 0 0-.537-.018 13.5 13.5 0 0 0-2.516.27h-.004a25 25 0 0 0-3.591 1.001l-.004.002a33 33 0 0 0-2.295.917l-.01.004a29.9 29.9 0 0 0-8.297 5.362 19 19 0 0 0-.315.308l-.003.003a22 22 0 0 0-2.473 2.92 1 1 0 0 1-.908.419 13 13 0 0 0-1.125-.053h-.02a7.7 7.7 0 0 0-3.045.561 7.1 7.1 0 0 0-3.097 2.74l-.01.014a10 10 0 0 0-.55.979 13 13 0 0 0-.887 2.413v.004a15 15 0 0 0-.209.915m20.875-4.872a4.33 4.33 0 0 1-3.065-1.272 4.34 4.34 0 0 1-1.187-2.22 4.3 4.3 0 0 1-.081-.705l-.003-.14a4.3 4.3 0 0 1 .33-1.66 4.34 4.34 0 0 1 1.597-1.946 4.34 4.34 0 0 1 2.41-.73 4.34 4.34 0 0 1 2.408.73 4.34 4.34 0 0 1 1.597 1.946 4.3 4.3 0 0 1 .33 1.66l-.002.14a4.3 4.3 0 0 1-.081.706 4.34 4.34 0 0 1-1.187 2.22 4.3 4.3 0 0 1-1.405.94M23.4 14.79a2.34 2.34 0 0 0 .64 1.196 2.33 2.33 0 0 0 1.651.685 2.33 2.33 0 0 0 1.651-.685h.001a2.34 2.34 0 0 0 .64-1.197 2.3 2.3 0 0 0 .043-.38l.001-.075a2.3 2.3 0 0 0-.177-.894 2.34 2.34 0 0 0-2.159-1.442 2.34 2.34 0 0 0-1.297.393 2.34 2.34 0 0 0-.86 1.049 2.3 2.3 0 0 0-.179.894l.002.074a2.3 2.3 0 0 0 .043.382" fill-rule="evenodd"/><path d="M8.444 26.507A4.52 4.52 0 0 0 5.8 27.795l-.049.053a4.6 4.6 0 0 0-.947 1.743 13 13 0 0 0-.444 1.823 26 26 0 0 0-.298 2.443 27 27 0 0 0-.055.931L4 34.971A1 1 0 0 0 5.03 36l.312-.013a29 29 0 0 0 1.23-.085 24 24 0 0 0 2.004-.26 10.2 10.2 0 0 0 2.694-.797l.023-.011a3.5 3.5 0 0 0 .892-.618l.017-.016a4.5 4.5 0 0 0 1.29-2.65 1 1 0 0 0-1.985-.238 2.5 2.5 0 0 1-.708 1.462 1.5 1.5 0 0 1-.368.255 8.2 8.2 0 0 1-2.161.636l-.024.004a22 22 0 0 1-1.85.24h-.004l-.33.029a24 24 0 0 1 .27-2.188v-.003a11 11 0 0 1 .38-1.557l.01-.034a2.6 2.6 0 0 1 .517-.97 2.52 2.52 0 0 1 1.448-.693 1 1 0 0 0-.243-1.986"/></symbol><use xlink:href="#sprite-rocket" width="40" height="40" y="347"/><view id="sprite-rocket-view" viewBox="0 347 40 40"/><symbol id="sprite-wallet-outline" viewBox="0 0 40 40"><path d="M32.5 10.25h-25A4.75 4.75 0 0 0 2.75 15v15a4.75 4.75 0 0 0 4.75 4.75h25A4.75 4.75 0 0 0 37.25 30V15a4.75 4.75 0 0 0-4.75-4.75m0 2h-25A2.75 2.75 0 0 0 4.75 15v15a2.75 2.75 0 0 0 2.75 2.75h25A2.75 2.75 0 0 0 35.25 30V15a2.75 2.75 0 0 0-2.75-2.75" fill-rule="evenodd"/><path d="M31.138 11.25V8.906a2.9 2.9 0 0 0-1.054-2.238 2.9 2.9 0 0 0-1.13-.576 3 3 0 0 0-.723-.091h-.03a3 3 0 0 0-.514.051l-.019.004-20.565 3.51a2.906 2.906 0 0 0-2.353 2.853v3.831a1 1 0 0 1-2 0v-3.831a4.906 4.906 0 0 1 3.988-4.82l.019-.003 20.566-3.51A5 5 0 0 1 28.18 4h.051a5 5 0 0 1 1.22.154 4.9 4.9 0 0 1 1.907.972 4.9 4.9 0 0 1 1.78 3.779v2.344a1 1 0 0 1-2 0"/><path d="M28.75 25a2.5 2.5 0 1 1 0-5 2.5 2.5 0 0 1 0 5"/></symbol><use xlink:href="#sprite-wallet-outline" width="40" height="40" y="387"/><view id="sprite-wallet-outline-view" viewBox="0 387 40 40"/></svg>