<svg aria-hidden="true" xmlns="http://www.w3.org/2000/svg" xmlns:xlink="http://www.w3.org/1999/xlink"><symbol viewBox="0 0 57 8" fill="none" id="arrow-right" xmlns="http://www.w3.org/2000/svg">
<path d="M56.8536 4.35355C57.0488 4.15829 57.0488 3.84171 56.8536 3.64645L53.6716 0.464466C53.4763 0.269204 53.1597 0.269204 52.9645 0.464466C52.7692 0.659728 52.7692 0.976311 52.9645 1.17157L55.7929 4L52.9645 6.82843C52.7692 7.02369 52.7692 7.34027 52.9645 7.53553C53.1597 7.7308 53.4763 7.7308 53.6716 7.53553L56.8536 4.35355ZM0.5 4.5H56.5V3.5H0.5V4.5Z" fill="currentColor"/>
</symbol><symbol viewBox="0 0 24 24" fill="none" id="book" xmlns="http://www.w3.org/2000/svg">
<path d="M2 3H8C9.06087 3 10.0783 3.42143 10.8284 4.17157C11.5786 4.92172 12 5.93913 12 7V21C12 20.2044 11.6839 19.4413 11.1213 18.8787C10.5587 18.3161 9.79565 18 9 18H2V3Z" stroke="currentColor" stroke-width="2" stroke-linecap="round" stroke-linejoin="round"/>
<path d="M22 3H16C14.9391 3 13.9217 3.42143 13.1716 4.17157C12.4214 4.92172 12 5.93913 12 7V21C12 20.2044 12.3161 19.4413 12.8787 18.8787C13.4413 18.3161 14.2044 18 15 18H22V3Z" stroke="currentColor" stroke-width="2" stroke-linecap="round" stroke-linejoin="round"/>
</symbol><symbol viewBox="0 0 18 20" fill="none" id="calculator" xmlns="http://www.w3.org/2000/svg">
<path d="M4.5 9.25H13.5C13.6989 9.25 13.8897 9.17098 14.0303 9.03033C14.171 8.88968 14.25 8.69891 14.25 8.5V4C14.25 3.80109 14.171 3.61032 14.0303 3.46967C13.8897 3.32902 13.6989 3.25 13.5 3.25H4.5C4.30109 3.25 4.11032 3.32902 3.96967 3.46967C3.82902 3.61032 3.75 3.80109 3.75 4V8.5C3.75 8.69891 3.82902 8.88968 3.96967 9.03033C4.11032 9.17098 4.30109 9.25 4.5 9.25ZM5.25 4.75H12.75V7.75H5.25V4.75ZM15.75 0.25H2.25C1.85218 0.25 1.47064 0.408035 1.18934 0.68934C0.908035 0.970644 0.75 1.35218 0.75 1.75V18.25C0.75 18.6478 0.908035 19.0294 1.18934 19.3107C1.47064 19.592 1.85218 19.75 2.25 19.75H15.75C16.1478 19.75 16.5294 19.592 16.8107 19.3107C17.092 19.0294 17.25 18.6478 17.25 18.25V1.75C17.25 1.35218 17.092 0.970644 16.8107 0.68934C16.5294 0.408035 16.1478 0.25 15.75 0.25ZM15.75 18.25H2.25V1.75H15.75V18.25ZM6.375 11.875C6.375 12.0975 6.30902 12.315 6.1854 12.5C6.06179 12.685 5.88609 12.8292 5.68052 12.9144C5.47495 12.9995 5.24875 13.0218 5.03052 12.9784C4.81229 12.935 4.61184 12.8278 4.4545 12.6705C4.29717 12.5132 4.19002 12.3127 4.14662 12.0945C4.10321 11.8762 4.12549 11.65 4.21064 11.4445C4.29578 11.2389 4.43998 11.0632 4.62498 10.9396C4.80999 10.816 5.0275 10.75 5.25 10.75C5.54837 10.75 5.83452 10.8685 6.0455 11.0795C6.25647 11.2905 6.375 11.5766 6.375 11.875ZM10.125 11.875C10.125 12.0975 10.059 12.315 9.9354 12.5C9.81179 12.685 9.63608 12.8292 9.43052 12.9144C9.22495 12.9995 8.99875 13.0218 8.78052 12.9784C8.56229 12.935 8.36184 12.8278 8.2045 12.6705C8.04717 12.5132 7.94002 12.3127 7.89662 12.0945C7.85321 11.8762 7.87549 11.65 7.96064 11.4445C8.04578 11.2389 8.18998 11.0632 8.37498 10.9396C8.55999 10.816 8.7775 10.75 9 10.75C9.29837 10.75 9.58452 10.8685 9.79549 11.0795C10.0065 11.2905 10.125 11.5766 10.125 11.875ZM13.875 11.875C13.875 12.0975 13.809 12.315 13.6854 12.5C13.5618 12.685 13.3861 12.8292 13.1805 12.9144C12.975 12.9995 12.7488 13.0218 12.5305 12.9784C12.3123 12.935 12.1118 12.8278 11.9545 12.6705C11.7972 12.5132 11.69 12.3127 11.6466 12.0945C11.6032 11.8762 11.6255 11.65 11.7106 11.4445C11.7958 11.2389 11.94 11.0632 12.125 10.9396C12.31 10.816 12.5275 10.75 12.75 10.75C13.0484 10.75 13.3345 10.8685 13.5455 11.0795C13.7565 11.2905 13.875 11.5766 13.875 11.875ZM6.375 15.625C6.375 15.8475 6.30902 16.065 6.1854 16.25C6.06179 16.435 5.88609 16.5792 5.68052 16.6644C5.47495 16.7495 5.24875 16.7718 5.03052 16.7284C4.81229 16.685 4.61184 16.5778 4.4545 16.4205C4.29717 16.2632 4.19002 16.0627 4.14662 15.8445C4.10321 15.6262 4.12549 15.4 4.21064 15.1945C4.29578 14.9889 4.43998 14.8132 4.62498 14.6896C4.80999 14.566 5.0275 14.5 5.25 14.5C5.54837 14.5 5.83452 14.6185 6.0455 14.8295C6.25647 15.0405 6.375 15.3266 6.375 15.625ZM10.125 15.625C10.125 15.8475 10.059 16.065 9.9354 16.25C9.81179 16.435 9.63608 16.5792 9.43052 16.6644C9.22495 16.7495 8.99875 16.7718 8.78052 16.7284C8.56229 16.685 8.36184 16.5778 8.2045 16.4205C8.04717 16.2632 7.94002 16.0627 7.89662 15.8445C7.85321 15.6262 7.87549 15.4 7.96064 15.1945C8.04578 14.9889 8.18998 14.8132 8.37498 14.6896C8.55999 14.566 8.7775 14.5 9 14.5C9.29837 14.5 9.58452 14.6185 9.79549 14.8295C10.0065 15.0405 10.125 15.3266 10.125 15.625ZM13.875 15.625C13.875 15.8475 13.809 16.065 13.6854 16.25C13.5618 16.435 13.3861 16.5792 13.1805 16.6644C12.975 16.7495 12.7488 16.7718 12.5305 16.7284C12.3123 16.685 12.1118 16.5778 11.9545 16.4205C11.7972 16.2632 11.69 16.0627 11.6466 15.8445C11.6032 15.6262 11.6255 15.4 11.7106 15.1945C11.7958 14.9889 11.94 14.8132 12.125 14.6896C12.31 14.566 12.5275 14.5 12.75 14.5C13.0484 14.5 13.3345 14.6185 13.5455 14.8295C13.7565 15.0405 13.875 15.3266 13.875 15.625Z" fill="currentColor"/>
</symbol><symbol viewBox="0 0 48 48" fill="none" id="facebook" xmlns="http://www.w3.org/2000/svg">
<path fill-rule="evenodd" clip-rule="evenodd" d="M24 48C37.2548 48 48 37.2546 48 24C48 10.7454 37.2548 0 24 0C10.7452 0 0 10.7454 0 24C0 37.2546 10.7452 48 24 48ZM31.5 12.1509H27.0419C26.4108 12.1509 25.9099 12.6519 25.9099 13.2832V17.4609H31.4599L30.939 23.6118H25.9099V41.5049H18.6366V23.6118H15V17.4609H18.6366V11.9509C18.6366 8.66455 21.3015 6 24.5874 6H31.5V12.1509Z" fill="currentColor"/>
</symbol><symbol viewBox="0 0 24 24" fill="none" id="globe" xmlns="http://www.w3.org/2000/svg">
<path d="M12.002 22C17.5248 22 22.002 17.5228 22.002 12C22.002 6.47715 17.5248 2 12.002 2C6.47911 2 2.00195 6.47715 2.00195 12C2.00195 17.5228 6.47911 22 12.002 22Z" stroke="currentColor" stroke-width="2" stroke-linecap="round" stroke-linejoin="round"/>
<path d="M2.00195 12H22.002" stroke="currentColor" stroke-width="2" stroke-linecap="round" stroke-linejoin="round"/>
<path d="M12.002 2C14.5032 4.73835 15.9247 8.29203 16.002 12C15.9247 15.708 14.5032 19.2616 12.002 22C9.50067 19.2616 8.0792 15.708 8.00195 12C8.0792 8.29203 9.50067 4.73835 12.002 2Z" stroke="currentColor" stroke-width="2" stroke-linecap="round" stroke-linejoin="round"/>
</symbol><symbol viewBox="0 0 24 24" fill="none" id="home" xmlns="http://www.w3.org/2000/svg">
<path d="M3 9L12 2L21 9V20C21 20.5304 20.7893 21.0391 20.4142 21.4142C20.0391 21.7893 19.5304 22 19 22H5C4.46957 22 3.96086 21.7893 3.58579 21.4142C3.21071 21.0391 3 20.5304 3 20V9Z" stroke="currentColor" stroke-width="2" stroke-linecap="round" stroke-linejoin="round"/>
<path d="M9 22V12H15V22" stroke="currentColor" stroke-width="2" stroke-linecap="round" stroke-linejoin="round"/>
</symbol><symbol viewBox="0 0 48 48" fill="none" id="instagram" xmlns="http://www.w3.org/2000/svg">
<path d="M25.6246 0.0491333C37.8032 0.0491333 47.7676 10.0135 47.7676 22.1921V25.6518C47.7676 37.8304 37.8032 47.7947 25.6246 47.7947H22.1649C9.98631 47.7947 0.0219727 37.8304 0.0219727 25.6518V22.1921C0.0219727 10.0135 9.98631 0.0491333 22.1649 0.0491333H25.6246ZM24.33 12.0495L24.022 12.0491C21.4566 12.0491 18.8913 12.1339 18.8913 12.1339C15.1443 12.1339 12.1068 15.1715 12.1068 18.9184C12.1068 18.9184 12.0289 21.1212 12.0224 23.4856L12.022 23.7947C12.022 26.442 12.1068 29.1799 12.1068 29.1799C12.1068 32.9268 15.1443 35.9643 18.8913 35.9643C18.8913 35.9643 21.2898 36.0491 23.7676 36.0491C26.4149 36.0491 29.2375 35.9643 29.2375 35.9643C32.9845 35.9643 35.9372 33.0117 35.9372 29.2647C35.9372 29.2647 36.022 26.5577 36.022 23.9644L36.0204 23.3558C36.0089 21.029 35.9371 18.8336 35.9371 18.8336C35.9371 15.0866 32.9844 12.1339 29.2375 12.1339C29.2375 12.1339 26.7951 12.0558 24.33 12.0495ZM24.022 14.2091C26.1256 14.2091 28.8228 14.2786 28.8228 14.2786C31.8953 14.2786 33.7924 16.1757 33.7924 19.2482C33.7924 19.2482 33.862 21.8994 33.862 23.9795C33.862 26.106 33.7924 28.8499 33.7924 28.8499C33.7924 31.9224 31.8953 33.8195 28.8228 33.8195C28.8228 33.8195 26.4376 33.8779 24.368 33.8877L23.8134 33.889C21.7816 33.889 19.3059 33.8195 19.3059 33.8195C16.2334 33.8195 14.2515 31.8375 14.2515 28.7651C14.2515 28.7651 14.182 26.0112 14.182 23.8405C14.182 21.8087 14.2515 19.2482 14.2515 19.2482C14.2515 16.1757 16.2335 14.2786 19.3059 14.2786C19.3059 14.2786 21.9183 14.2091 24.022 14.2091ZM24.0219 17.902C20.627 17.902 17.8749 20.6541 17.8749 24.0491C17.8749 27.444 20.627 30.1961 24.0219 30.1961C27.4169 30.1961 30.169 27.444 30.169 24.0491C30.169 20.6541 27.4169 17.902 24.0219 17.902ZM24.0219 20.049C26.2311 20.049 28.0219 21.8399 28.0219 24.0491C28.0219 26.2582 26.2311 28.0491 24.0219 28.0491C21.8128 28.0491 20.0219 26.2582 20.0219 24.0491C20.0219 21.8399 21.8128 20.049 24.0219 20.049ZM30.4631 16.1962C29.6428 16.1962 28.9778 16.8645 28.9778 17.6888C28.9778 18.5132 29.6428 19.1814 30.4631 19.1814C31.2834 19.1814 31.9484 18.5132 31.9484 17.6888C31.9484 16.8644 31.2834 16.1962 30.4631 16.1962Z" fill="currentColor"/>
</symbol><symbol viewBox="0 0 24 24" fill="none" id="lock" xmlns="http://www.w3.org/2000/svg">
<path d="M19 11H5C3.89543 11 3 11.8954 3 13V20C3 21.1046 3.89543 22 5 22H19C20.1046 22 21 21.1046 21 20V13C21 11.8954 20.1046 11 19 11Z" stroke="currentColor" stroke-width="2" stroke-linecap="round" stroke-linejoin="round"/>
<path d="M7 11V7C7 5.67392 7.52678 4.40215 8.46447 3.46447C9.40215 2.52678 10.6739 2 12 2C13.3261 2 14.5979 2.52678 15.5355 3.46447C16.4732 4.40215 17 5.67392 17 7V11" stroke="currentColor" stroke-width="2" stroke-linecap="round" stroke-linejoin="round"/>
</symbol><symbol viewBox="0 0 11 7" fill="none" id="shevron" xmlns="http://www.w3.org/2000/svg">
<path d="M1.00195 1L5.50195 6L10.002 1" stroke="currentColor" stroke-width="1.5" stroke-linecap="round" stroke-linejoin="round"/>
</symbol><symbol viewBox="0 0 46 46" fill="none" id="telegram" xmlns="http://www.w3.org/2000/svg">
<path d="M32.1829 14.06C32.1919 14.06 32.2039 14.06 32.2159 14.06C32.5294 14.06 32.8204 14.1575 33.0589 14.3255L33.0544 14.3225C33.2284 14.474 33.3454 14.687 33.3739 14.927V14.9315C33.4039 15.1145 33.4204 15.3245 33.4204 15.539C33.4204 15.6365 33.4174 15.7325 33.4099 15.8285V15.815C33.0724 19.3685 31.6084 27.986 30.8644 31.964C30.5494 33.6485 29.9299 34.2125 29.3299 34.2665C28.0264 34.388 27.0364 33.4055 25.7734 32.5775C23.7964 31.28 22.6789 30.473 20.7604 29.2085C18.5419 27.749 19.9804 26.9435 21.2434 25.6325C21.5749 25.2875 27.3214 20.06 27.4339 19.586C27.4399 19.5575 27.4429 19.526 27.4429 19.493C27.4429 19.376 27.3994 19.2695 27.3289 19.1885C27.2509 19.1375 27.1534 19.109 27.0514 19.109C26.9839 19.109 26.9194 19.1225 26.8594 19.145L26.8624 19.1435C26.6644 19.1885 23.5064 21.2755 17.3884 25.4045C16.7209 25.931 15.8779 26.264 14.9599 26.303H14.9509C13.6504 26.1455 12.4699 25.856 11.3494 25.4435L11.4604 25.4795C10.0534 25.0205 8.93592 24.779 9.03192 24.002C9.08292 23.598 9.63992 23.1845 10.7029 22.7615C17.2509 19.9085 21.6174 18.028 23.8024 17.12C26.2129 15.8405 29.0074 14.7875 31.9459 14.105L32.1814 14.0585L32.1829 14.06ZM22.8949 0.537476C10.4419 0.567476 0.357422 10.67 0.357422 23.1275C0.357422 35.603 10.4704 45.7175 22.9474 45.7175C35.4244 45.7175 45.5374 35.6045 45.5374 23.1275C45.5374 10.67 35.4529 0.567476 23.0029 0.537476H22.9999C22.9649 0.537476 22.9299 0.537476 22.8949 0.537476Z" fill="currentColor"/>
</symbol><symbol viewBox="0 0 24 24" fill="none" id="user" xmlns="http://www.w3.org/2000/svg">
<path d="M20.002 21V19C20.002 17.9391 19.5805 16.9217 18.8304 16.1716C18.0802 15.4214 17.0628 15 16.002 15H8.00195C6.94109 15 5.92367 15.4214 5.17353 16.1716C4.42338 16.9217 4.00195 17.9391 4.00195 19V21" stroke="currentColor" stroke-width="2" stroke-linecap="round" stroke-linejoin="round"/>
<path d="M12.002 11C14.2111 11 16.002 9.20914 16.002 7C16.002 4.79086 14.2111 3 12.002 3C9.79281 3 8.00195 4.79086 8.00195 7C8.00195 9.20914 9.79281 11 12.002 11Z" stroke="currentColor" stroke-width="2" stroke-linecap="round" stroke-linejoin="round"/>
</symbol><symbol viewBox="0 0 48 48" fill="none" id="youtube" xmlns="http://www.w3.org/2000/svg">
<path d="M21.2564 28.1057L28.0141 24.4021C28.3234 24.232 28.3698 23.799 28.0683 23.6211L21.2641 19.7242C20.9703 19.5619 20.6997 19.7706 20.6997 20.1108V27.7191C20.6997 28.0515 20.9626 28.268 21.2564 28.1057Z" fill="currentColor"/>
<path fill-rule="evenodd" clip-rule="evenodd" d="M24 48C37.2548 48 48 37.2548 48 24C48 10.7452 37.2548 0 24 0C10.7452 0 0 10.7452 0 24C0 37.2548 10.7452 48 24 48ZM16.6018 13.5H30.8054C35.1662 13.5 38.7074 17.0335 38.6997 21.4021V26.5979C38.6997 30.9665 35.1585 34.5 30.7976 34.5H16.6018C12.2409 34.5 8.69971 30.9588 8.69971 26.5979V21.4021C8.69971 17.0335 12.2409 13.5 16.6018 13.5Z" fill="currentColor"/>
</symbol></svg>