<svg width="144" height="54" viewBox="0 0 144 54" fill="none" xmlns="http://www.w3.org/2000/svg">
<rect x="1" y="1" width="142" height="52" rx="5" fill="white" stroke="#E8E8E8" stroke-width="2"/>
<path d="M51.8 17.07V16.13H46.75V23H51.8V22.06H47.77V19.97H51.41V19.03H47.77V17.07H51.8ZM57.6184 23L55.6484 20.35L57.5284 17.83H56.4284L55.0984 19.61L53.7784 17.83H52.6584L54.5484 20.36L52.5784 23H53.6784L55.0984 21.1L56.5084 23H57.6184ZM61.465 17.71C60.665 17.71 60.025 18.09 59.625 18.72V17.83H58.645V24.72H59.625V22.1C60.025 22.74 60.665 23.12 61.465 23.12C62.825 23.12 63.845 22 63.845 20.41C63.845 18.83 62.825 17.71 61.465 17.71ZM61.225 22.26C60.295 22.26 59.625 21.49 59.625 20.41C59.625 19.33 60.295 18.57 61.225 18.57C62.175 18.57 62.845 19.33 62.845 20.41C62.845 21.49 62.175 22.26 61.225 22.26ZM65.0403 23H66.0203V16.01H65.0403V23ZM69.9122 23.12C71.3822 23.12 72.6222 21.88 72.6222 20.41C72.6222 18.94 71.3822 17.71 69.9122 17.71C68.4322 17.71 67.1822 18.94 67.1822 20.41C67.1822 21.88 68.4322 23.12 69.9122 23.12ZM69.9122 22.26C68.9622 22.26 68.1722 21.42 68.1722 20.41C68.1722 19.41 68.9622 18.57 69.9122 18.57C70.8422 18.57 71.6322 19.41 71.6322 20.41C71.6322 21.42 70.8422 22.26 69.9122 22.26ZM74.8205 18.82V17.83H73.8305V23H74.8205V20.06C74.9105 19.16 75.6705 18.57 76.7405 18.57V17.71C75.8505 17.71 75.1505 18.14 74.8205 18.82ZM80.0763 22.24C79.1863 22.24 78.5563 21.62 78.4263 20.76H82.4963C82.4963 18.91 81.5863 17.71 80.0063 17.71C78.5763 17.71 77.4263 18.85 77.4263 20.4C77.4263 21.99 78.6463 23.12 80.0863 23.12C80.8163 23.12 81.7163 22.81 82.1763 22.32L81.5563 21.68C81.2463 22 80.6163 22.24 80.0763 22.24ZM80.0463 18.59C80.9363 18.59 81.4263 19.17 81.5363 19.97H78.4363C78.5963 19.13 79.2463 18.59 80.0463 18.59ZM86.5452 23H87.5552V16.13H86.5452V23ZM91.4545 22.07C91.3445 22.18 91.1445 22.26 90.9245 22.26C90.6345 22.26 90.3945 22 90.3945 21.64V18.67H91.6145V17.83H90.3945V16.41H89.4245V17.83H88.6445V18.67H89.4245V21.71C89.4245 22.54 89.9845 23.12 90.7845 23.12C91.1545 23.12 91.5345 22.98 91.8145 22.75L91.4545 22.07ZM99.0148 23.12C100.945 23.12 102.565 21.49 102.565 19.56C102.565 17.63 100.945 16.01 99.0148 16.01C97.0848 16.01 95.4448 17.63 95.4448 19.56C95.4448 21.49 97.0848 23.12 99.0148 23.12ZM99.0148 22.19C97.6448 22.19 96.4848 20.99 96.4848 19.56C96.4848 18.14 97.6448 16.94 99.0148 16.94C100.385 16.94 101.535 18.14 101.535 19.56C101.535 20.99 100.385 22.19 99.0148 22.19ZM106.401 17.71C105.701 17.71 105.071 18.07 104.761 18.58V17.83H103.771V23H104.761V19.65C104.841 19.04 105.461 18.57 106.181 18.57C106.881 18.57 107.371 19.11 107.371 19.88V23H108.341V19.71C108.341 18.54 107.541 17.71 106.401 17.71Z" fill="#282828"/>
<path d="M54.008 36H56.332L52.412 26.382H50.102L46.182 36H48.492L49.108 34.488H53.392L54.008 36ZM49.822 32.738L51.25 29.224L52.678 32.738H49.822ZM61.8757 28.594C60.8677 28.594 60.0277 29.028 59.4537 29.77V28.762H57.4097V38.408H59.4537V34.978C60.0277 35.734 60.8677 36.168 61.8757 36.168C63.8077 36.168 65.2077 34.6 65.2077 32.374C65.2077 30.162 63.8077 28.594 61.8757 28.594ZM61.2877 34.446C60.2937 34.446 59.5657 33.718 59.4537 32.654V32.094C59.5657 31.044 60.2937 30.316 61.2877 30.316C62.4217 30.316 63.2197 31.17 63.2197 32.374C63.2197 33.592 62.4217 34.446 61.2877 34.446ZM71.1179 28.594C70.1099 28.594 69.2699 29.028 68.6959 29.77V28.762H66.6519V38.408H68.6959V34.978C69.2699 35.734 70.1099 36.168 71.1179 36.168C73.0499 36.168 74.4499 34.6 74.4499 32.374C74.4499 30.162 73.0499 28.594 71.1179 28.594ZM70.5299 34.446C69.5359 34.446 68.8079 33.718 68.6959 32.654V32.094C68.8079 31.044 69.5359 30.316 70.5299 30.316C71.6639 30.316 72.4619 31.17 72.4619 32.374C72.4619 33.592 71.6639 34.446 70.5299 34.446ZM84.2702 32.206H86.5102V33.676C85.9642 34.068 85.2922 34.292 84.6342 34.292C82.9962 34.292 81.6102 32.864 81.6102 31.184C81.6102 29.518 82.9962 28.09 84.6342 28.09C85.5162 28.09 86.4542 28.51 87.0282 29.168L88.5262 27.824C87.5602 26.816 86.0762 26.214 84.6342 26.214C81.8482 26.214 79.4822 28.482 79.4822 31.184C79.4822 33.886 81.8482 36.168 84.6342 36.168C86.0762 36.168 87.5602 35.566 88.5262 34.558V30.596H84.2702V32.206ZM93.4425 28.594C92.4345 28.594 91.4405 28.874 90.4185 29.392L91.1045 30.75C91.6785 30.456 92.3085 30.232 92.9805 30.232C94.1705 30.232 94.6465 30.904 94.6465 31.674V31.814C94.0305 31.576 93.3865 31.45 92.7985 31.45C91.1185 31.45 89.7885 32.43 89.7885 33.858C89.7885 35.244 90.9785 36.168 92.5185 36.168C93.3025 36.168 94.1285 35.86 94.6465 35.272V36H96.6205V31.674C96.6205 29.784 95.3325 28.594 93.4425 28.594ZM92.9805 34.754C92.2805 34.754 91.7625 34.39 91.7625 33.802C91.7625 33.214 92.3505 32.78 93.0925 32.78C93.6525 32.78 94.1845 32.878 94.6465 33.046V33.718C94.5065 34.39 93.7645 34.754 92.9805 34.754ZM98.3433 36H100.387V26.214H98.3433V36ZM102.171 36H104.215V26.214H102.171V36ZM109.416 34.362C108.562 34.362 107.932 33.83 107.694 33.046H112.916C112.916 30.316 111.586 28.594 109.318 28.594C107.204 28.594 105.594 30.176 105.594 32.36C105.594 34.586 107.274 36.168 109.43 36.168C110.494 36.168 111.74 35.72 112.384 35.048L111.082 33.718C110.69 34.096 109.99 34.362 109.416 34.362ZM109.402 30.4C110.228 30.4 110.76 30.862 110.956 31.576H107.722C107.988 30.848 108.632 30.4 109.402 30.4ZM116.342 30.106V28.762H114.298V36H116.342V32.542C116.342 31.184 117.308 30.316 118.82 30.316V28.594C117.714 28.594 116.818 29.168 116.342 30.106ZM121.652 38.52C122.786 38.52 123.71 37.778 124.256 36.364L127.224 28.762H125.138L123.332 33.844L121.428 28.762H119.314L122.324 36.07L122.072 36.602C121.918 36.868 121.61 36.994 121.218 36.994C120.98 36.994 120.616 36.868 120.266 36.672L119.832 38.072C120.322 38.338 121.05 38.52 121.652 38.52Z" fill="#282828"/>
<path fill-rule="evenodd" clip-rule="evenodd" d="M34.2059 13.9999H23.1275C17.9088 13.9999 16 15.9087 16 21.1274V32.206C16 37.4245 17.9088 39.3333 23.1275 39.3333H34.2024C39.4211 39.3333 41.3333 37.4245 41.3333 32.206V21.1274C41.3333 15.9087 39.4245 13.9999 34.2059 13.9999Z" fill="#C91C2E"/>
<path d="M27.0523 28.6922H28.0683L27.5587 27.5071L27.0523 28.6922ZM26.8021 29.2896L26.5008 29.9792H25.8147L27.2739 26.6688H27.8667L29.32 29.9792H28.6155L28.3179 29.2896H26.8021ZM37.8429 29.9769H38.5061V26.6688H37.8429V29.9769ZM35.2037 28.5554H36.4259V27.9526H35.2037V27.2745H36.9779V26.6709H34.5408V29.9788H37.0419V29.3755H35.2037V28.5554ZM32.5688 28.9463L31.8168 26.6687H31.2685L30.5165 28.9463L29.7848 26.6703H29.0696L30.224 29.9807H30.7803L31.5333 27.8062L32.2861 29.9807H32.8475L33.9989 26.6703H33.3021L32.5688 28.9463ZM24.8024 28.5646C24.8024 29.1031 24.5349 29.3908 24.0493 29.3908C23.5611 29.3908 23.2923 29.095 23.2923 28.5416V26.6707H22.6203V28.5646C22.6203 29.4963 23.1379 30.0305 24.0403 30.0305C24.9515 30.0305 25.4741 29.4861 25.4741 28.5372V26.6687H24.8024V28.5646ZM21.0168 26.6688H21.6885V29.9809H21.0168V28.6359H19.4992V29.9809H18.8272V26.6688H19.4992V28.005H21.0168V26.6688Z" fill="white"/>
<path d="M28.6666 22.4517C26.3416 22.4517 24.4498 20.5599 24.4498 18.2348H25.0456C25.0456 20.2315 26.6698 21.856 28.6666 21.856C30.6634 21.856 32.2877 20.2315 32.2877 18.2348H32.8834C32.8834 20.5599 30.9917 22.4517 28.6666 22.4517Z" fill="white"/>
</svg>
