<svg aria-hidden="true" xmlns="http://www.w3.org/2000/svg" xmlns:xlink="http://www.w3.org/1999/xlink"><symbol viewBox="0 0 1434 1024" id="icon-check" xmlns="http://www.w3.org/2000/svg">
<g id="aicomoon-ignore">
</g>
<path d="M552.561 950.227c-13.442 0.028-26.756-2.6-39.18-7.731s-23.712-12.665-33.217-22.17l-434.381-434.483c-9.787-9.439-17.595-20.733-22.971-33.222-5.375-12.49-8.21-25.925-8.337-39.521s2.454-27.082 7.594-39.67c5.14-12.588 12.735-24.027 22.343-33.648s21.035-17.233 33.616-22.391 26.063-7.758 39.66-7.65c13.597 0.109 27.035 2.924 39.532 8.282s23.802 13.15 33.255 22.923l361.984 361.984 651.776-651.571c19.2-19.214 45.251-30.014 72.407-30.024 27.167-0.010 53.228 10.772 72.438 29.973s30.013 45.248 30.024 72.412c0.010 27.164-10.772 53.218-29.972 72.433l-724.173 724.173c-9.505 9.505-20.793 17.038-33.217 22.17s-25.739 7.759-39.18 7.731z"/>
</symbol><symbol viewBox="0 0 32 32" id="icon-database" xmlns="http://www.w3.org/2000/svg">
<path d="M16 0c-8.837 0-16 2.239-16 5v4c0 2.761 7.163 5 16 5s16-2.239 16-5v-4c0-2.761-7.163-5-16-5z"/>
<path d="M16 17c-8.837 0-16-2.239-16-5v6c0 2.761 7.163 5 16 5s16-2.239 16-5v-6c0 2.761-7.163 5-16 5z"/>
<path d="M16 26c-8.837 0-16-2.239-16-5v6c0 2.761 7.163 5 16 5s16-2.239 16-5v-6c0 2.761-7.163 5-16 5z"/>
</symbol><symbol viewBox="0 0 32 32" id="icon-location" xmlns="http://www.w3.org/2000/svg">
<path d="M16 0c-8.837 0-16 7.163-16 16s7.163 16 16 16 16-7.163 16-16-7.163-16-16-16zM3 16c0-7.18 5.82-13 13-13 3.424 0 6.538 1.325 8.86 3.488l-12.86 5.512-5.512 12.86c-2.164-2.322-3.488-5.436-3.488-8.86zM18.286 18.286l-8.003 3.43 3.43-8.003 4.573 4.573zM16 29c-3.424 0-6.539-1.325-8.86-3.488l12.86-5.512 5.512-12.86c2.164 2.322 3.488 5.436 3.488 8.86 0 7.18-5.82 13-13 13z"/>
</symbol><symbol viewBox="0 0 28 28" id="icon-telegram" xmlns="http://www.w3.org/2000/svg">
<path d="M18.578 20.422l2.297-10.828c0.203-0.953-0.344-1.328-0.969-1.094l-13.5 5.203c-0.922 0.359-0.906 0.875-0.156 1.109l3.453 1.078 8.016-5.047c0.375-0.25 0.719-0.109 0.438 0.141l-6.484 5.859-0.25 3.563c0.359 0 0.516-0.156 0.703-0.344l1.687-1.625 3.5 2.578c0.641 0.359 1.094 0.172 1.266-0.594zM28 14c0 7.734-6.266 14-14 14s-14-6.266-14-14 6.266-14 14-14 14 6.266 14 14z"/>
</symbol><symbol viewBox="0 0 36 32" id="icon-users" xmlns="http://www.w3.org/2000/svg">
<path d="M24 24.082v-1.649c2.203-1.241 4-4.337 4-7.432 0-4.971 0-9-6-9s-6 4.029-6 9c0 3.096 1.797 6.191 4 7.432v1.649c-6.784 0.555-12 3.888-12 7.918h28c0-4.030-5.216-7.364-12-7.918z"/>
<path d="M10.225 24.854c1.728-1.13 3.877-1.989 6.243-2.513-0.47-0.556-0.897-1.176-1.265-1.844-0.95-1.726-1.453-3.627-1.453-5.497 0-2.689 0-5.228 0.956-7.305 0.928-2.016 2.598-3.265 4.976-3.734-0.529-2.39-1.936-3.961-5.682-3.961-6 0-6 4.029-6 9 0 3.096 1.797 6.191 4 7.432v1.649c-6.784 0.555-12 3.888-12 7.918h8.719c0.454-0.403 0.956-0.787 1.506-1.146z"/>
</symbol></svg>