<svg aria-hidden="true" xmlns="http://www.w3.org/2000/svg" xmlns:xlink="http://www.w3.org/1999/xlink"><symbol viewBox="0 0 32 32" id="icon-attention" xmlns="http://www.w3.org/2000/svg">
<path fill="none" stroke-linejoin="round" stroke-linecap="round" stroke-miterlimit="4" stroke-width="2.4889" stroke="currentColor" d="M15.465 12.035v5.543M15.465 23.121h-0.014"/>
<path fill="none" stroke-linejoin="round" stroke-linecap="round" stroke-miterlimit="4" stroke-width="2.4889" stroke="currentColor" d="M2.149 24.643l11.397-19.686c0.63-1.088 0.945-1.632 1.356-1.815 0.358-0.159 0.768-0.159 1.126 0 0.411 0.183 0.726 0.727 1.356 1.815l11.397 19.686c0.632 1.092 0.948 1.638 0.901 2.086-0.041 0.391-0.245 0.746-0.563 0.977-0.364 0.265-0.995 0.265-2.257 0.265h-22.795c-1.262 0-1.893 0-2.257-0.265-0.318-0.231-0.523-0.586-0.563-0.977-0.047-0.448 0.269-0.994 0.902-2.086z"/>
</symbol><symbol viewBox="0 0 1084 1024" id="icon-bascket-cash" xmlns="http://www.w3.org/2000/svg">
<g id="abicomoon-ignore">
</g>
<path fill="none" stroke-linejoin="round" stroke-linecap="round" stroke-miterlimit="4" stroke-width="84.3294" stroke="currentColor" d="M260.176 755.477h524.63c46.026 0 69.036 0 87.787-8.162 16.535-7.198 30.69-18.793 40.858-33.473 11.535-16.649 15.649-38.876 23.883-83.317l65.44-353.297c2.855-15.405 4.283-23.107 2.078-29.121-1.934-5.277-5.704-9.712-10.65-12.524-5.632-3.205-13.607-3.205-29.557-3.205h-777.138M42.162 42.162h63.775c11.757 0 17.636 0 22.39 2.108 4.191 1.858 7.756 4.848 10.279 8.622 2.863 4.281 3.78 9.981 5.613 21.381l135.008 839.311c1.834 11.397 2.75 17.101 5.613 21.378 2.523 3.777 6.089 6.764 10.279 8.626 4.754 2.108 10.633 2.108 22.39 2.108h548.235"/>
</symbol><symbol viewBox="0 0 1024 1024" id="icon-basket" xmlns="http://www.w3.org/2000/svg">
<g id="acicomoon-ignore">
</g>
<path fill="none" stroke-linejoin="round" stroke-linecap="round" stroke-miterlimit="4" stroke-width="79.6444" stroke="currentColor" d="M343.185 39.833h303.408M39.778 191.537h910.221M848.862 191.537l-35.459 531.936c-5.319 79.809-7.982 119.717-25.219 149.97-15.178 26.641-38.064 48.054-65.655 61.423-31.334 15.189-71.327 15.189-151.313 15.189h-152.651c-79.986 0-119.979 0-151.315-15.189-27.589-13.369-50.479-34.782-65.655-61.423-17.237-30.254-19.897-70.161-25.218-149.97l-35.462-531.936M393.753 419.092v252.839M596.025 419.092v252.839"/>
</symbol><symbol viewBox="0 0 904 1024" id="icon-calendar" xmlns="http://www.w3.org/2000/svg">
<g id="adicomoon-ignore">
</g>
<path fill="none" stroke-linejoin="round" stroke-linecap="round" stroke-miterlimit="4" stroke-width="84.3294" stroke="currentColor" d="M313.177 629.459h271.059M855.293 313.221h-813.175M629.411 42.162v135.529M268 42.162v135.529M258.965 945.688h379.481c75.902 0 113.857 0 142.848-14.77 25.504-12.993 46.237-33.726 59.229-59.229 14.77-28.991 14.77-66.939 14.77-142.842v-379.485c0-75.904 0-113.856-14.77-142.847-12.993-25.501-33.726-46.235-59.229-59.228-28.991-14.772-66.946-14.772-142.848-14.772h-379.481c-75.904 0-113.856 0-142.847 14.772-25.501 12.993-46.235 33.727-59.229 59.228-14.772 28.991-14.772 66.943-14.772 142.847v379.485c0 75.902 0 113.851 14.772 142.842 12.994 25.504 33.727 46.237 59.229 59.229 28.991 14.77 66.943 14.77 142.847 14.77z"/>
</symbol><symbol viewBox="0 0 32 32" id="icon-car" xmlns="http://www.w3.org/2000/svg">
<path fill="none" stroke-linejoin="round" stroke-linecap="round" stroke-miterlimit="4" stroke-width="2.4889" stroke="currentColor" d="M6.667 17.333h4M2.667 12l2.667 1.333 1.694-5.083c0.35-1.049 0.525-1.574 0.849-1.961 0.286-0.342 0.654-0.608 1.070-0.771 0.47-0.185 1.023-0.185 2.129-0.185h9.85c1.106 0 1.659 0 2.129 0.185 0.415 0.163 0.783 0.428 1.070 0.771 0.324 0.388 0.499 0.912 0.849 1.961l1.694 5.083 2.667-1.333M21.333 17.333h4M9.067 13.333h13.867c2.24 0 3.36 0 4.216 0.436 0.753 0.383 1.364 0.995 1.748 1.748 0.436 0.856 0.436 1.976 0.436 4.216v3.6c0 0.62 0 0.929-0.051 1.187-0.21 1.058-1.037 1.885-2.095 2.095-0.258 0.051-0.567 0.051-1.187 0.051h-0.667c-1.473 0-2.667-1.194-2.667-2.667 0-0.368-0.299-0.667-0.667-0.667h-12c-0.368 0-0.667 0.299-0.667 0.667 0 1.473-1.194 2.667-2.667 2.667h-0.667c-0.62 0-0.929 0-1.187-0.051-1.058-0.21-1.885-1.037-2.095-2.095-0.051-0.258-0.051-0.567-0.051-1.187v-3.6c0-2.24 0-3.36 0.436-4.216 0.384-0.753 0.995-1.365 1.748-1.748 0.856-0.436 1.976-0.436 4.216-0.436z"/>
</symbol><symbol viewBox="0 0 27 32" id="icon-checked-deffense" xmlns="http://www.w3.org/2000/svg">
<path fill="none" stroke-linejoin="round" stroke-linecap="round" stroke-miterlimit="4" stroke-width="2.4889" stroke="currentColor" d="M8.652 15.218l2.963 2.963 6.667-6.667M24.948 15.959c0 7.272-7.932 12.561-10.818 14.244-0.328 0.191-0.492 0.287-0.723 0.337-0.18 0.039-0.442 0.039-0.621 0-0.231-0.050-0.395-0.145-0.723-0.337-2.886-1.684-10.818-6.973-10.818-14.244v-7.085c0-1.184 0-1.777 0.194-2.286 0.171-0.45 0.449-0.851 0.81-1.169 0.409-0.36 0.963-0.568 2.072-0.984l7.943-2.979c0.308-0.115 0.462-0.173 0.62-0.196 0.14-0.020 0.283-0.020 0.424 0 0.158 0.023 0.312 0.081 0.62 0.196l7.943 2.979c1.109 0.416 1.663 0.624 2.072 0.984 0.361 0.318 0.639 0.719 0.81 1.169 0.194 0.509 0.194 1.101 0.194 2.286v7.085z"/>
</symbol><symbol viewBox="0 0 32 32" id="icon-dashboard" xmlns="http://www.w3.org/2000/svg">
<path fill="none" stroke-linejoin="miter" stroke-linecap="butt" stroke-miterlimit="4" stroke-width="2.4889" stroke="currentColor" d="M6.667 5.333h18.667c0.736 0 1.333 0.597 1.333 1.333v2.667c0 0.736-0.597 1.333-1.333 1.333h-18.667c-0.736 0-1.333-0.597-1.333-1.333v-2.667c0-0.736 0.597-1.333 1.333-1.333z"/>
<path fill="none" stroke-linejoin="miter" stroke-linecap="butt" stroke-miterlimit="4" stroke-width="2.4889" stroke="currentColor" d="M6.667 16h8c0.736 0 1.333 0.597 1.333 1.333v8c0 0.736-0.597 1.333-1.333 1.333h-8c-0.736 0-1.333-0.597-1.333-1.333v-8c0-0.736 0.597-1.333 1.333-1.333z"/>
<path fill="none" stroke-linejoin="miter" stroke-linecap="butt" stroke-miterlimit="4" stroke-width="2.4889" stroke="currentColor" d="M22.667 16h2.667c0.736 0 1.333 0.597 1.333 1.333v8c0 0.736-0.597 1.333-1.333 1.333h-2.667c-0.736 0-1.333-0.597-1.333-1.333v-8c0-0.736 0.597-1.333 1.333-1.333z"/>
</symbol><symbol viewBox="0 0 1024 1024" id="icon-dont-go" xmlns="http://www.w3.org/2000/svg">
<g id="ahicomoon-ignore">
</g>
<path fill="none" stroke-linejoin="round" stroke-linecap="round" stroke-miterlimit="4" stroke-width="89.6" stroke="currentColor" d="M474.833 225.779l430.236-167.898c25.786-10.062 38.682-15.093 46.918-12.341 7.155 2.39 12.768 8.005 15.162 15.159 2.752 8.238-2.285 21.13-12.346 46.915l-168.435 431.615M717.165 716.557l-78.697 201.67c-11.146 28.563-16.72 42.842-24.732 47.002-6.945 3.61-15.213 3.603-22.154-0.013-8.006-4.166-13.563-18.458-24.676-47.034l-126.149-324.384c-2.256-5.801-3.384-8.701-5.126-11.144-1.544-2.164-3.437-4.058-5.602-5.601-2.442-1.742-5.343-2.87-11.143-5.126l-324.385-126.149c-28.577-11.113-42.865-16.669-47.036-24.676-3.616-6.941-3.621-15.209-0.013-22.154 4.162-8.012 18.444-13.585 47.008-24.732l201.836-78.765M938.63 938.054l-863.997-864.003"/>
</symbol><symbol viewBox="0 0 1024 1024" id="icon-driver-on" xmlns="http://www.w3.org/2000/svg">
<g id="aiicomoon-ignore">
</g>
<path fill="none" stroke-linejoin="round" stroke-linecap="round" stroke-miterlimit="4" stroke-width="84.3294" stroke="currentColor" d="M48.765 852.010c21.194-76.246 91.123-132.198 174.122-132.198h316.235c41.983 0 62.974 0 80.428 3.47 71.686 14.258 127.723 70.295 141.981 141.981 3.476 17.456 3.476 38.448 3.476 80.432M689.803 234.254c45.556 32.809 75.21 86.306 75.21 146.731 0 56.436-25.871 106.829-66.397 139.968M942.291 805.027c-14.264-71.686-70.301-127.723-141.981-141.981M584.309 380.985c0 99.801-80.905 180.706-180.706 180.706s-180.706-80.904-180.706-180.706c0-99.801 80.905-180.706 180.706-180.706s180.706 80.905 180.706 180.706z"/>
<path fill="none" stroke-linejoin="miter" stroke-linecap="butt" stroke-miterlimit="4" stroke-width="84.3294" stroke="currentColor" d="M174.694 42.162h638.494c73.187 0 132.518 59.33 132.518 132.518v638.494c0 73.187-59.33 132.518-132.518 132.518h-638.494c-73.187 0-132.518-59.33-132.518-132.518v-638.494c0-73.187 59.33-132.518 132.518-132.518z"/>
</symbol><symbol viewBox="0 0 32 32" id="icon-energe" xmlns="http://www.w3.org/2000/svg">
<path fill="none" stroke-linejoin="round" stroke-linecap="round" stroke-miterlimit="4" stroke-width="2.4889" stroke="currentColor" d="M17.91 2.667l-11.875 14.25c-0.465 0.558-0.698 0.837-0.701 1.073-0.003 0.205 0.088 0.4 0.248 0.529 0.183 0.148 0.547 0.148 1.273 0.148h9.723l-1.333 10.667 11.875-14.251c0.465-0.558 0.698-0.837 0.701-1.073 0.003-0.205-0.088-0.4-0.248-0.529-0.183-0.148-0.546-0.148-1.273-0.148h-9.723l1.333-10.667z"/>
</symbol><symbol viewBox="0 0 1024 1024" id="icon-general-statistics" xmlns="http://www.w3.org/2000/svg">
<g id="akicomoon-ignore">
</g>
<path fill="none" stroke-linejoin="round" stroke-linecap="round" stroke-miterlimit="4" stroke-width="84.3294" stroke="currentColor" d="M471.353 177.695h19.624c137.662 0 206.493 0 232.623 24.725 22.588 21.372 32.599 52.856 26.498 83.347-7.054 35.274-63.247 75.022-175.639 154.518l-183.623 129.879c-112.391 79.498-168.586 119.247-175.641 154.521-6.098 30.491 3.912 61.97 26.498 83.342 26.129 24.727 94.96 24.727 232.624 24.727h42.213M313.236 177.695c0 74.851-60.679 135.529-135.529 135.529s-135.53-60.679-135.53-135.529c0-74.851 60.678-135.529 135.53-135.529s135.529 60.679 135.529 135.529zM945.706 810.165c0 74.854-60.681 135.529-135.529 135.529s-135.529-60.675-135.529-135.529c0-74.848 60.681-135.529 135.529-135.529s135.529 60.681 135.529 135.529z"/>
</symbol><symbol viewBox="0 0 1024 1024" id="icon-income" xmlns="http://www.w3.org/2000/svg">
<g id="alicomoon-ignore">
</g>
<path fill="none" stroke-linejoin="round" stroke-linecap="round" stroke-miterlimit="4" stroke-width="95.5733" stroke="currentColor" d="M739 610.983h0.512M47.8 150.183v716.803c0 56.552 45.846 102.4 102.4 102.4h716.8c56.552 0 102.4-45.848 102.4-102.4v-512.003c0-56.554-45.848-102.4-102.4-102.4h-716.8c-56.554 0-102.4-45.846-102.4-102.4zM47.8 150.183c0-56.554 45.846-102.4 102.4-102.4h614.4M764.6 610.983c0 14.139-11.462 25.6-25.6 25.6s-25.6-11.461-25.6-25.6c0-14.139 11.462-25.6 25.6-25.6s25.6 11.461 25.6 25.6z"/>
</symbol><symbol viewBox="0 0 32 32" id="icon-layout" xmlns="http://www.w3.org/2000/svg">
<path fill="none" stroke-linejoin="round" stroke-linecap="round" stroke-miterlimit="4" stroke-width="3.7333" stroke="currentColor" d="M10.756 1.867v26.667M21.423 1.867h-12.444c-2.489 0-3.734 0-4.684 0.484-0.836 0.426-1.516 1.106-1.942 1.942-0.484 0.951-0.484 2.195-0.484 4.684v12.444c0 2.489 0 3.734 0.484 4.684 0.426 0.836 1.106 1.516 1.942 1.942 0.951 0.485 2.195 0.485 4.684 0.485h12.444c2.489 0 3.734 0 4.684-0.485 0.836-0.426 1.516-1.106 1.942-1.942 0.485-0.951 0.485-2.195 0.485-4.684v-12.444c0-2.489 0-3.734-0.485-4.684-0.426-0.836-1.106-1.516-1.942-1.942-0.951-0.484-2.195-0.484-4.684-0.484z"/>
</symbol><symbol viewBox="0 0 32 32" id="icon-list" xmlns="http://www.w3.org/2000/svg">
<path fill="none" stroke-linejoin="round" stroke-linecap="round" stroke-miterlimit="4" stroke-width="2.4889" stroke="currentColor" d="M26.667 16.667v-7.6c0-2.24 0-3.36-0.436-4.216-0.384-0.753-0.996-1.365-1.748-1.748-0.856-0.436-1.976-0.436-4.216-0.436h-8.533c-2.24 0-3.36 0-4.216 0.436-0.753 0.384-1.365 0.995-1.748 1.748-0.436 0.856-0.436 1.976-0.436 4.216v13.867c0 2.24 0 3.36 0.436 4.216 0.383 0.753 0.995 1.365 1.748 1.748 0.856 0.436 1.976 0.436 4.216 0.436h4.267M18.667 14.667h-8M13.333 20h-2.667M21.333 9.333h-10.667M19.333 25.334l2.667 2.667 6-6"/>
</symbol><symbol viewBox="0 0 32 32" id="icon-location" xmlns="http://www.w3.org/2000/svg">
<path fill="none" stroke-linejoin="round" stroke-linecap="round" stroke-miterlimit="4" stroke-width="2.4889" stroke="currentColor" d="M6.667 19.049c-2.468 1.089-4 2.606-4 4.285 0 3.314 5.97 6 13.333 6s13.333-2.686 13.333-6c0-1.679-1.532-3.196-4-4.285M24 10.667c0 5.418-6 8-8 12-2-4-8-6.582-8-12 0-4.418 3.582-8 8-8s8 3.582 8 8zM17.333 10.667c0 0.736-0.597 1.333-1.333 1.333s-1.333-0.597-1.333-1.333c0-0.736 0.597-1.333 1.333-1.333s1.333 0.597 1.333 1.333z"/>
</symbol><symbol viewBox="0 0 1024 1024" id="icon-message" xmlns="http://www.w3.org/2000/svg">
<g id="apicomoon-ignore">
</g>
<path fill="none" stroke-linejoin="round" stroke-linecap="round" stroke-miterlimit="4" stroke-width="84.3294" stroke="currentColor" d="M242.902 318.255h250.981M242.902 493.941h401.568M242.902 795.118v117.23c0 26.75 0 40.123 5.483 46.99 4.768 5.975 11.999 9.451 19.642 9.445 8.788-0.012 19.231-8.367 40.117-25.076l119.741-95.792c24.461-19.564 36.691-29.353 50.31-36.31 12.083-6.174 24.945-10.686 38.236-13.414 14.982-3.072 30.644-3.072 61.969-3.072h126.305c84.341 0 126.506 0 158.72-16.414 28.335-14.438 51.375-37.472 65.807-65.807 16.414-32.214 16.414-74.385 16.414-158.72v-271.059c0-84.338 0-126.506-16.414-158.719-14.432-28.335-37.472-51.372-65.807-65.81-32.214-16.413-74.379-16.413-158.72-16.413h-421.646c-84.337 0-126.506 0-158.719 16.413-28.335 14.437-51.372 37.474-65.809 65.81-16.413 32.213-16.413 74.381-16.413 158.719v311.215c0 46.679 0 70.020 5.131 89.169 13.924 51.971 54.515 92.558 106.482 106.484 19.15 5.132 42.491 5.132 89.171 5.132z"/>
</symbol><symbol viewBox="0 0 32 32" id="icon-money" xmlns="http://www.w3.org/2000/svg">
<path fill="none" stroke-linejoin="round" stroke-linecap="round" stroke-miterlimit="4" stroke-width="2.8" stroke="currentColor" d="M17.542 10.293c-0.801 0.571-1.782 0.907-2.841 0.907-2.706 0-4.9-2.194-4.9-4.9s2.194-4.9 4.9-4.9c1.754 0 3.293 0.922 4.159 2.307M7 26.722h3.654c0.476 0 0.95 0.057 1.412 0.17l3.861 0.938c0.838 0.204 1.711 0.224 2.557 0.059l4.269-0.831c1.128-0.22 2.165-0.76 2.978-1.551l3.021-2.938c0.863-0.838 0.863-2.197 0-3.036-0.777-0.755-2.006-0.841-2.885-0.2l-3.52 2.568c-0.504 0.369-1.118 0.567-1.748 0.567h-1.236c1.22 0 2.208-0.961 2.208-2.147v-0.43c0-0.985-0.689-1.844-1.671-2.082l-3.34-0.812c-0.544-0.132-1.1-0.198-1.66-0.198-1.351 0-3.796 1.118-3.796 1.118l-4.105 1.716M26.6 7.7c0 2.706-2.194 4.9-4.9 4.9s-4.9-2.194-4.9-4.9c0-2.706 2.194-4.9 4.9-4.9s4.9 2.194 4.9 4.9zM1.4 19.040v8.12c0 0.784 0 1.176 0.153 1.475 0.134 0.264 0.348 0.478 0.612 0.612 0.299 0.152 0.692 0.153 1.476 0.153h1.12c0.784 0 1.176 0 1.476-0.153 0.263-0.134 0.478-0.348 0.612-0.612 0.153-0.299 0.153-0.691 0.153-1.475v-8.12c0-0.784 0-1.176-0.153-1.476-0.134-0.263-0.348-0.478-0.612-0.612-0.299-0.153-0.692-0.153-1.476-0.153h-1.12c-0.784 0-1.176 0-1.476 0.153-0.263 0.134-0.478 0.348-0.612 0.612-0.153 0.299-0.153 0.692-0.153 1.476z"/>
</symbol><symbol viewBox="0 0 32 32" id="icon-not-user" xmlns="http://www.w3.org/2000/svg">
<path fill="none" stroke-linejoin="round" stroke-linecap="round" stroke-miterlimit="4" stroke-width="2.6353" stroke="currentColor" d="M21.787 2.023l7.059 7.059M28.846 2.023l-7.059 7.059M29.551 15.435v7.341c0 2.372 0 3.558-0.462 4.464-0.406 0.797-1.054 1.445-1.851 1.851-0.906 0.462-2.092 0.462-4.464 0.462h-14.682c-2.372 0-3.558 0-4.464-0.462-0.797-0.406-1.445-1.054-1.851-1.851-0.462-0.906-0.462-2.092-0.462-4.464v-14.682c0-2.372 0-3.558 0.462-4.464 0.406-0.797 1.054-1.445 1.851-1.851 0.906-0.462 2.092-0.462 4.464-0.462h7.341M1.522 26.625c0.662-2.383 2.848-4.131 5.441-4.131h9.882c1.312 0 1.968 0 2.513 0.108 2.24 0.446 3.991 2.197 4.437 4.437 0.108 0.546 0.108 1.201 0.108 2.514M18.257 11.906c0 3.119-2.528 5.647-5.647 5.647s-5.647-2.528-5.647-5.647c0-3.119 2.528-5.647 5.647-5.647s5.647 2.528 5.647 5.647z"/>
</symbol><symbol viewBox="0 0 1024 1024" id="icon-pencil-edit" xmlns="http://www.w3.org/2000/svg">
<g id="asicomoon-ignore">
</g>
<path fill="none" stroke-linejoin="round" stroke-linecap="round" stroke-miterlimit="4" stroke-width="95.5733" stroke="currentColor" d="M508.532 924.392h460.8M47.733 924.392h85.737c25.046 0 37.569 0 49.354-2.826 10.448-2.505 20.437-6.649 29.599-12.261 10.334-6.335 19.189-15.189 36.899-32.898l643.21-643.213c42.421-42.415 42.421-111.185 0-153.6-42.414-42.415-111.179-42.415-153.6 0l-643.211 643.213c-17.71 17.708-26.565 26.563-32.898 36.898-5.614 9.161-9.752 19.149-12.26 29.6-2.829 11.783-2.829 24.31-2.829 49.357v85.729z"/>
</symbol><symbol viewBox="0 0 1024 1024" id="icon-plus" xmlns="http://www.w3.org/2000/svg">
<g id="aticomoon-ignore">
</g>
<path fill="none" stroke-linejoin="round" stroke-linecap="round" stroke-miterlimit="4" stroke-width="143.36" stroke="currentColor" d="M481.3 71.675v409.591M481.3 890.866v-409.6M71.7 481.275l409.601-0.009M890.9 481.275l-409.6-0.009"/>
</symbol><symbol viewBox="0 0 1024 1024" id="icon-search" xmlns="http://www.w3.org/2000/svg">
<g id="avicomoon-ignore">
</g>
<path fill="none" stroke-linejoin="round" stroke-linecap="round" stroke-miterlimit="4" stroke-width="95.5733" stroke="currentColor" d="M969.4 969.387l-179.193-179.2M918.2 482.983c0 240.357-194.847 435.203-435.2 435.203-240.355 0-435.2-194.847-435.2-435.203 0-240.354 194.846-435.2 435.2-435.2s435.2 194.846 435.2 435.2z"/>
</symbol><symbol viewBox="0 0 1161 1024" id="icon-search-two" xmlns="http://www.w3.org/2000/svg">
<g id="auicomoon-ignore">
</g>
<path fill="none" stroke-linejoin="round" stroke-linecap="round" stroke-miterlimit="4" stroke-width="95.5733" stroke="currentColor" d="M47.733 129.703c0-28.675 0-43.012 5.58-53.964 4.909-9.634 12.741-17.467 22.375-22.375 10.952-5.58 25.289-5.58 53.964-5.58h860.159c28.679 0 43.015 0 53.965 5.58 9.632 4.909 17.469 12.741 22.378 22.375 5.577 10.952 5.577 25.289 5.577 53.964v34.273c0 13.762 0 20.643-1.679 27.042-1.488 5.67-3.946 11.043-7.257 15.882-3.727 5.461-8.929 9.968-19.333 18.982l-327.462 283.802c-10.397 9.013-15.599 13.52-19.333 18.982-3.311 4.84-5.762 10.212-7.25 15.882-1.686 6.399-1.686 13.28-1.686 27.042v267.659c0 10.015 0 15.019-1.611 19.347-1.427 3.83-3.751 7.257-6.771 10.001-3.419 3.106-8.068 4.963-17.364 8.684l-174.080 69.632c-18.818 7.53-28.227 11.291-35.781 9.721-6.605-1.372-12.401-5.297-16.129-10.916-4.263-6.431-4.263-16.568-4.263-36.837v-337.291c0-13.763 0-20.644-1.682-27.042-1.49-5.67-3.943-11.042-7.252-15.882-3.734-5.461-8.934-9.968-19.334-18.982l-327.464-283.802c-10.4-9.013-15.6-13.52-19.334-18.982-3.309-4.839-5.762-10.212-7.252-15.882-1.682-6.399-1.682-13.28-1.682-27.042v-34.273z"/>
</symbol><symbol viewBox="0 0 32 32" id="icon-service" xmlns="http://www.w3.org/2000/svg">
<path fill="none" stroke-linejoin="round" stroke-linecap="round" stroke-miterlimit="4" stroke-width="2.4889" stroke="currentColor" d="M8 8l6 6M8 8h-4l-1.333-4 1.333-1.333 4 1.333v4zM25.679 3.655l-3.503 3.503c-0.528 0.528-0.792 0.792-0.891 1.096-0.087 0.268-0.087 0.556 0 0.824 0.099 0.304 0.363 0.568 0.891 1.096l0.316 0.316c0.528 0.528 0.792 0.792 1.096 0.891 0.268 0.087 0.556 0.087 0.824 0 0.304-0.099 0.568-0.363 1.096-0.891l3.277-3.277c0.353 0.859 0.548 1.8 0.548 2.786 0 4.050-3.283 7.333-7.333 7.333-0.488 0-0.965-0.048-1.427-0.139-0.648-0.128-0.972-0.192-1.169-0.172-0.209 0.021-0.312 0.052-0.497 0.151-0.174 0.093-0.349 0.268-0.698 0.617l-9.543 9.543c-1.105 1.105-2.895 1.105-4 0s-1.105-2.895 0-4l9.543-9.543c0.349-0.349 0.524-0.524 0.617-0.698 0.099-0.185 0.13-0.288 0.151-0.497 0.020-0.196-0.044-0.521-0.172-1.169-0.091-0.462-0.139-0.939-0.139-1.427 0-4.050 3.283-7.333 7.333-7.333 1.341 0 2.597 0.36 3.679 0.988zM16 20l7.333 7.333c1.105 1.105 2.895 1.105 4 0s1.105-2.895 0-4l-6.033-6.033c-0.427-0.040-0.844-0.117-1.246-0.228-0.519-0.142-1.088-0.039-1.468 0.341l-2.586 2.586z"/>
</symbol><symbol viewBox="0 0 32 32" id="icon-setting" xmlns="http://www.w3.org/2000/svg">
<path fill="none" stroke-linejoin="round" stroke-linecap="round" stroke-miterlimit="4" stroke-width="2.4889" stroke="currentColor" d="M16 20.267c2.356 0 4.267-1.91 4.267-4.267s-1.91-4.267-4.267-4.267c-2.356 0-4.267 1.91-4.267 4.267s1.91 4.267 4.267 4.267z"/>
<path fill="none" stroke-linejoin="round" stroke-linecap="round" stroke-miterlimit="4" stroke-width="2.4889" stroke="currentColor" d="M25.568 19.879c-0.172 0.39-0.223 0.823-0.147 1.242s0.276 0.807 0.574 1.111l0.078 0.078c0.24 0.24 0.431 0.525 0.561 0.839s0.197 0.65 0.197 0.99c0 0.34-0.067 0.676-0.197 0.99s-0.321 0.599-0.561 0.839c-0.24 0.24-0.526 0.431-0.839 0.561s-0.651 0.197-0.99 0.197c-0.34 0-0.676-0.067-0.99-0.197s-0.599-0.321-0.839-0.561l-0.078-0.078c-0.305-0.298-0.692-0.498-1.111-0.574s-0.852-0.025-1.242 0.147c-0.382 0.164-0.709 0.436-0.938 0.783s-0.353 0.753-0.355 1.169v0.22c0 0.686-0.272 1.343-0.757 1.828s-1.143 0.757-1.828 0.757-1.344-0.272-1.828-0.757c-0.485-0.485-0.757-1.143-0.757-1.828v-0.116c-0.010-0.428-0.149-0.843-0.398-1.191s-0.597-0.613-0.999-0.761c-0.39-0.172-0.823-0.223-1.242-0.147s-0.806 0.276-1.111 0.574l-0.078 0.078c-0.24 0.24-0.525 0.431-0.839 0.561s-0.65 0.197-0.99 0.197c-0.34 0-0.676-0.067-0.99-0.197s-0.599-0.321-0.839-0.561c-0.24-0.24-0.431-0.526-0.561-0.839s-0.197-0.651-0.197-0.99c0-0.34 0.067-0.676 0.197-0.99s0.321-0.599 0.561-0.839l0.078-0.078c0.298-0.305 0.498-0.692 0.574-1.111s0.025-0.852-0.147-1.242c-0.164-0.382-0.436-0.709-0.783-0.938s-0.753-0.353-1.169-0.355h-0.22c-0.686 0-1.344-0.272-1.828-0.757s-0.757-1.143-0.757-1.828 0.272-1.344 0.757-1.828c0.485-0.485 1.143-0.757 1.828-0.757h0.116c0.428-0.010 0.843-0.149 1.191-0.398s0.613-0.597 0.761-0.999c0.172-0.39 0.223-0.823 0.147-1.242s-0.276-0.806-0.574-1.111l-0.078-0.078c-0.24-0.24-0.431-0.525-0.561-0.839s-0.197-0.65-0.197-0.99c0-0.34 0.067-0.676 0.197-0.99s0.321-0.599 0.561-0.839c0.24-0.24 0.525-0.431 0.839-0.561s0.65-0.197 0.99-0.197c0.34 0 0.676 0.067 0.99 0.197s0.599 0.321 0.839 0.561l0.078 0.078c0.305 0.298 0.692 0.498 1.111 0.574s0.852 0.025 1.242-0.147h0.103c0.382-0.164 0.709-0.436 0.938-0.783s0.353-0.753 0.355-1.169v-0.22c0-0.686 0.272-1.344 0.757-1.828s1.143-0.757 1.828-0.757c0.686 0 1.344 0.272 1.828 0.757s0.757 1.143 0.757 1.828v0.116c0.002 0.416 0.125 0.823 0.355 1.169s0.556 0.619 0.938 0.783c0.39 0.172 0.823 0.223 1.242 0.147s0.807-0.276 1.111-0.574l0.078-0.078c0.24-0.24 0.525-0.431 0.839-0.561s0.65-0.197 0.99-0.197c0.34 0 0.676 0.067 0.99 0.197s0.599 0.321 0.839 0.561c0.24 0.24 0.431 0.525 0.561 0.839s0.197 0.65 0.197 0.99c0 0.34-0.067 0.676-0.197 0.99s-0.321 0.599-0.561 0.839l-0.078 0.078c-0.298 0.305-0.498 0.692-0.574 1.111s-0.025 0.852 0.147 1.242v0.103c0.164 0.382 0.436 0.709 0.783 0.938s0.753 0.353 1.169 0.355h0.22c0.686 0 1.343 0.272 1.828 0.757s0.757 1.143 0.757 1.828c0 0.686-0.272 1.344-0.757 1.828s-1.143 0.757-1.828 0.757h-0.116c-0.416 0.002-0.823 0.125-1.169 0.355s-0.619 0.556-0.783 0.938z"/>
</symbol><symbol viewBox="0 0 1280 1024" id="icon-settings-two" xmlns="http://www.w3.org/2000/svg">
<g id="ayicomoon-ignore">
</g>
<path fill="none" stroke-linejoin="round" stroke-linecap="round" stroke-miterlimit="4" stroke-width="119.4667" stroke="currentColor" d="M59.667 251.729h768M827.667 251.729c0 106.039 85.963 192 191.998 192 106.044 0 192-85.961 192-192s-85.956-192-192-192c-106.035 0-191.998 85.961-191.998 192zM443.667 763.729h767.998M443.667 763.729c0 106.039-85.961 192.004-192 192.004s-192-85.965-192-192.004c0-106.039 85.961-192 192-192s192 85.961 192 192z"/>
</symbol><symbol viewBox="0 0 32 32" id="icon-speed-limited" xmlns="http://www.w3.org/2000/svg">
<path fill="none" stroke-linejoin="round" stroke-linecap="round" stroke-miterlimit="4" stroke-width="2.4889" stroke="currentColor" d="M23.66 21.333c1.054-1.512 1.673-3.35 1.673-5.333 0-0.687-0.074-1.356-0.215-2M8.34 21.334c-1.054-1.512-1.673-3.35-1.673-5.333 0-5.155 4.179-9.333 9.333-9.333 0.563 0 1.114 0.050 1.649 0.145M22 10l-6 6M29.333 16c0 7.364-5.97 13.333-13.333 13.333s-13.333-5.97-13.333-13.333 5.97-13.333 13.333-13.333c7.364 0 13.333 5.97 13.333 13.333zM17.333 16c0 0.736-0.597 1.333-1.333 1.333s-1.333-0.597-1.333-1.333c0-0.736 0.597-1.333 1.333-1.333s1.333 0.597 1.333 1.333z"/>
</symbol><symbol viewBox="0 0 1024 1024" id="icon-square" xmlns="http://www.w3.org/2000/svg">
<g id="baicomoon-ignore">
</g>
<path fill="none" stroke-linejoin="round" stroke-linecap="round" stroke-miterlimit="4" stroke-width="89.6" stroke="currentColor" d="M284.75 44.801h-9.6c-80.648 0-120.972 0-151.775 15.695-27.095 13.806-49.124 35.835-62.93 62.93-15.695 30.803-15.695 71.127-15.695 151.775v9.6M284.75 940.8h-9.6c-80.648 0-120.972 0-151.775-15.693-27.095-13.805-49.124-35.834-62.93-62.931-15.695-30.803-15.695-71.13-15.695-151.776v-9.6M940.749 284.801v-9.6c0-80.648 0-120.972-15.693-151.775-13.805-27.095-35.834-49.124-62.931-62.93-30.803-15.695-71.13-15.695-151.776-15.695h-9.6M940.749 700.8v9.6c0 80.646 0 120.973-15.693 151.776-13.805 27.098-35.834 49.126-62.931 62.931-30.803 15.693-71.13 15.693-151.776 15.693h-9.6"/>
</symbol><symbol viewBox="0 0 1024 1024" id="icon-static-two" xmlns="http://www.w3.org/2000/svg">
<g id="bbicomoon-ignore">
</g>
<path fill="none" stroke-linejoin="round" stroke-linecap="round" stroke-miterlimit="4" stroke-width="95.5733" stroke="currentColor" d="M354.933 969.387h-225.28c-28.675 0-43.012 0-53.964-5.584-9.634-4.908-17.467-12.739-22.375-22.378-5.58-10.95-5.58-25.286-5.58-53.958v-757.763c0-28.675 0-43.012 5.58-53.964 4.909-9.634 12.741-17.467 22.375-22.375 10.952-5.58 25.289-5.58 53.964-5.58h143.36c28.675 0 43.012 0 53.964 5.58 9.634 4.909 17.467 12.741 22.375 22.375 5.581 10.952 5.581 25.289 5.581 53.964v122.88M354.933 969.387h307.2M354.933 969.387v-716.803M354.933 252.583h225.28c28.675 0 43.012 0 53.964 5.581 9.634 4.908 17.467 12.741 22.375 22.375 5.581 10.952 5.581 25.289 5.581 53.964v634.883M662.133 457.383h225.279c28.679 0 43.015 0 53.965 5.581 9.632 4.908 17.469 12.741 22.378 22.375 5.577 10.952 5.577 25.289 5.577 53.964v348.163c0 28.672 0 43.008-5.577 53.958-4.908 9.639-12.745 17.469-22.378 22.378-10.95 5.584-25.286 5.584-53.965 5.584h-225.279"/>
</symbol><symbol viewBox="0 0 32 32" id="icon-statistic" xmlns="http://www.w3.org/2000/svg">
<path fill="none" stroke-linejoin="round" stroke-linecap="round" stroke-miterlimit="4" stroke-width="2.4889" stroke="currentColor" d="M28 28h-21.867c-0.747 0-1.12 0-1.405-0.145-0.251-0.128-0.455-0.332-0.583-0.583-0.145-0.285-0.145-0.659-0.145-1.405v-21.867M28 9.333l-7.246 7.246c-0.264 0.264-0.396 0.396-0.548 0.445-0.134 0.044-0.278 0.044-0.412 0-0.152-0.049-0.284-0.181-0.548-0.445l-2.491-2.492c-0.264-0.264-0.396-0.396-0.548-0.445-0.134-0.043-0.278-0.043-0.412 0-0.152 0.049-0.284 0.181-0.548 0.445l-5.912 5.912M28 9.333h-5.333M28 9.333v5.333"/>
</symbol><symbol viewBox="0 0 1088 1024" id="icon-travel-class" xmlns="http://www.w3.org/2000/svg">
<g id="bdicomoon-ignore">
</g>
<path fill="none" stroke-linejoin="round" stroke-linecap="round" stroke-miterlimit="4" stroke-width="89.6" stroke="currentColor" d="M343.417 940.8v-696.892c0-46.292 0-69.437 5.088-88.428 13.809-51.533 54.061-91.786 105.595-105.594 18.99-5.088 42.136-5.088 88.428-5.088s69.437 0 88.428 5.088c51.533 13.808 91.783 54.061 105.594 105.594 5.088 18.991 5.088 42.136 5.088 88.428v323.556M741.638 766.573v174.227M283.683 940.8h517.686c83.635 0 125.453 0 157.402-16.282 28.096-14.317 50.944-37.158 65.261-65.261 16.275-31.942 16.275-73.76 16.275-157.395v-219.021c0-83.635 0-125.452-16.275-157.396-14.317-28.099-37.165-50.943-65.261-65.261-31.949-16.276-73.766-16.276-157.402-16.276h-517.686c-83.635 0-125.452 0-157.396 16.276-28.099 14.317-50.944 37.162-65.261 65.261-16.276 31.944-16.276 73.762-16.276 157.396v219.021c0 83.635 0 125.453 16.276 157.395 14.317 28.102 37.162 50.944 65.261 65.261 31.944 16.282 73.761 16.282 157.396 16.282zM582.35 766.573h243.909c13.939 0 20.909 0 26.234-2.714 4.685-2.381 8.493-6.189 10.88-10.874 2.714-5.325 2.714-12.294 2.714-26.234v-119.466c0-13.939 0-20.909-2.714-26.233-2.387-4.683-6.195-8.49-10.88-10.877-5.325-2.712-12.294-2.712-26.234-2.712h-243.909c-13.939 0-20.909 0-26.233 2.712-4.683 2.387-8.49 6.194-10.877 10.877-2.712 5.324-2.712 12.294-2.712 26.233v119.466c0 13.939 0 20.909 2.712 26.234 2.387 4.685 6.194 8.493 10.877 10.874 5.324 2.714 12.294 2.714 26.233 2.714z"/>
</symbol><symbol viewBox="0 0 32 32" id="icon-user" xmlns="http://www.w3.org/2000/svg">
<path fill="none" stroke-linejoin="round" stroke-linecap="round" stroke-miterlimit="4" stroke-width="2.4889" stroke="currentColor" d="M7.088 25.918c0.811-1.911 2.705-3.251 4.912-3.251h8c2.207 0 4.1 1.34 4.912 3.251M21.333 12.667c0 2.946-2.388 5.333-5.333 5.333s-5.333-2.388-5.333-5.333 2.388-5.333 5.333-5.333c2.946 0 5.333 2.388 5.333 5.333zM29.333 16c0 7.364-5.97 13.333-13.333 13.333s-13.333-5.97-13.333-13.333c0-7.364 5.97-13.333 13.333-13.333s13.333 5.97 13.333 13.333z"/>
</symbol><symbol viewBox="0 0 1638 1024" id="icon-vector-select" xmlns="http://www.w3.org/2000/svg">
<g id="bficomoon-ignore">
</g>
<path fill="none" stroke-linejoin="round" stroke-linecap="round" stroke-miterlimit="4" stroke-width="286.72" stroke="currentColor" d="M143.2 143.35l614.4 614.4 614.4-614.4"/>
</symbol></svg>