<svg width="22" height="24" viewBox="0 0 22 24" fill="none" xmlns="http://www.w3.org/2000/svg">
<path d="M17.1875 7.62812V6.20035C17.1875 3.05122 14.3837 0.489258 10.9375 0.489258C7.49121 0.489258 4.6875 3.05122 4.6875 6.20035V7.62812H0V19.7642C0 21.7356 1.74888 23.3336 3.90625 23.3336H17.9688C20.1261 23.3336 21.875 21.7356 21.875 19.7642V7.62812H17.1875ZM7.8125 6.20035C7.8125 4.62578 9.21436 3.3448 10.9375 3.3448C12.6606 3.3448 14.0625 4.62578 14.0625 6.20035V7.62812H7.8125V6.20035ZM15.625 11.5545C14.9778 11.5545 14.4531 11.0751 14.4531 10.4837C14.4531 9.89226 14.9778 9.41284 15.625 9.41284C16.2722 9.41284 16.7969 9.89226 16.7969 10.4837C16.7969 11.0751 16.2722 11.5545 15.625 11.5545ZM6.25 11.5545C5.60278 11.5545 5.07812 11.0751 5.07812 10.4837C5.07812 9.89226 5.60278 9.41284 6.25 9.41284C6.89722 9.41284 7.42188 9.89226 7.42188 10.4837C7.42188 11.0751 6.89722 11.5545 6.25 11.5545Z" fill="black"/>
</svg>
