<svg aria-hidden="true" xmlns="http://www.w3.org/2000/svg" xmlns:xlink="http://www.w3.org/1999/xlink"><symbol viewBox="0 0 32 32" id="clock" xmlns="http://www.w3.org/2000/svg">
<path d="M16 4c6.617 0 12 5.383 12 12s-5.383 12-12 12-12-5.383-12-12 5.383-12 12-12M16 0c-8.836 0-16 7.164-16 16s7.164 16 16 16 16-7.164 16-16-7.164-16-16-16v0zM21.422 18.578l-3.422-3.426v-7.152h-4.023v7.992c0 0.602 0.277 1.121 0.695 1.492l3.922 3.922 2.828-2.828z"/>
</symbol><symbol viewBox="0 0 32 32" id="facebook" xmlns="http://www.w3.org/2000/svg">
<path d="M19 6h5v-6h-5c-3.86 0-7 3.14-7 7v3h-4v6h4v16h6v-16h5l1-6h-6v-3c0-0.542 0.458-1 1-1z"/>
</symbol><symbol viewBox="0 0 32 32" id="home" xmlns="http://www.w3.org/2000/svg">
<path d="M16 0l-16 16h4v16h24v-16h4l-16-16zM24 28h-6v-6h-4v6h-6v-14.344l8-5.656 8 5.656v14.344z"/>
</symbol><symbol viewBox="0 0 24 32" id="iphone" xmlns="http://www.w3.org/2000/svg">
<path d="M16 0h-8c-4.418 0-8 3.582-8 8v16c0 4.418 3.582 8 8 8h8c4.418 0 8-3.582 8-8v-16c0-4.418-3.582-8-8-8zM12 30.062c-1.139 0-2.062-0.922-2.062-2.062s0.924-2.062 2.062-2.062 2.062 0.922 2.062 2.062-0.923 2.062-2.062 2.062zM20 24h-16v-16c0-2.203 1.795-4 4-4h8c2.203 0 4 1.797 4 4v16z"/>
</symbol><symbol viewBox="0 0 20 32" id="map-pin-fill" xmlns="http://www.w3.org/2000/svg">
<path d="M17.070 2.93c-3.906-3.906-10.234-3.906-14.141 0-3.906 3.904-3.906 10.238 0 14.14 0.001 0 7.071 6.93 7.071 14.93 0-8 7.070-14.93 7.070-14.93 3.907-3.902 3.907-10.236 0-14.14zM10 14c-2.211 0-4-1.789-4-4s1.789-4 4-4 4 1.789 4 4-1.789 4-4 4z"/>
</symbol><symbol viewBox="0 0 32 32" id="redo2" xmlns="http://www.w3.org/2000/svg">
<path d="M18 7.762v-7.762l12 12-12 12v-7.932c-13.961-0.328-13.362 9.493-9.808 15.932-8.772-9.482-6.909-24.674 9.808-24.238z"/>
</symbol><symbol viewBox="0 0 25 32" id="tell" xmlns="http://www.w3.org/2000/svg">
<path d="M3.657 0.915l2.53-0.763c0.835-0.251 1.733-0.19 2.526 0.172s1.428 1 1.785 1.795l1.774 3.944c0.308 0.684 0.394 1.448 0.245 2.183s-0.523 1.406-1.072 1.918l-2.7 2.516c-0.362 0.344-0.088 1.682 1.234 3.973 1.323 2.292 2.346 3.199 2.817 3.058l3.537-1.081c0.717-0.219 1.485-0.209 2.195 0.030s1.329 0.694 1.768 1.302l2.521 3.494c0.509 0.706 0.745 1.572 0.664 2.438s-0.474 1.674-1.106 2.272l-1.949 1.846c-0.629 0.596-1.405 1.014-2.248 1.212s-1.724 0.169-2.553-0.085c-4.083-1.25-7.864-4.959-11.395-11.076-3.538-6.126-4.874-11.293-3.943-15.514 0.188-0.851 0.599-1.636 1.191-2.274s1.344-1.108 2.178-1.359z"/>
</symbol></svg>